<svg version="1.1" id="Layer_1" xmlns="http://www.w3.org/2000/svg" xmlns:xlink="http://www.w3.org/1999/xlink" x="0px" y="0px"
	 width="100%" viewBox="0 0 632 395" enable-background="new 0 0 632 395" xml:space="preserve">
<path fill="#000000" opacity="1.000000" stroke="none" 
	d="
M461.000000,396.000000 
	C307.370605,396.000000 154.241180,396.000000 1.055886,396.000000 
	C1.055886,264.402649 1.055886,132.805252 1.055886,1.103927 
	C211.546097,1.103927 422.092255,1.103927 632.819214,1.103927 
	C632.819214,132.666458 632.819214,264.333221 632.819214,396.000000 
	C575.805176,396.000000 518.652588,396.000000 461.000000,396.000000 
M401.018555,78.979584 
	C401.018555,78.979584 401.136353,78.978394 400.951538,78.446434 
	C400.641357,78.251976 400.331177,78.057518 400.018921,77.978874 
	C400.018921,77.978874 400.134705,77.975952 399.950653,77.444778 
	C399.640808,77.250847 399.330963,77.056915 399.018921,76.978912 
	C399.018921,76.978912 399.134827,76.976135 398.950989,76.445068 
	C398.641571,76.250542 398.332153,76.056023 398.023407,75.969360 
	C398.023407,75.969360 398.131012,75.961990 397.947723,75.441093 
	C397.631470,75.346024 397.315216,75.250954 396.369019,74.880783 
	C385.673431,67.264931 375.460938,58.801319 364.111267,52.333202 
	C356.624939,48.066776 347.567596,46.442020 339.098358,44.041340 
	C325.137146,40.083908 310.760498,40.919525 296.484924,41.068821 
	C292.620605,41.109238 288.681061,41.680603 284.922882,42.605183 
	C275.936401,44.816048 267.282288,47.632305 258.732605,51.638676 
	C245.364426,57.902988 232.767441,64.672226 222.271118,76.018875 
	C221.811722,76.663887 221.352341,77.308891 220.969360,77.964584 
	C220.969360,77.964584 220.971893,77.887474 220.441910,78.057854 
	C220.249100,78.364952 220.056290,78.672050 219.977631,78.980797 
	C219.977631,78.980797 219.974167,78.866684 219.442230,79.048386 
	C219.248581,79.358414 219.054932,79.668449 218.978882,79.980850 
	C218.978882,79.980850 218.976257,79.863251 218.444290,80.046844 
	C218.247025,80.355736 218.049744,80.664619 217.973343,80.977020 
	C217.973343,80.977020 217.970749,80.856148 217.439774,81.042839 
	C217.243210,81.352104 217.046631,81.661369 216.945312,81.966927 
	C216.945312,81.966927 216.930603,81.872734 216.316193,82.132179 
	C215.835587,83.070427 215.354980,84.008667 214.970016,84.960594 
	C214.970016,84.960594 214.975098,84.864090 214.444077,85.048729 
	C214.249481,85.358368 214.054871,85.668007 213.977798,85.980049 
	C213.977798,85.980049 213.975021,85.862511 213.443558,86.048286 
	C213.246887,86.357780 213.050232,86.667274 212.975128,86.978622 
	C212.975128,86.978622 212.971268,86.857109 212.436996,87.041168 
	C212.243179,87.353256 212.049377,87.665344 211.967224,87.968658 
	C211.967224,87.968658 211.950577,87.857910 211.401077,88.049316 
	C211.311096,88.386787 211.221115,88.724266 210.986313,89.435333 
	C210.986313,89.435333 210.972763,89.835777 210.441727,90.044868 
	C210.233719,90.355072 210.025696,90.665276 209.381622,91.056503 
	C209.095230,91.222725 208.960007,91.471214 208.331055,92.111931 
	C207.511612,93.732201 206.692154,95.352470 205.262024,97.195015 
	C204.498672,98.417282 203.735321,99.639549 202.440552,101.051498 
	C202.341736,101.376358 202.242920,101.701210 201.987381,102.413795 
	C201.987381,102.413795 201.971069,102.831680 201.442230,103.038887 
	C201.247559,103.353172 201.052887,103.667458 200.970261,103.971489 
	C200.970261,103.971489 200.952927,103.860321 200.399170,104.051041 
	C200.306961,104.391609 200.214752,104.732178 199.975677,105.423073 
	C199.975677,105.423073 199.971329,105.802917 199.423355,106.032570 
	C199.324554,106.376411 199.225754,106.720245 198.981064,107.423561 
	C198.981064,107.423561 198.972443,107.811417 198.420425,108.035172 
	C198.322388,108.380295 198.224335,108.725426 197.980164,109.424858 
	C197.980164,109.424858 197.972061,109.808037 197.423996,110.032494 
	C197.326401,110.374825 197.228821,110.717155 196.986435,111.423943 
	C196.986435,111.423943 196.975525,111.815956 196.317932,112.125206 
	C195.926895,113.434914 195.535858,114.744621 194.990616,116.427940 
	C194.990616,116.427940 194.973831,116.831764 194.439499,117.039864 
	C194.338104,117.369911 194.236710,117.699951 193.983170,118.406654 
	C193.983170,118.406654 193.974136,118.812782 193.358276,119.086983 
	C193.290710,119.721725 193.223145,120.356476 193.001419,121.407654 
	C193.001419,121.407654 192.970932,121.850677 192.285721,122.172310 
	C191.572205,124.462151 190.858688,126.751984 189.990402,129.653900 
	C189.960571,130.073395 189.930756,130.492905 189.196091,131.285309 
	C187.790955,138.180466 185.724060,145.021011 185.149536,151.984695 
	C184.443985,160.536255 184.648788,169.209076 185.118790,177.793411 
	C185.382690,182.613403 186.975922,187.360596 187.989670,192.973923 
	C188.126434,194.269089 188.093597,195.609512 188.425278,196.852661 
	C193.886139,217.320633 203.879807,235.309967 218.036606,251.519089 
	C218.343521,251.727005 218.650452,251.934921 218.967102,252.029434 
	C218.967102,252.029434 218.853287,252.027390 219.043518,252.559097 
	C219.354721,252.753952 219.665924,252.948807 219.979416,253.022583 
	C219.979416,253.022583 219.858368,253.025665 220.043625,253.558441 
	C220.354218,253.753571 220.664795,253.948685 220.978882,254.023331 
	C220.978882,254.023331 220.858353,254.025299 221.045959,254.556412 
	C221.355804,254.752075 221.665649,254.947739 221.978073,255.024231 
	C221.978073,255.024231 221.858932,255.027390 222.046860,255.557449 
	C222.356384,255.752655 222.665924,255.947876 222.978149,256.024139 
	C222.978149,256.024139 222.859207,256.027130 223.047745,256.558319 
	C223.358063,256.754395 223.668365,256.950439 223.975510,257.032654 
	C223.975510,257.032654 223.862061,257.042877 224.049698,257.582031 
	C224.379303,257.675781 224.708908,257.769531 225.428619,258.012421 
	C225.428619,258.012421 225.845947,258.028442 226.050842,258.554779 
	C226.358887,258.758026 226.666931,258.961273 227.060745,259.612396 
	C227.233124,259.905212 227.489044,260.043915 228.040421,260.554810 
	C228.353683,260.750916 228.666946,260.947021 228.971634,261.048676 
	C228.971634,261.048676 228.878601,261.066986 229.133316,261.680878 
	C230.071884,262.161224 231.010468,262.641571 231.962128,263.027924 
	C231.962128,263.027924 231.867340,263.022949 232.052399,263.557617 
	C232.360092,263.762085 232.667770,263.966553 233.058578,264.613739 
	C233.227875,264.903992 233.480347,265.041321 234.090027,265.647339 
	C235.041885,266.140686 235.993729,266.634064 236.961090,267.030304 
	C236.961090,267.030304 236.862991,267.023346 237.046616,267.556671 
	C237.356842,267.753174 237.667068,267.949646 237.974899,268.032806 
	C237.974899,268.032806 237.861938,268.042419 238.049347,268.577301 
	C238.375885,268.671265 238.702423,268.765228 239.427521,269.009033 
	C239.427521,269.009033 239.852829,269.029877 240.114838,269.650055 
	C241.058838,270.141937 242.002853,270.633789 242.958496,271.049500 
	C242.958496,271.049500 242.882172,271.060059 243.134430,271.675415 
	C244.072296,272.158447 245.010162,272.641510 245.958328,273.038696 
	C245.958328,273.038696 245.871857,273.038269 246.055466,273.572266 
	C246.380981,273.666382 246.706512,273.760498 247.420105,274.008118 
	C247.420105,274.008118 247.837143,274.024231 248.102600,274.646820 
	C249.048981,275.142487 249.995377,275.638153 250.953888,276.043549 
	C250.953888,276.043549 250.862854,276.042358 251.051163,276.579102 
	C251.379532,276.674011 251.707901,276.768921 252.417587,277.014954 
	C252.417587,277.014954 252.827560,277.027618 253.039429,277.565247 
	C253.372528,277.665161 253.705627,277.765076 254.416733,278.015503 
	C254.416733,278.015503 254.823441,278.026642 255.095291,278.631897 
	C255.720459,278.797516 256.345642,278.963135 257.275757,279.782867 
	C262.138947,281.532806 267.002167,283.282745 272.210114,285.746765 
	C282.684906,287.821716 293.103363,290.290558 303.659088,291.799225 
	C308.656830,292.513550 313.916962,291.391571 319.701691,291.022247 
	C320.127533,290.963684 320.553345,290.905121 321.864075,290.990936 
	C327.280670,290.006378 332.697296,289.021820 338.922729,288.005188 
	C344.958649,286.041840 350.994598,284.078491 357.738098,282.005066 
	C358.531860,281.693634 359.325653,281.382233 360.041382,281.056824 
	C360.041382,281.056824 360.059692,281.133942 360.758331,281.012909 
	C361.896027,280.351318 363.033722,279.689758 364.584076,279.013367 
	C364.584076,279.013367 364.966217,278.857056 365.524261,278.947845 
	C365.726562,278.643524 365.928864,278.339203 366.041504,278.035370 
	C366.041504,278.035370 366.051575,278.124481 366.743317,278.011230 
	C367.867340,277.360321 368.991364,276.709412 370.039490,276.046509 
	C370.039490,276.046509 370.051483,276.122437 370.746552,276.013306 
	C371.872284,275.368256 372.997986,274.723236 374.038055,274.053619 
	C374.038055,274.053619 374.024628,274.141724 374.557526,273.957062 
	C374.750092,273.645874 374.942657,273.334656 375.038971,273.028687 
	C375.038971,273.028687 375.052643,273.124084 375.717590,273.010529 
	C376.535645,272.349976 377.353729,271.689423 378.566589,271.017548 
	C378.566589,271.017548 378.933716,270.871826 379.522095,270.973022 
	C379.745850,270.656860 379.969604,270.340698 380.632263,269.932251 
	C380.918152,269.758331 381.050079,269.504425 381.685547,269.023010 
	C382.497681,268.369873 383.309784,267.716736 384.028595,267.046783 
	C384.028595,267.046783 384.021271,267.141357 384.553986,266.951294 
	C384.755890,266.643127 384.957794,266.334961 385.558777,266.018829 
	C385.558777,266.018829 385.930389,265.873108 386.506348,265.982361 
	C386.718842,265.670502 386.931335,265.358612 387.032745,265.032043 
	C387.032745,265.032043 387.025940,265.143890 387.561920,264.962036 
	C387.756744,264.650208 387.951569,264.338348 388.023865,264.022888 
	C388.023865,264.022888 388.025970,264.145477 388.556274,263.953918 
	C388.751007,263.643311 388.945740,263.332733 389.040558,263.027832 
	C389.040558,263.027832 389.054749,263.126923 389.713470,263.020721 
	C390.517761,262.374023 391.322021,261.727295 392.040558,261.055176 
	C392.040558,261.055176 392.026825,261.143555 392.563385,260.962524 
	C392.759125,260.650696 392.954865,260.338867 393.026398,260.024445 
	C393.026398,260.024445 393.030029,260.148651 393.564026,259.962585 
	C393.757874,259.650574 393.951752,259.338562 394.021362,259.021301 
	C394.021362,259.021301 394.021423,259.145630 394.556946,258.951508 
	C394.764130,258.642548 394.971283,258.333588 395.565399,258.019867 
	C395.565399,258.019867 395.923798,257.873932 396.501740,257.984589 
	C396.716064,257.672333 396.930389,257.360077 397.032990,257.032013 
	C397.032990,257.032013 397.025085,257.144592 397.560577,256.960144 
	C397.757324,256.648560 397.954071,256.337006 398.026184,256.024841 
	C398.026184,256.024841 398.031891,256.149353 398.565948,255.963257 
	C398.760651,255.651306 398.955353,255.339355 399.026398,255.024734 
	C399.026398,255.024734 399.029968,255.148392 399.564972,254.963547 
	C399.760040,254.651505 399.955109,254.339478 400.026367,254.024597 
	C400.026367,254.024597 400.029785,254.148376 400.564667,253.963379 
	C400.759796,253.651474 400.954926,253.339584 401.025970,253.023743 
	C401.025970,253.023743 401.028198,253.147919 401.560242,252.961838 
	C401.756470,252.652267 401.952667,252.342697 402.028198,252.027405 
	C402.028198,252.027405 402.029327,252.148239 402.557892,251.950699 
	C402.754486,251.639969 402.951050,251.329239 403.032623,251.028839 
	C403.032623,251.028839 403.050507,251.142914 403.600677,250.949524 
	C403.691589,250.610672 403.782501,250.271835 404.179901,249.307693 
	C406.133881,246.745697 408.314056,244.323334 409.998199,241.594772 
	C414.524811,234.261002 418.748383,226.740494 423.258728,219.396347 
	C430.663788,207.338791 433.203583,193.860580 435.813629,179.722061 
	C435.879639,172.256851 436.012054,164.791199 435.964386,157.326721 
	C435.952667,155.493378 435.353271,153.663803 435.014313,151.027832 
	C434.620636,149.018112 434.226990,147.008408 433.984406,144.186172 
	C433.684082,142.416779 433.383759,140.647385 433.028046,138.262192 
	C432.973236,137.856094 432.918457,137.449982 432.962646,136.478851 
	C432.653320,136.277695 432.343994,136.076538 432.037445,135.963028 
	C432.037445,135.963028 432.124329,135.951157 432.000885,135.162079 
	C431.342743,133.063721 430.684601,130.965363 430.004913,128.092789 
	C428.235687,123.483330 426.880920,118.657150 424.608246,114.310989 
	C420.307953,106.087341 415.480560,98.139366 410.984467,89.498459 
	C410.671143,89.285652 410.357788,89.072845 410.030029,88.968674 
	C410.030029,88.968674 410.139404,88.975655 409.962555,88.437721 
	C409.650085,88.244232 409.337585,88.050743 409.021210,87.978043 
	C409.021210,87.978043 409.142059,87.976601 408.953156,87.445488 
	C408.642609,87.251152 408.332031,87.056808 408.027130,86.960678 
	C408.027130,86.960678 408.124512,86.946815 408.018341,86.287903 
	C407.372223,85.483772 406.726135,84.679634 406.054810,83.959633 
	C406.054810,83.959633 406.141571,83.973312 405.962036,83.436569 
	C405.649811,83.242439 405.337555,83.048302 405.023071,82.975716 
	C405.023071,82.975716 405.144592,82.972092 404.960968,82.437057 
	C404.648499,82.244019 404.335999,82.050987 404.020416,81.978226 
	C404.020416,81.978226 404.140717,81.976097 403.955933,81.442093 
	C403.644196,81.248215 403.332458,81.054329 403.018860,80.979469 
	C403.018860,80.979469 403.137878,80.976425 402.955536,80.441925 
	C402.643677,80.248772 402.331848,80.055618 402.018127,79.980370 
	C402.018127,79.980370 402.135986,79.977547 401.955872,79.442764 
	C401.644653,79.249130 401.333435,79.055496 401.018555,78.979584 
M371.334015,345.630341 
	C370.784180,345.630341 370.234344,345.630341 369.684479,345.630341 
	C369.667969,346.000519 369.651428,346.370728 369.634888,346.740906 
	C371.333618,346.826050 373.032349,346.911224 374.731079,346.996368 
	C374.755249,346.746002 374.779419,346.495667 374.803619,346.245331 
	C373.861664,346.101562 372.919739,345.957794 371.334015,345.630341 
M243.719772,348.542206 
	C243.981140,348.292633 244.245331,348.045624 244.489853,347.780487 
	C244.496948,347.772797 244.295883,347.573151 244.191849,347.463013 
	C243.929779,347.712799 243.667709,347.962616 243.719772,348.542206 
M373.226410,342.155487 
	C373.397888,342.099609 373.569397,342.043732 373.740875,341.987854 
	C373.570404,341.935059 373.399963,341.882294 373.226410,342.155487 
M252.397949,349.481995 
	C252.397949,349.481995 252.521423,349.405823 252.397949,349.481995 
M252.514938,341.417328 
	C252.514938,341.417328 252.568390,341.513550 252.514938,341.417328 
M371.583435,343.514648 
	C371.583435,343.514648 371.486389,343.568573 371.583435,343.514648 
M242.442001,345.490479 
	C242.442001,345.490479 242.519836,345.449921 242.442001,345.490479 
z"/>
<path fill="#FEE8B6" opacity="1.000000" stroke="none" 
	d="
M435.026886,180.149689 
	C433.203583,193.860580 430.663788,207.338791 423.258728,219.396347 
	C418.748383,226.740494 414.524811,234.261002 409.998199,241.594772 
	C408.314056,244.323334 406.133881,246.745697 403.823120,249.770477 
	C403.327728,250.536484 403.189117,250.839691 403.050507,251.142914 
	C403.050507,251.142914 403.032623,251.028839 402.853699,251.158386 
	C402.459625,251.574692 402.244476,251.861465 402.029327,252.148239 
	C402.029327,252.148239 402.028198,252.027405 401.845398,252.153458 
	C401.451111,252.568985 401.239655,252.858444 401.028198,253.147919 
	C401.028198,253.147919 401.025970,253.023743 400.843567,253.149109 
	C400.450684,253.565781 400.240234,253.857071 400.029785,254.148376 
	C400.029785,254.148376 400.026367,254.024597 399.843079,254.148376 
	C399.449829,254.564240 399.239899,254.856308 399.029968,255.148392 
	C399.029968,255.148392 399.026398,255.024734 398.843018,255.148346 
	C398.450409,255.564438 398.241150,255.856903 398.031891,256.149353 
	C398.031891,256.149353 398.026184,256.024841 397.846008,256.151337 
	C397.452240,256.566742 397.238647,256.855682 397.025085,257.144592 
	C397.025085,257.144592 397.032990,257.032013 396.845917,257.115051 
	C396.413818,257.423340 396.168823,257.648651 395.923798,257.873932 
	C395.923798,257.873932 395.565399,258.019867 395.127563,258.150726 
	C394.466980,258.569611 394.244202,258.857635 394.021423,259.145630 
	C394.021423,259.145630 394.021362,259.021301 393.839905,259.147766 
	C393.448975,259.565735 393.239502,259.857178 393.030029,260.148651 
	C393.030029,260.148651 393.026398,260.024445 392.844421,260.149231 
	C392.450592,260.563843 392.238708,260.853699 392.026825,261.143555 
	C392.026825,261.143555 392.040558,261.055176 391.719421,261.037476 
	C390.617096,261.722137 389.835907,262.424530 389.054749,263.126923 
	C389.054749,263.126923 389.040558,263.027832 388.852325,263.155640 
	C388.451385,263.570801 388.238678,263.858124 388.025940,264.145447 
	C388.025970,264.145477 388.023865,264.022888 387.842316,264.149231 
	C387.449158,264.565002 387.237549,264.854431 387.025940,265.143890 
	C387.025940,265.143890 387.032745,265.032043 386.846863,265.115662 
	C386.417480,265.423889 386.173950,265.648499 385.930389,265.873108 
	C385.930389,265.873108 385.558777,266.018829 385.121521,266.155151 
	C384.463287,266.574768 384.242279,266.858063 384.021271,267.141357 
	C384.021271,267.141357 384.028595,267.046783 383.707520,267.040497 
	C382.600311,267.746307 381.814148,268.458435 381.028015,269.170563 
	C381.050079,269.504425 380.918152,269.758331 380.165833,270.061859 
	C379.444153,270.418243 379.188934,270.645050 378.933716,270.871826 
	C378.933716,270.871826 378.566589,271.017548 378.000427,271.017700 
	C376.640411,271.719940 375.846527,272.422028 375.052673,273.124084 
	C375.052643,273.124084 375.038971,273.028687 374.848083,273.154083 
	C374.446350,273.566895 374.235474,273.854309 374.024628,274.141724 
	C374.024628,274.141724 374.038055,274.053619 373.696838,274.028992 
	C372.254272,274.710388 371.152863,275.416412 370.051483,276.122437 
	C370.051483,276.122437 370.039490,276.046509 369.692871,276.035583 
	C368.248016,276.724579 367.149780,277.424530 366.051575,278.124451 
	C366.051575,278.124481 366.041504,278.035370 365.859863,278.125122 
	C365.368927,278.349152 365.131592,278.563232 364.966217,278.857056 
	C364.966217,278.857056 364.584076,279.013367 363.987671,279.008484 
	C362.280731,279.713715 361.170227,280.423828 360.059692,281.133942 
	C360.059692,281.133942 360.041382,281.056824 359.730408,281.031952 
	C358.623108,281.376434 357.826843,281.745789 357.030548,282.115112 
	C350.994598,284.078491 344.958649,286.041840 338.067474,288.008606 
	C332.489563,288.368622 327.759644,288.656128 323.051819,289.153198 
	C322.309631,289.231567 321.667542,290.258301 320.979187,290.846558 
	C320.553345,290.905121 320.127533,290.963684 319.070953,290.775238 
	C317.473236,290.359741 316.504669,290.036560 315.539490,290.046265 
	C303.597107,290.166077 291.724121,289.905396 280.183197,286.145660 
	C277.567352,285.293457 274.646057,285.378876 271.865356,285.032715 
	C267.002167,283.282745 262.138947,281.532806 256.941589,279.191315 
	C256.012756,278.408722 255.418106,278.217682 254.823441,278.026642 
	C254.823441,278.026642 254.416733,278.015503 254.072052,277.741943 
	C253.427444,277.321442 253.127502,277.174530 252.827560,277.027618 
	C252.827560,277.027618 252.417587,277.014954 252.078003,276.743958 
	C251.478348,276.264801 251.186493,276.121277 250.862854,276.042358 
	C250.862854,276.042358 250.953888,276.043549 250.899445,275.730408 
	C249.842377,274.952911 248.839767,274.488586 247.837143,274.024231 
	C247.837143,274.024231 247.420105,274.008118 247.076523,273.740326 
	C246.475204,273.269684 246.188187,273.124908 245.871857,273.038269 
	C245.871857,273.038269 245.958328,273.038696 245.900421,272.727722 
	C244.855728,271.964539 243.868942,271.512299 242.882172,271.060059 
	C242.882172,271.060059 242.958496,271.049500 242.900925,270.731812 
	C241.846512,269.952698 240.849670,269.491302 239.852829,269.029877 
	C239.852829,269.029877 239.427521,269.009033 239.080353,268.739594 
	C238.474747,268.262482 238.184326,268.119904 237.861938,268.042419 
	C237.861938,268.042419 237.974899,268.032806 237.848297,267.849518 
	C237.435471,267.451935 237.149231,267.237640 236.862991,267.023346 
	C236.862991,267.023346 236.961090,267.030304 236.903900,266.718231 
	C235.836472,265.946014 234.826233,265.485840 233.816010,265.025696 
	C233.480347,265.041321 233.227875,264.903992 232.888000,264.151794 
	C232.434052,263.467560 232.150696,263.245270 231.867340,263.022949 
	C231.867340,263.022949 231.962128,263.027924 231.902496,262.720703 
	C230.854767,261.964691 229.866684,261.515839 228.878601,261.066986 
	C228.878601,261.066986 228.971634,261.048676 228.843445,260.853821 
	C228.419678,260.448792 228.124100,260.238647 227.828506,260.028503 
	C227.489044,260.043915 227.233124,259.905212 226.884201,259.149261 
	C226.420410,258.466919 226.133179,258.247681 225.845947,258.028442 
	C225.845947,258.028442 225.428619,258.012421 225.084442,257.742126 
	C224.478775,257.264801 224.186050,257.121826 223.862061,257.042877 
	C223.862061,257.042877 223.975510,257.032654 223.845810,256.851807 
	C223.430481,256.456360 223.144852,256.241730 222.859207,256.027130 
	C222.859207,256.027130 222.978149,256.024139 222.847519,255.845413 
	C222.430908,255.453583 222.144913,255.240494 221.858932,255.027390 
	C221.858932,255.027390 221.978073,255.024231 221.847534,254.845184 
	C221.430786,254.452530 221.144577,254.238907 220.858353,254.025299 
	C220.858353,254.025299 220.978882,254.023331 220.850204,253.843048 
	C220.433807,253.450409 220.146088,253.238037 219.858368,253.025665 
	C219.858368,253.025665 219.979416,253.022583 219.850464,252.842163 
	C219.432114,252.450302 219.142700,252.238846 218.853287,252.027374 
	C218.853287,252.027390 218.967102,252.029434 218.880188,251.851746 
	C218.659012,251.356171 218.439621,251.116089 218.135071,250.953827 
	C203.879807,235.309967 193.886139,217.320633 188.425278,196.852661 
	C188.093597,195.609512 188.126434,194.269089 187.995514,192.104553 
	C187.494873,186.491257 186.816986,181.758224 186.515076,177.001328 
	C185.710007,164.316498 184.855896,151.639526 189.199600,139.264389 
	C190.095245,136.712723 189.700760,133.708191 189.900940,130.912399 
	C189.930756,130.492905 189.960571,130.073395 190.433075,129.266205 
	C191.574158,126.535889 192.272552,124.193283 192.970932,121.850677 
	C192.970932,121.850677 193.001419,121.407654 193.293549,120.984421 
	C193.715164,119.978386 193.844650,119.395584 193.974136,118.812782 
	C193.974136,118.812782 193.983170,118.406654 194.256775,118.064590 
	C194.736893,117.454834 194.884720,117.157913 194.973831,116.831764 
	C194.973831,116.831764 194.990616,116.427940 195.414459,116.130539 
	C196.217377,114.494080 196.596451,113.155022 196.975525,111.815956 
	C196.975525,111.815956 196.986435,111.423943 197.264648,111.083557 
	C197.685913,110.431458 197.828979,110.119743 197.972061,109.808037 
	C197.972061,109.808037 197.980164,109.424858 198.260071,109.088264 
	C198.684113,108.438248 198.828278,108.124832 198.972443,107.811417 
	C198.972443,107.811417 198.981064,107.423561 199.261047,107.084396 
	C199.684479,106.431129 199.827896,106.117027 199.971329,105.802917 
	C199.971329,105.802917 199.975677,105.423073 200.253387,105.097275 
	C200.671722,104.467766 200.812332,104.164047 200.952927,103.860321 
	C200.952927,103.860321 200.970261,103.971489 201.155365,103.843803 
	C201.550690,103.421303 201.760880,103.126495 201.971069,102.831680 
	C201.971069,102.831680 201.987381,102.413795 202.257156,102.068710 
	C202.728470,101.463806 202.876801,101.176537 202.971954,100.861809 
	C203.735321,99.639549 204.498672,98.417282 205.944519,97.037811 
	C207.410004,95.187721 208.192978,93.494843 208.975952,91.801971 
	C208.960007,91.471214 209.095230,91.222725 209.846100,90.885757 
	C210.531311,90.421944 210.752045,90.128860 210.972763,89.835777 
	C210.972763,89.835777 210.986313,89.435333 211.260818,89.098793 
	C211.673737,88.460800 211.812149,88.159355 211.950577,87.857910 
	C211.950577,87.857910 211.967224,87.968658 212.152176,87.846222 
	C212.548508,87.434898 212.759888,87.146004 212.971268,86.857109 
	C212.971268,86.857109 212.975128,86.978622 213.153076,86.848602 
	C213.545700,86.433228 213.760361,86.147865 213.975021,85.862511 
	C213.975021,85.862511 213.977798,85.980049 214.156265,85.849182 
	C214.548187,85.433578 214.761642,85.148834 214.975098,84.864090 
	C214.975098,84.864090 214.970016,84.960594 215.278259,84.904373 
	C216.034546,83.856346 216.482574,82.864540 216.930603,81.872734 
	C216.930603,81.872734 216.945312,81.966927 217.138092,81.841827 
	C217.544159,81.429863 217.757446,81.143005 217.970749,80.856148 
	C217.970749,80.856148 217.973343,80.977020 218.152313,80.847580 
	C218.546265,80.433174 218.761261,80.148209 218.976257,79.863251 
	C218.976257,79.863251 218.978882,79.980850 219.157257,79.850525 
	C219.548477,79.435692 219.761322,79.151192 219.974167,78.866684 
	C219.974167,78.866684 219.977631,78.980797 220.153152,78.850075 
	C220.543076,78.442062 220.757492,78.164764 220.971893,77.887474 
	C220.971893,77.887474 220.969360,77.964584 221.257401,77.911850 
	C222.017868,77.209183 222.490295,76.559258 222.962723,75.909332 
	C232.767441,64.672226 245.364426,57.902988 258.732605,51.638676 
	C267.282288,47.632305 275.936401,44.816048 284.922882,42.605183 
	C288.681061,41.680603 292.620605,41.109238 296.484924,41.068821 
	C310.760498,40.919525 325.137146,40.083908 339.098358,44.041340 
	C347.567596,46.442020 356.624939,48.066776 364.111267,52.333202 
	C375.460938,58.801319 385.673431,67.264931 396.830414,75.204750 
	C397.544250,75.725990 397.824005,75.870415 398.131012,75.961990 
	C398.131012,75.961990 398.023407,75.969360 398.152954,76.152191 
	C398.566620,76.548721 398.850739,76.762428 399.134827,76.976135 
	C399.134827,76.976135 399.018921,76.978912 399.150452,77.157288 
	C399.566254,77.549095 399.850494,77.762520 400.134705,77.975952 
	C400.134705,77.975952 400.018921,77.978874 400.150970,78.157425 
	C400.567444,78.550117 400.851898,78.764259 401.136353,78.978394 
	C401.136353,78.978394 401.018555,78.979584 401.147400,79.160309 
	C401.562836,79.553200 401.849426,79.765373 402.135986,79.977539 
	C402.135986,79.977547 402.018127,79.980370 402.146454,80.161156 
	C402.562469,80.553436 402.850189,80.764931 403.137878,80.976425 
	C403.137878,80.976425 403.018860,80.979469 403.147461,81.160057 
	C403.564270,81.552467 403.852478,81.764282 404.140717,81.976097 
	C404.140717,81.976097 404.020416,81.978226 404.146332,82.160995 
	C404.563019,82.553207 404.853821,82.762642 405.144592,82.972092 
	C405.144592,82.972092 405.023071,82.975716 405.147003,83.158813 
	C405.561157,83.552376 405.851349,83.762848 406.141571,83.973312 
	C406.141571,83.973312 406.054810,83.959633 406.037842,84.281174 
	C406.722076,85.384087 407.423309,86.165451 408.124512,86.946815 
	C408.124512,86.946815 408.027130,86.960678 408.155396,87.148727 
	C408.569763,87.550056 408.855896,87.763329 409.142059,87.976608 
	C409.142059,87.976601 409.021210,87.978043 409.147705,88.159683 
	C409.562592,88.552757 409.851013,88.764206 410.139404,88.975647 
	C410.139404,88.975655 410.030029,88.968674 410.114502,89.155807 
	C410.423370,89.587585 410.647766,89.832214 410.872192,90.076851 
	C415.480560,98.139366 420.307953,106.087341 424.608246,114.310989 
	C426.880920,118.657150 428.235687,123.483330 430.000641,128.913361 
	C430.705688,131.806335 431.415009,133.878754 432.124329,135.951157 
	C432.124329,135.951157 432.037445,135.963028 432.123169,136.148743 
	C432.344086,136.647629 432.562317,136.884094 432.863647,137.043884 
	C432.918457,137.449982 432.973236,137.856094 432.807739,138.812454 
	C433.002716,141.241379 433.417999,143.120041 433.833313,144.998688 
	C434.226990,147.008408 434.620636,149.018112 434.991882,151.910049 
	C434.988617,161.911407 435.007751,171.030548 435.026886,180.149689 
M214.086029,153.092880 
	C214.086029,153.092880 214.197891,153.137283 213.500778,153.059875 
	C212.365173,152.381622 211.229568,151.703369 209.613419,150.355576 
	C207.348557,150.253876 205.083694,150.152176 203.143509,150.065063 
	C204.034454,156.793259 204.879715,163.176498 205.809036,170.194580 
	C207.003021,169.862900 208.570557,169.427444 210.998672,168.995895 
	C212.724228,168.975830 214.449783,168.955765 216.720490,168.999115 
	C217.159088,169.298782 217.597687,169.598450 218.098022,170.466599 
	C218.379364,170.800140 218.660721,171.133698 218.942062,171.467239 
	C219.293823,171.025848 219.645584,170.584473 220.738754,169.986145 
	C226.516190,168.458710 228.877579,164.249039 227.810608,157.379074 
	C226.855896,151.231903 224.400665,149.541031 216.464478,150.069916 
	C215.694351,151.110657 214.924240,152.151382 214.086029,153.092880 
M329.586884,155.705811 
	C329.034546,155.479172 328.482239,155.252518 327.189392,154.996658 
	C326.471619,154.827438 325.753876,154.658218 324.857758,154.002457 
	C323.566864,154.357727 322.276001,154.712997 320.644623,155.529022 
	C319.870026,156.065750 319.095398,156.602478 317.603027,157.198608 
	C317.349792,159.468582 317.096588,161.738571 317.033112,164.532715 
	C317.068848,164.900314 317.104584,165.267914 317.204285,166.180511 
	C317.434570,166.457428 317.664886,166.734344 318.150360,167.199677 
	C318.150360,167.199677 318.166626,167.516434 318.370026,168.128647 
	C318.716431,168.364853 319.062805,168.601044 319.912476,168.929199 
	C320.299713,169.230026 320.686920,169.530869 321.154175,170.170227 
	C321.435242,170.152481 321.716339,170.134735 322.792389,170.070038 
	C323.852448,170.121323 324.912537,170.172607 326.036804,170.643890 
	C326.213654,170.830643 326.390472,171.017395 326.567322,171.204147 
	C326.716614,170.833206 326.865906,170.462265 327.521057,169.777878 
	C328.054016,169.534180 328.586975,169.290466 329.918365,169.043808 
	C331.248108,169.028702 332.577850,169.013596 334.286316,169.695938 
	C335.545166,169.781097 336.804016,169.866257 338.283875,169.966354 
	C338.283875,167.240952 337.937286,164.857117 338.408417,162.647614 
	C338.711090,161.228134 340.217163,160.065262 341.183807,158.787369 
	C342.134613,160.039963 343.643463,161.184555 343.911530,162.569321 
	C344.365662,164.915344 344.036285,167.413055 344.036285,170.185120 
	C346.036957,169.944794 347.412201,169.779587 348.715576,169.623032 
	C349.338837,155.586014 348.121277,153.904373 338.430115,155.313828 
	C338.321259,153.578369 338.213501,151.860016 338.084869,149.809097 
	C336.173584,150.009857 334.665039,150.168304 332.992859,150.343948 
	C333.404510,151.537704 333.658234,152.273544 333.642700,153.200119 
	C333.469574,153.540451 333.559326,153.805359 334.053650,154.656372 
	C334.004761,155.102646 333.955841,155.548904 333.074554,156.013412 
	C331.967651,156.085297 330.860748,156.157181 329.894104,156.144791 
	C329.894104,156.144791 329.812866,156.286835 329.586884,155.705811 
M260.749115,162.509140 
	C260.515533,163.292114 259.884003,164.235458 260.122772,164.828064 
	C260.847778,166.627228 261.523529,169.029678 262.958832,169.779114 
	C264.159698,170.406113 267.276672,169.563660 267.961914,168.421783 
	C268.821350,166.989639 268.799469,163.959900 267.794952,162.784302 
	C266.827332,161.651840 264.131104,161.922195 262.179016,161.741394 
	C261.388916,161.668213 260.558228,162.032761 259.894073,161.469193 
	C261.635712,158.127197 263.377350,154.785187 265.118958,151.443192 
	C264.825714,151.072739 264.532440,150.702286 264.239197,150.331833 
	C262.722687,151.337769 261.076996,152.198242 259.729797,153.394821 
	C258.613373,154.386383 257.848877,155.774185 256.692383,156.277939 
	C255.662155,154.459366 254.999832,152.135590 253.461212,151.015121 
	C252.564362,150.362000 249.671539,151.124664 248.760620,152.183121 
	C247.822433,153.273239 247.566956,155.741486 248.122742,157.176987 
	C249.722076,161.307846 253.132065,159.450348 256.704163,159.483429 
	C254.954956,162.851639 253.205765,166.219833 251.456573,169.588043 
	C251.937378,170.010605 252.418167,170.433182 252.898972,170.855743 
	C254.346451,169.461609 255.939224,168.185532 257.197205,166.637405 
	C258.279266,165.305786 258.979248,163.663712 260.749115,162.509140 
M292.333130,155.729645 
	C292.333130,153.922012 292.333130,152.114395 292.333130,149.942657 
	C290.603699,150.051453 289.244263,150.136978 287.725830,150.232498 
	C287.725830,152.318481 287.725830,153.933105 287.725830,155.704285 
	C286.106720,155.345200 284.706207,154.834930 283.282166,154.757401 
	C279.485718,154.550735 276.717987,157.400208 276.352570,161.680313 
	C275.984894,165.987656 278.619904,169.886597 282.337402,170.017868 
	C285.579468,170.132370 288.839050,169.749100 292.333008,169.573608 
	C292.333008,165.282211 292.333008,160.976364 292.333130,155.729645 
M238.387360,149.851196 
	C234.006042,149.576294 231.521667,151.698441 230.674164,155.924026 
	C229.723343,160.664627 229.360321,165.676834 233.767593,168.583664 
	C235.740295,169.884735 239.878754,169.783020 242.016479,168.551315 
	C246.139557,166.175659 245.600571,161.448120 245.211761,157.278641 
	C244.864609,153.556000 243.535355,150.464462 238.387360,149.851196 
M296.501221,157.243240 
	C293.495819,163.441269 295.306366,169.763367 300.530304,169.862595 
	C303.221954,169.913696 307.454407,168.394180 308.317261,166.417450 
	C309.591766,163.497604 311.062958,159.039505 306.981415,156.274094 
	C303.646362,154.014435 300.209106,153.798264 296.501221,157.243240 
M415.203522,169.215958 
	C415.989777,167.353500 417.371826,165.504608 417.414581,163.625229 
	C417.470734,161.159851 417.258911,157.698380 415.716919,156.448212 
	C413.963409,155.026611 410.240601,154.652924 408.073425,155.537567 
	C406.165894,156.316208 404.357727,159.328094 404.019196,161.581146 
	C403.067444,167.915283 407.105133,170.790176 415.203522,169.215958 
M367.102783,166.289642 
	C367.102783,162.539413 367.102783,158.789200 367.102783,154.985672 
	C364.251678,154.985672 362.001862,155.251236 359.837860,154.933090 
	C354.529816,154.152695 350.651855,157.010513 351.279480,162.347183 
	C351.583557,164.933167 353.464264,168.832703 355.421936,169.397736 
	C358.957489,170.418182 363.087830,169.394608 366.962494,169.121338 
	C367.052826,169.114975 367.056793,167.884048 367.102783,166.289642 
M372.656616,170.032181 
	C373.463959,169.340271 374.770660,168.767853 374.970978,167.930679 
	C375.346954,166.359436 374.759613,164.547745 375.177704,162.999359 
	C375.584869,161.491714 376.748901,160.188477 377.580627,158.795486 
	C378.470123,160.109192 379.851532,161.325684 380.134796,162.759201 
	C380.569580,164.959488 380.249054,167.309021 380.249054,169.728226 
	C382.095673,169.728226 383.455658,169.728226 385.000031,169.728226 
	C385.000031,166.464325 385.580475,163.331314 384.813477,160.572983 
	C384.216797,158.427185 382.264557,155.698181 380.337067,155.104691 
	C377.348633,154.184525 373.868378,154.861801 369.589905,154.861801 
	C370.370819,160.346893 371.058655,165.178467 372.656616,170.032181 
M396.861542,154.859680 
	C395.378571,154.900284 393.792755,154.614563 392.432129,155.043350 
	C388.527435,156.273834 387.040039,159.402893 387.409851,163.190735 
	C387.805817,167.245865 390.007843,169.959686 394.440643,170.122528 
	C398.254730,170.262665 401.087982,169.031174 402.048126,163.927917 
	C399.779388,164.604599 398.172791,165.270813 396.504303,165.516449 
	C395.370483,165.683380 393.269806,165.524597 393.128571,165.053604 
	C392.652496,163.465805 392.579193,161.606018 392.966248,159.998108 
	C393.090698,159.481033 395.145050,159.118774 396.267395,159.221573 
	C398.120789,159.391327 399.934296,159.996567 401.764618,160.418274 
	C401.967560,159.890869 402.170471,159.363464 402.373413,158.836060 
	C400.776733,157.550781 399.180023,156.265518 396.861542,154.859680 
z"/>
<path fill="#FDF3D9" opacity="1.000000" stroke="none" 
	d="
M189.548508,131.098846 
	C189.700760,133.708191 190.095245,136.712723 189.199600,139.264389 
	C184.855896,151.639526 185.710007,164.316498 186.515076,177.001328 
	C186.816986,181.758224 187.494873,186.491257 187.985779,191.687881 
	C186.975922,187.360596 185.382690,182.613403 185.118790,177.793411 
	C184.648788,169.209076 184.443985,160.536255 185.149536,151.984695 
	C185.724060,145.021011 187.790955,138.180466 189.548508,131.098846 
z"/>
<path fill="#FDF3D9" opacity="1.000000" stroke="none" 
	d="
M272.037720,285.389740 
	C274.646057,285.378876 277.567352,285.293457 280.183197,286.145660 
	C291.724121,289.905396 303.597107,290.166077 315.539490,290.046265 
	C316.504669,290.036560 317.473236,290.359741 318.749207,290.814880 
	C313.916962,291.391571 308.656830,292.513550 303.659088,291.799225 
	C293.103363,290.290558 282.684906,287.821716 272.037720,285.389740 
z"/>
<path fill="#FDF3D9" opacity="1.000000" stroke="none" 
	d="
M435.420258,179.935883 
	C435.007751,171.030548 434.988617,161.911407 434.996765,152.312378 
	C435.353271,153.663803 435.952667,155.493378 435.964386,157.326721 
	C436.012054,164.791199 435.879639,172.256851 435.420258,179.935883 
z"/>
<path fill="#FDF3D9" opacity="1.000000" stroke="none" 
	d="
M321.421631,290.918762 
	C321.667542,290.258301 322.309631,289.231567 323.051819,289.153198 
	C327.759644,288.656128 332.489563,288.368622 337.663055,288.024658 
	C332.697296,289.021820 327.280670,290.006378 321.421631,290.918762 
z"/>
<path fill="#FDF3D9" opacity="1.000000" stroke="none" 
	d="
M192.628326,122.011490 
	C192.272552,124.193283 191.574158,126.535889 190.510468,128.960159 
	C190.858688,126.751984 191.572205,124.462151 192.628326,122.011490 
z"/>
<path fill="#FDF3D9" opacity="1.000000" stroke="none" 
	d="
M432.062592,135.556610 
	C431.415009,133.878754 430.705688,131.806335 430.011414,129.300446 
	C430.684601,130.965363 431.342743,133.063721 432.062592,135.556610 
z"/>
<path fill="#FDF3D9" opacity="1.000000" stroke="none" 
	d="
M433.908844,144.592438 
	C433.417999,143.120041 433.002716,141.241379 432.835419,139.120361 
	C433.383759,140.647385 433.684082,142.416779 433.908844,144.592438 
z"/>
<path fill="#FDF3D9" opacity="1.000000" stroke="none" 
	d="
M208.653503,91.956955 
	C208.192978,93.494843 207.410004,95.187721 206.249863,96.926666 
	C206.692154,95.352470 207.511612,93.732201 208.653503,91.956955 
z"/>
<path fill="#080808" opacity="1.000000" stroke="none" 
	d="
M371.655914,345.722168 
	C372.919739,345.957794 373.861664,346.101562 374.803619,346.245331 
	C374.779419,346.495667 374.755249,346.746002 374.731079,346.996368 
	C373.032349,346.911224 371.333618,346.826050 369.634888,346.740906 
	C369.651428,346.370728 369.667969,346.000519 369.684479,345.630341 
	C370.234344,345.630341 370.784180,345.630341 371.655914,345.722168 
z"/>
<path fill="#FDF3D9" opacity="1.000000" stroke="none" 
	d="
M366.397461,278.067841 
	C367.149780,277.424530 368.248016,276.724579 369.730835,276.041565 
	C368.991364,276.709412 367.867340,277.360321 366.397461,278.067841 
z"/>
<path fill="#FDF3D9" opacity="1.000000" stroke="none" 
	d="
M196.646729,111.970581 
	C196.596451,113.155022 196.217377,114.494080 195.491562,115.943741 
	C195.535858,114.744621 195.926895,113.434914 196.646729,111.970581 
z"/>
<path fill="#FDF3D9" opacity="1.000000" stroke="none" 
	d="
M370.399017,276.067871 
	C371.152863,275.416412 372.254272,274.710388 373.739685,274.041290 
	C372.997986,274.723236 371.872284,275.368256 370.399017,276.067871 
z"/>
<path fill="#FDF3D9" opacity="1.000000" stroke="none" 
	d="
M360.408997,281.073425 
	C361.170227,280.423828 362.280731,279.713715 363.781372,279.015869 
	C363.033722,279.689758 361.896027,280.351318 360.408997,281.073425 
z"/>
<path fill="#FDF3D9" opacity="1.000000" stroke="none" 
	d="
M229.005951,261.373932 
	C229.866684,261.515839 230.854767,261.964691 231.895950,262.767700 
	C231.010468,262.641571 230.071884,262.161224 229.005951,261.373932 
z"/>
<path fill="#FDF3D9" opacity="1.000000" stroke="none" 
	d="
M247.969879,274.335510 
	C248.839767,274.488586 249.842377,274.952911 250.893387,275.775513 
	C249.995377,275.638153 249.048981,275.142487 247.969879,274.335510 
z"/>
<path fill="#FDF3D9" opacity="1.000000" stroke="none" 
	d="
M216.623398,82.002457 
	C216.482574,82.864540 216.034546,83.856346 215.230438,84.897530 
	C215.354980,84.008667 215.835587,83.070427 216.623398,82.002457 
z"/>
<path fill="#FDF3D9" opacity="1.000000" stroke="none" 
	d="
M233.953018,265.336517 
	C234.826233,265.485840 235.836472,265.946014 236.896149,266.766785 
	C235.993729,266.634064 235.041885,266.140686 233.953018,265.336517 
z"/>
<path fill="#FDF3D9" opacity="1.000000" stroke="none" 
	d="
M408.071411,86.617355 
	C407.423309,86.165451 406.722076,85.384087 406.050446,84.239105 
	C406.726135,84.679634 407.372223,85.483772 408.071411,86.617355 
z"/>
<path fill="#FDF3D9" opacity="1.000000" stroke="none" 
	d="
M381.356781,269.096802 
	C381.814148,268.458435 382.600311,267.746307 383.754211,267.048920 
	C383.309784,267.716736 382.497681,268.369873 381.356781,269.096802 
z"/>
<path fill="#FDF3D9" opacity="1.000000" stroke="none" 
	d="
M389.384094,263.073822 
	C389.835907,262.424530 390.617096,261.722137 391.762299,261.050171 
	C391.322021,261.727295 390.517761,262.374023 389.384094,263.073822 
z"/>
<path fill="#FDF3D9" opacity="1.000000" stroke="none" 
	d="
M375.385132,273.067322 
	C375.846527,272.422028 376.640411,271.719940 377.803040,271.023376 
	C377.353729,271.689423 376.535645,272.349976 375.385132,273.067322 
z"/>
<path fill="#FDF3D9" opacity="1.000000" stroke="none" 
	d="
M243.008301,271.367737 
	C243.868942,271.512299 244.855728,271.964539 245.895264,272.770660 
	C245.010162,272.641510 244.072296,272.158447 243.008301,271.367737 
z"/>
<path fill="#FDF3D9" opacity="1.000000" stroke="none" 
	d="
M239.983826,269.339966 
	C240.849670,269.491302 241.846512,269.952698 242.895111,270.769897 
	C242.002853,270.633789 241.058838,270.141937 239.983826,269.339966 
z"/>
<path fill="#FDF3D9" opacity="1.000000" stroke="none" 
	d="
M222.616913,75.964104 
	C222.490295,76.559258 222.017868,77.209183 221.219193,77.906509 
	C221.352341,77.308891 221.811722,76.663887 222.616913,75.964104 
z"/>
<path fill="#080808" opacity="1.000000" stroke="none" 
	d="
M243.562714,348.377319 
	C243.667709,347.962616 243.929779,347.712799 244.191864,347.463013 
	C244.295883,347.573151 244.496948,347.772797 244.489853,347.780487 
	C244.245331,348.045624 243.981140,348.292633 243.562714,348.377319 
z"/>
<path fill="#FDF3D9" opacity="1.000000" stroke="none" 
	d="
M357.384338,282.060120 
	C357.826843,281.745789 358.623108,281.376434 359.769409,281.038940 
	C359.325653,281.382233 358.531860,281.693634 357.384338,282.060120 
z"/>
<path fill="#FDF3D9" opacity="1.000000" stroke="none" 
	d="
M254.959366,278.329285 
	C255.418106,278.217682 256.012756,278.408722 256.789124,278.864258 
	C256.345642,278.963135 255.720459,278.797516 254.959366,278.329285 
z"/>
<path fill="#FDF3D9" opacity="1.000000" stroke="none" 
	d="
M193.666199,118.949883 
	C193.844650,119.395584 193.715164,119.978386 193.370636,120.776199 
	C193.223145,120.356476 193.290710,119.721725 193.666199,118.949883 
z"/>
<path fill="#080808" opacity="1.000000" stroke="none" 
	d="
M373.227966,341.992493 
	C373.399963,341.882294 373.570404,341.935059 373.740875,341.987854 
	C373.569397,342.043732 373.397888,342.099609 373.227966,341.992493 
z"/>
<path fill="#FDF3D9" opacity="1.000000" stroke="none" 
	d="
M231.959869,263.290283 
	C232.150696,263.245270 232.434052,263.467560 232.846436,263.930450 
	C232.667770,263.966553 232.360092,263.762085 231.959869,263.290283 
z"/>
<path fill="#080808" opacity="1.000000" stroke="none" 
	d="
M252.459686,349.443909 
	C252.521423,349.405823 252.397949,349.481995 252.459686,349.443909 
z"/>
<path fill="#FDF3D9" opacity="1.000000" stroke="none" 
	d="
M387.293945,265.052979 
	C387.237549,264.854431 387.449158,264.565002 387.903564,264.151001 
	C387.951569,264.338348 387.756744,264.650208 387.293945,265.052979 
z"/>
<path fill="#FDF3D9" opacity="1.000000" stroke="none" 
	d="
M388.291107,264.049683 
	C388.238678,263.858124 388.451385,263.570801 388.902283,263.152802 
	C388.945740,263.332733 388.751007,263.643311 388.291107,264.049683 
z"/>
<path fill="#FDF3D9" opacity="1.000000" stroke="none" 
	d="
M223.955872,257.312439 
	C224.186050,257.121826 224.478775,257.264801 224.889374,257.667542 
	C224.708908,257.769531 224.379303,257.675781 223.955872,257.312439 
z"/>
<path fill="#FDF3D9" opacity="1.000000" stroke="none" 
	d="
M396.212769,257.929260 
	C396.168823,257.648651 396.413818,257.423340 396.901764,257.122925 
	C396.930389,257.360077 396.716064,257.672333 396.212769,257.929260 
z"/>
<path fill="#FDF3D9" opacity="1.000000" stroke="none" 
	d="
M392.295105,261.053040 
	C392.238708,260.853699 392.450592,260.563843 392.906555,260.150513 
	C392.954865,260.338867 392.759125,260.650696 392.295105,261.053040 
z"/>
<path fill="#FDF3D9" opacity="1.000000" stroke="none" 
	d="
M225.948395,258.291626 
	C226.133179,258.247681 226.420410,258.466919 226.841309,258.925323 
	C226.666931,258.961273 226.358887,258.758026 225.948395,258.291626 
z"/>
<path fill="#FDF3D9" opacity="1.000000" stroke="none" 
	d="
M394.289185,259.048584 
	C394.244202,258.857635 394.466980,258.569611 394.934082,258.153107 
	C394.971283,258.333588 394.764130,258.642548 394.289185,259.048584 
z"/>
<path fill="#FDF3D9" opacity="1.000000" stroke="none" 
	d="
M393.297028,260.055603 
	C393.239502,259.857178 393.448975,259.565735 393.902039,259.150391 
	C393.951752,259.338562 393.757874,259.650574 393.297028,260.055603 
z"/>
<path fill="#FDF3D9" opacity="1.000000" stroke="none" 
	d="
M227.934464,260.291656 
	C228.124100,260.238647 228.419678,260.448792 228.847748,260.901031 
	C228.666946,260.947021 228.353683,260.750916 227.934464,260.291656 
z"/>
<path fill="#FDF3D9" opacity="1.000000" stroke="none" 
	d="
M397.292847,257.052368 
	C397.238647,256.855682 397.452240,256.566742 397.908325,256.151642 
	C397.954071,256.337006 397.757324,256.648560 397.292847,257.052368 
z"/>
<path fill="#FDF3D9" opacity="1.000000" stroke="none" 
	d="
M386.218384,265.927734 
	C386.173950,265.648499 386.417480,265.423889 386.902405,265.122986 
	C386.931335,265.358612 386.718842,265.670502 386.218384,265.927734 
z"/>
<path fill="#FDF3D9" opacity="1.000000" stroke="none" 
	d="
M384.287628,267.046326 
	C384.242279,266.858063 384.463287,266.574768 384.921997,266.159119 
	C384.957794,266.334961 384.755890,266.643127 384.287628,267.046326 
z"/>
<path fill="#FDF3D9" opacity="1.000000" stroke="none" 
	d="
M236.954803,267.290009 
	C237.149231,267.237640 237.435471,267.451935 237.849503,267.906189 
	C237.667068,267.949646 237.356842,267.753174 236.954803,267.290009 
z"/>
<path fill="#FDF3D9" opacity="1.000000" stroke="none" 
	d="
M237.955643,268.309875 
	C238.184326,268.119904 238.474747,268.262482 238.881073,268.664673 
	C238.702423,268.765228 238.375885,268.671265 237.955643,268.309875 
z"/>
<path fill="#FDF3D9" opacity="1.000000" stroke="none" 
	d="
M379.227905,270.922424 
	C379.188934,270.645050 379.444153,270.418243 379.946350,270.108002 
	C379.969604,270.340698 379.745850,270.656860 379.227905,270.922424 
z"/>
<path fill="#FDF3D9" opacity="1.000000" stroke="none" 
	d="
M245.963654,273.305267 
	C246.188187,273.124908 246.475204,273.269684 246.882477,273.663574 
	C246.706512,273.760498 246.380981,273.666382 245.963654,273.305267 
z"/>
<path fill="#FDF3D9" opacity="1.000000" stroke="none" 
	d="
M374.291077,274.049377 
	C374.235474,273.854309 374.446350,273.566895 374.896210,273.151489 
	C374.942657,273.334656 374.750092,273.645874 374.291077,274.049377 
z"/>
<path fill="#FDF3D9" opacity="1.000000" stroke="none" 
	d="
M250.957001,276.310730 
	C251.186493,276.121277 251.478348,276.264801 251.887329,276.668396 
	C251.707901,276.768921 251.379532,276.674011 250.957001,276.310730 
z"/>
<path fill="#FDF3D9" opacity="1.000000" stroke="none" 
	d="
M252.933502,277.296448 
	C253.127502,277.174530 253.427444,277.321442 253.883057,277.666687 
	C253.705627,277.765076 253.372528,277.665161 252.933502,277.296448 
z"/>
<path fill="#FDF3D9" opacity="1.000000" stroke="none" 
	d="
M365.245239,278.902466 
	C365.131592,278.563232 365.368927,278.349152 365.904724,278.124878 
	C365.928864,278.339203 365.726562,278.643524 365.245239,278.902466 
z"/>
<path fill="#FDF3D9" opacity="1.000000" stroke="none" 
	d="
M398.039368,75.701538 
	C397.824005,75.870415 397.544250,75.725990 397.145386,75.342300 
	C397.315216,75.250954 397.631470,75.346024 398.039368,75.701538 
z"/>
<path fill="#080808" opacity="1.000000" stroke="none" 
	d="
M252.541656,341.465454 
	C252.568390,341.513550 252.514938,341.417328 252.541656,341.465454 
z"/>
<path fill="#080808" opacity="1.000000" stroke="none" 
	d="
M371.534912,343.541626 
	C371.486389,343.568573 371.583435,343.514648 371.534912,343.541626 
z"/>
<path fill="#080808" opacity="1.000000" stroke="none" 
	d="
M242.480927,345.470215 
	C242.519836,345.449921 242.442001,345.490479 242.480927,345.470215 
z"/>
<path fill="#FDF3D9" opacity="1.000000" stroke="none" 
	d="
M210.707245,89.940323 
	C210.752045,90.128860 210.531311,90.421944 210.064133,90.845245 
	C210.025696,90.665276 210.233719,90.355072 210.707245,89.940323 
z"/>
<path fill="#FDF3D9" opacity="1.000000" stroke="none" 
	d="
M211.675827,87.953613 
	C211.812149,88.159355 211.673737,88.460800 211.333221,88.912003 
	C211.221115,88.724266 211.311096,88.386787 211.675827,87.953613 
z"/>
<path fill="#FDF3D9" opacity="1.000000" stroke="none" 
	d="
M403.046692,80.709175 
	C402.850189,80.764931 402.562469,80.553436 402.147400,80.102203 
	C402.331848,80.055618 402.643677,80.248772 403.046692,80.709175 
z"/>
<path fill="#FDF3D9" opacity="1.000000" stroke="none" 
	d="
M217.705261,80.949493 
	C217.757446,81.143005 217.544159,81.429863 217.090454,81.843674 
	C217.046631,81.661369 217.243210,81.352104 217.705261,80.949493 
z"/>
<path fill="#FDF3D9" opacity="1.000000" stroke="none" 
	d="
M404.048340,81.709091 
	C403.852478,81.764282 403.564270,81.552467 403.148376,81.100548 
	C403.332458,81.054329 403.644196,81.248215 404.048340,81.709091 
z"/>
<path fill="#FDF3D9" opacity="1.000000" stroke="none" 
	d="
M405.052795,82.704575 
	C404.853821,82.762642 404.563019,82.553207 404.147888,82.100861 
	C404.335999,82.050987 404.648499,82.244019 405.052795,82.704575 
z"/>
<path fill="#FDF3D9" opacity="1.000000" stroke="none" 
	d="
M406.051819,83.704941 
	C405.851349,83.762848 405.561157,83.552376 405.148132,83.098038 
	C405.337555,83.048302 405.649811,83.242439 406.051819,83.704941 
z"/>
<path fill="#FDF3D9" opacity="1.000000" stroke="none" 
	d="
M214.709595,84.956406 
	C214.761642,85.148834 214.548187,85.433578 214.097504,85.847977 
	C214.054871,85.668007 214.249481,85.358368 214.709595,84.956406 
z"/>
<path fill="#FDF3D9" opacity="1.000000" stroke="none" 
	d="
M213.709290,85.955399 
	C213.760361,86.147865 213.545700,86.433228 213.092316,86.847679 
	C213.050232,86.667274 213.246887,86.357780 213.709290,85.955399 
z"/>
<path fill="#FDF3D9" opacity="1.000000" stroke="none" 
	d="
M212.704132,86.949142 
	C212.759888,87.146004 212.548508,87.434898 212.096344,87.850609 
	C212.049377,87.665344 212.243179,87.353256 212.704132,86.949142 
z"/>
<path fill="#FDF3D9" opacity="1.000000" stroke="none" 
	d="
M409.047607,87.711044 
	C408.855896,87.763329 408.569763,87.550056 408.152557,87.099625 
	C408.332031,87.056808 408.642609,87.251152 409.047607,87.711044 
z"/>
<path fill="#FDF3D9" opacity="1.000000" stroke="none" 
	d="
M218.710266,79.955048 
	C218.761261,80.148209 218.546265,80.433174 218.091873,80.845825 
	C218.049744,80.664619 218.247025,80.355736 218.710266,79.955048 
z"/>
<path fill="#FDF3D9" opacity="1.000000" stroke="none" 
	d="
M410.050964,88.706680 
	C409.851013,88.764206 409.562592,88.552757 409.149658,88.099289 
	C409.337585,88.050743 409.650085,88.244232 410.050964,88.706680 
z"/>
<path fill="#FDF3D9" opacity="1.000000" stroke="none" 
	d="
M432.913147,136.761368 
	C432.562317,136.884094 432.344086,136.647629 432.121765,136.104919 
	C432.343994,136.076538 432.653320,136.277695 432.913147,136.761368 
z"/>
<path fill="#FDF3D9" opacity="1.000000" stroke="none" 
	d="
M410.928314,89.787659 
	C410.647766,89.832214 410.423370,89.587585 410.121704,89.101494 
	C410.357788,89.072845 410.671143,89.285652 410.928314,89.787659 
z"/>
<path fill="#FDF3D9" opacity="1.000000" stroke="none" 
	d="
M194.706665,116.935814 
	C194.884720,117.157913 194.736893,117.454834 194.332825,117.876266 
	C194.236710,117.699951 194.338104,117.369911 194.706665,116.935814 
z"/>
<path fill="#FDF3D9" opacity="1.000000" stroke="none" 
	d="
M197.698029,109.920265 
	C197.828979,110.119743 197.685913,110.431458 197.337036,110.901329 
	C197.228821,110.717155 197.326401,110.374825 197.698029,109.920265 
z"/>
<path fill="#FDF3D9" opacity="1.000000" stroke="none" 
	d="
M198.696442,107.923294 
	C198.828278,108.124832 198.684113,108.438248 198.333130,108.911110 
	C198.224335,108.725426 198.322388,108.380295 198.696442,107.923294 
z"/>
<path fill="#FDF3D9" opacity="1.000000" stroke="none" 
	d="
M199.697342,105.917740 
	C199.827896,106.117027 199.684479,106.431129 199.334000,106.904663 
	C199.225754,106.720245 199.324554,106.376411 199.697342,105.917740 
z"/>
<path fill="#FDF3D9" opacity="1.000000" stroke="none" 
	d="
M200.676056,103.955681 
	C200.812332,104.164047 200.671722,104.467766 200.326843,104.922112 
	C200.214752,104.732178 200.306961,104.391609 200.676056,103.955681 
z"/>
<path fill="#FDF3D9" opacity="1.000000" stroke="none" 
	d="
M201.706650,102.935287 
	C201.760880,103.126495 201.550690,103.421303 201.099335,103.848930 
	C201.052887,103.667458 201.247559,103.353172 201.706650,102.935287 
z"/>
<path fill="#FDF3D9" opacity="1.000000" stroke="none" 
	d="
M202.706253,100.956650 
	C202.876801,101.176537 202.728470,101.463806 202.335510,101.874847 
	C202.242920,101.701210 202.341736,101.376358 202.706253,100.956650 
z"/>
<path fill="#FDF3D9" opacity="1.000000" stroke="none" 
	d="
M403.325592,251.046219 
	C403.189117,250.839691 403.327728,250.536484 403.669861,250.083130 
	C403.782501,250.271835 403.691589,250.610672 403.325592,251.046219 
z"/>
<path fill="#FDF3D9" opacity="1.000000" stroke="none" 
	d="
M398.298920,256.056305 
	C398.241150,255.856903 398.450409,255.564438 398.904846,255.149689 
	C398.955353,255.339355 398.760651,255.651306 398.298920,256.056305 
z"/>
<path fill="#FDF3D9" opacity="1.000000" stroke="none" 
	d="
M221.952896,255.292419 
	C222.144913,255.240494 222.430908,255.453583 222.846161,255.904892 
	C222.665924,255.947876 222.356384,255.752655 221.952896,255.292419 
z"/>
<path fill="#FDF3D9" opacity="1.000000" stroke="none" 
	d="
M399.297485,255.055969 
	C399.239899,254.856308 399.449829,254.564240 399.904968,254.149811 
	C399.955109,254.339478 399.760040,254.651505 399.297485,255.055969 
z"/>
<path fill="#FDF3D9" opacity="1.000000" stroke="none" 
	d="
M220.952148,254.290863 
	C221.144577,254.238907 221.430786,254.452530 221.846252,254.904785 
	C221.665649,254.947739 221.355804,254.752075 220.952148,254.290863 
z"/>
<path fill="#FDF3D9" opacity="1.000000" stroke="none" 
	d="
M400.297211,254.055878 
	C400.240234,253.857071 400.450684,253.565781 400.905609,253.151093 
	C400.954926,253.339584 400.759796,253.651474 400.297211,254.055878 
z"/>
<path fill="#FDF3D9" opacity="1.000000" stroke="none" 
	d="
M219.950989,253.292053 
	C220.146088,253.238037 220.433807,253.450409 220.848450,253.903290 
	C220.664795,253.948685 220.354218,253.753571 219.950989,253.292053 
z"/>
<path fill="#FDF3D9" opacity="1.000000" stroke="none" 
	d="
M401.294220,253.054871 
	C401.239655,252.858444 401.451111,252.568985 401.905731,252.156311 
	C401.952667,252.342697 401.756470,252.652267 401.294220,253.054871 
z"/>
<path fill="#FDF3D9" opacity="1.000000" stroke="none" 
	d="
M218.948395,252.293243 
	C219.142700,252.238846 219.432114,252.450302 219.849319,252.902710 
	C219.665924,252.948807 219.354721,252.753952 218.948395,252.293243 
z"/>
<path fill="#FDF3D9" opacity="1.000000" stroke="none" 
	d="
M402.293610,252.049469 
	C402.244476,251.861465 402.459625,251.574692 402.911194,251.153214 
	C402.951050,251.329239 402.754486,251.639969 402.293610,252.049469 
z"/>
<path fill="#FDF3D9" opacity="1.000000" stroke="none" 
	d="
M218.085846,251.236450 
	C218.439621,251.116089 218.659012,251.356171 218.875320,251.908447 
	C218.650452,251.934921 218.343521,251.727005 218.085846,251.236450 
z"/>
<path fill="#FDF3D9" opacity="1.000000" stroke="none" 
	d="
M222.953476,256.292725 
	C223.144852,256.241730 223.430481,256.456360 223.847397,256.908752 
	C223.668365,256.950439 223.358063,256.754395 222.953476,256.292725 
z"/>
<path fill="#FDF3D9" opacity="1.000000" stroke="none" 
	d="
M399.042908,76.710602 
	C398.850739,76.762428 398.566620,76.548721 398.152649,76.098259 
	C398.332153,76.056023 398.641571,76.250542 399.042908,76.710602 
z"/>
<path fill="#FDF3D9" opacity="1.000000" stroke="none" 
	d="
M400.042664,77.710358 
	C399.850494,77.762520 399.566254,77.549095 399.151550,77.099327 
	C399.330963,77.056915 399.640808,77.250847 400.042664,77.710358 
z"/>
<path fill="#FDF3D9" opacity="1.000000" stroke="none" 
	d="
M220.706909,77.972664 
	C220.757492,78.164764 220.543076,78.442062 220.096069,78.849251 
	C220.056290,78.672050 220.249100,78.364952 220.706909,77.972664 
z"/>
<path fill="#FDF3D9" opacity="1.000000" stroke="none" 
	d="
M401.043945,78.712418 
	C400.851898,78.764259 400.567444,78.550117 400.152008,78.099518 
	C400.331177,78.057518 400.641357,78.251976 401.043945,78.712418 
z"/>
<path fill="#FDF3D9" opacity="1.000000" stroke="none" 
	d="
M219.708191,78.957535 
	C219.761322,79.151192 219.548477,79.435692 219.098450,79.849342 
	C219.054932,79.668449 219.248581,79.358414 219.708191,78.957535 
z"/>
<path fill="#FDF3D9" opacity="1.000000" stroke="none" 
	d="
M402.045929,79.710152 
	C401.849426,79.765373 401.562836,79.553200 401.149231,79.101440 
	C401.333435,79.055496 401.644653,79.249130 402.045929,79.710152 
z"/>
<path fill="#080808" opacity="1.000000" stroke="none" 
	d="
M292.333069,156.200073 
	C292.333008,160.976364 292.333008,165.282211 292.333008,169.573608 
	C288.839050,169.749100 285.579468,170.132370 282.337402,170.017868 
	C278.619904,169.886597 275.984894,165.987656 276.352570,161.680313 
	C276.717987,157.400208 279.485718,154.550735 283.282166,154.757401 
	C284.706207,154.834930 286.106720,155.345200 287.725830,155.704285 
	C287.725830,153.933105 287.725830,152.318481 287.725830,150.232498 
	C289.244263,150.136978 290.603699,150.051453 292.333130,149.942657 
	C292.333130,152.114395 292.333130,153.922012 292.333069,156.200073 
M284.440979,158.790634 
	C283.326141,160.133713 281.786560,161.339142 281.286682,162.881516 
	C281.057831,163.587555 282.731995,165.599838 283.805756,165.838593 
	C284.815887,166.063171 287.246521,164.592987 287.183655,164.113525 
	C286.948059,162.317291 285.947021,160.621429 284.440979,158.790634 
z"/>
<path fill="#110C08" opacity="1.000000" stroke="none" 
	d="
M238.798157,149.874969 
	C243.535355,150.464462 244.864609,153.556000 245.211761,157.278641 
	C245.600571,161.448120 246.139557,166.175659 242.016479,168.551315 
	C239.878754,169.783020 235.740295,169.884735 233.767593,168.583664 
	C229.360321,165.676834 229.723343,160.664627 230.674164,155.924026 
	C231.521667,151.698441 234.006042,149.576294 238.798157,149.874969 
M239.719788,164.836533 
	C240.033630,162.114563 240.694687,159.362030 240.459427,156.688370 
	C240.384384,155.835388 237.930725,155.191681 236.565414,154.452225 
	C236.033051,157.088104 235.077454,159.741043 235.182724,162.351196 
	C235.223175,163.354523 237.680328,164.260361 239.719788,164.836533 
z"/>
<path fill="#161009" opacity="1.000000" stroke="none" 
	d="
M217.246094,150.103455 
	C224.400665,149.541031 226.855896,151.231903 227.810608,157.379074 
	C228.877579,164.249039 226.516190,168.458710 220.048126,169.977020 
	C218.917099,169.944641 218.476685,169.921371 218.036285,169.898102 
	C217.597687,169.598450 217.159088,169.298782 216.276184,168.644196 
	C211.942001,163.599350 212.799133,158.397522 214.197891,153.137283 
	C214.197891,153.137283 214.086029,153.092880 214.390778,152.976990 
	C215.545700,151.941895 216.395889,151.022675 217.246094,150.103455 
M220.441559,165.505936 
	C223.174149,163.347412 224.383453,157.145432 222.145569,155.228638 
	C221.457016,154.638855 219.584442,155.431381 218.254044,155.590958 
	C218.687805,158.834381 219.121567,162.077805 220.441559,165.505936 
z"/>
<path fill="#1E1710" opacity="1.000000" stroke="none" 
	d="
M296.734558,156.935730 
	C300.209106,153.798264 303.646362,154.014435 306.981415,156.274094 
	C311.062958,159.039505 309.591766,163.497604 308.317261,166.417450 
	C307.454407,168.394180 303.221954,169.913696 300.530304,169.862595 
	C295.306366,169.763367 293.495819,163.441269 296.734558,156.935730 
z"/>
<path fill="#1A140E" opacity="1.000000" stroke="none" 
	d="
M414.882446,169.446136 
	C407.105133,170.790176 403.067444,167.915283 404.019196,161.581146 
	C404.357727,159.328094 406.165894,156.316208 408.073425,155.537567 
	C410.240601,154.652924 413.963409,155.026611 415.716919,156.448212 
	C417.258911,157.698380 417.470734,161.159851 417.414581,163.625229 
	C417.371826,165.504608 415.989777,167.353500 414.882446,169.446136 
z"/>
<path fill="#161009" opacity="1.000000" stroke="none" 
	d="
M333.906921,155.995178 
	C333.955841,155.548904 334.004761,155.102646 334.060364,154.079285 
	C334.015381,153.337936 333.963684,153.173660 333.911987,153.009369 
	C333.658234,152.273544 333.404510,151.537704 332.992859,150.343948 
	C334.665039,150.168304 336.173584,150.009857 338.084869,149.809097 
	C338.213501,151.860016 338.321259,153.578369 338.430115,155.313828 
	C348.121277,153.904373 349.338837,155.586014 348.715576,169.623032 
	C347.412201,169.779587 346.036957,169.944794 344.036285,170.185120 
	C344.036285,167.413055 344.365662,164.915344 343.911530,162.569321 
	C343.643463,161.184555 342.134613,160.039963 341.183807,158.787354 
	C340.217163,160.065262 338.711090,161.228134 338.408417,162.647614 
	C337.937286,164.857117 338.283875,167.240952 338.283875,169.966354 
	C336.804016,169.866257 335.545166,169.781097 334.186279,168.891876 
	C334.026459,164.056931 333.966675,160.026062 333.906921,155.995178 
z"/>
<path fill="#110C08" opacity="1.000000" stroke="none" 
	d="
M367.101929,166.756989 
	C367.056793,167.884048 367.052826,169.114975 366.962494,169.121338 
	C363.087830,169.394608 358.957489,170.418182 355.421936,169.397736 
	C353.464264,168.832703 351.583557,164.933167 351.279480,162.347183 
	C350.651855,157.010513 354.529816,154.152695 359.837860,154.933090 
	C362.001862,155.251236 364.251678,154.985672 367.102783,154.985672 
	C367.102783,158.789200 367.102783,162.539413 367.101929,166.756989 
M356.586060,160.095825 
	C356.979736,161.988083 357.264984,163.920044 357.922424,165.715744 
	C357.994049,165.911331 360.921509,165.696152 361.282562,165.014145 
	C361.959869,163.734680 362.406403,161.396896 361.697754,160.564987 
	C360.874725,159.598740 358.707153,159.777802 356.586060,160.095825 
z"/>
<path fill="#1A140E" opacity="1.000000" stroke="none" 
	d="
M372.201569,170.021103 
	C371.058655,165.178467 370.370819,160.346893 369.589905,154.861801 
	C373.868378,154.861801 377.348633,154.184525 380.337067,155.104691 
	C382.264557,155.698181 384.216797,158.427185 384.813477,160.572983 
	C385.580475,163.331314 385.000031,166.464325 385.000031,169.728226 
	C383.455658,169.728226 382.095673,169.728226 380.249054,169.728226 
	C380.249054,167.309021 380.569580,164.959488 380.134796,162.759201 
	C379.851532,161.325684 378.470123,160.109192 377.580627,158.795486 
	C376.748901,160.188477 375.584869,161.491714 375.177704,162.999359 
	C374.759613,164.547745 375.346954,166.359436 374.970978,167.930679 
	C374.770660,168.767853 373.463959,169.340271 372.201569,170.021103 
z"/>
<path fill="#161009" opacity="1.000000" stroke="none" 
	d="
M397.222443,154.919968 
	C399.180023,156.265518 400.776733,157.550781 402.373413,158.836060 
	C402.170471,159.363464 401.967560,159.890869 401.764618,160.418274 
	C399.934296,159.996567 398.120789,159.391327 396.267395,159.221573 
	C395.145050,159.118774 393.090698,159.481033 392.966248,159.998108 
	C392.579193,161.606018 392.652496,163.465805 393.128571,165.053604 
	C393.269806,165.524597 395.370483,165.683380 396.504303,165.516449 
	C398.172791,165.270813 399.779388,164.604599 402.048126,163.927917 
	C401.087982,169.031174 398.254730,170.262665 394.440643,170.122528 
	C390.007843,169.959686 387.805817,167.245865 387.409851,163.190735 
	C387.040039,159.402893 388.527435,156.273834 392.432129,155.043350 
	C393.792755,154.614563 395.378571,154.900284 397.222443,154.919968 
z"/>
<path fill="#161009" opacity="1.000000" stroke="none" 
	d="
M325.972595,170.223907 
	C324.912537,170.172607 323.852448,170.121323 322.182373,169.963028 
	C321.572388,169.856018 321.074158,169.831696 321.074158,169.831696 
	C320.686920,169.530869 320.299713,169.230026 319.539185,168.592133 
	C318.832825,168.008865 318.499725,167.762650 318.166626,167.516418 
	C318.166626,167.516434 318.150360,167.199677 318.009338,166.822723 
	C317.625641,166.175674 317.382996,165.905594 317.140350,165.635513 
	C317.104584,165.267914 317.068848,164.900314 316.995972,163.873962 
	C317.412811,161.189865 317.866791,159.164536 318.320801,157.139221 
	C319.095398,156.602478 319.870026,156.065750 321.225372,155.280487 
	C322.882782,154.850952 323.959442,154.669983 325.036102,154.488998 
	C325.753876,154.658218 326.471619,154.827438 327.727356,155.250580 
	C328.781158,155.765274 329.296997,156.026062 329.812866,156.286835 
	C329.812866,156.286835 329.894104,156.144791 329.937988,156.497467 
	C330.441589,157.814285 330.901337,158.778427 331.850861,160.769684 
	C329.218567,160.083084 327.578217,159.470963 325.890076,159.279053 
	C324.745911,159.148987 322.638275,159.376221 322.515594,159.847794 
	C322.088898,161.488678 322.072357,163.374832 322.495850,165.013718 
	C322.622772,165.504929 324.730560,165.780243 325.870300,165.644852 
	C327.604584,165.438828 329.286072,164.788483 330.989960,164.326843 
	C331.150085,164.703995 331.310181,165.081161 331.470276,165.458328 
	C330.686859,166.654480 329.903412,167.850632 329.119965,169.046768 
	C328.586975,169.290466 328.054016,169.534180 326.998993,169.901337 
	C326.308807,170.091156 326.140717,170.157532 325.972595,170.223907 
z"/>
<path fill="#110C08" opacity="1.000000" stroke="none" 
	d="
M210.138092,168.991989 
	C208.570557,169.427444 207.003021,169.862900 205.809036,170.194580 
	C204.879715,163.176498 204.034454,156.793259 203.143509,150.065063 
	C205.083694,150.152176 207.348557,150.253876 209.790710,151.152039 
	C210.024689,157.629669 210.081390,163.310837 210.138092,168.991989 
z"/>
<path fill="#161009" opacity="1.000000" stroke="none" 
	d="
M256.928467,156.986450 
	C257.848877,155.774185 258.613373,154.386383 259.729797,153.394821 
	C261.076996,152.198242 262.722687,151.337769 264.239197,150.331833 
	C264.532440,150.702286 264.825714,151.072739 265.118958,151.443192 
	C263.377350,154.785187 261.635712,158.127197 259.850769,161.837341 
	C259.807465,162.205475 259.848175,162.158905 259.848175,162.158905 
	C258.979248,163.663712 258.279266,165.305786 257.197205,166.637405 
	C255.939224,168.185532 254.346451,169.461609 252.898972,170.855743 
	C252.418167,170.433182 251.937378,170.010605 251.456573,169.588043 
	C253.205765,166.219833 254.954956,162.851639 256.335876,159.236969 
	C255.967606,158.990509 255.986465,159.067780 256.388184,159.134705 
	C256.878571,158.442596 256.967255,157.683563 257.011871,156.914886 
	C256.967804,156.905258 256.928467,156.986435 256.928467,156.986450 
z"/>
<path fill="#E9D9B2" opacity="1.000000" stroke="none" 
	d="
M329.519165,169.045288 
	C329.903412,167.850632 330.686859,166.654480 331.470276,165.458328 
	C331.310181,165.081161 331.150085,164.703995 330.989960,164.326843 
	C329.286072,164.788483 327.604584,165.438828 325.870300,165.644852 
	C324.730560,165.780243 322.622772,165.504929 322.495850,165.013718 
	C322.072357,163.374832 322.088898,161.488678 322.515594,159.847794 
	C322.638275,159.376221 324.745911,159.148987 325.890076,159.279053 
	C327.578217,159.470963 329.218567,160.083084 331.850861,160.769684 
	C330.901337,158.778427 330.441589,157.814285 329.867859,156.539597 
	C330.860748,156.157181 331.967651,156.085297 333.490723,156.004303 
	C333.966675,160.026062 334.026459,164.056931 333.996887,168.543152 
	C332.577850,169.013596 331.248108,169.028702 329.519165,169.045288 
z"/>
<path fill="#1E1710" opacity="1.000000" stroke="none" 
	d="
M256.005310,158.977890 
	C253.132065,159.450348 249.722076,161.307846 248.122742,157.176987 
	C247.566956,155.741486 247.822433,153.273239 248.760620,152.183121 
	C249.671539,151.124664 252.564362,150.362000 253.461212,151.015121 
	C254.999832,152.135590 255.662155,154.459366 256.810425,156.632187 
	C256.928467,156.986435 256.967804,156.905258 256.657898,157.000244 
	C256.227478,157.752747 256.106995,158.410263 255.986481,159.067780 
	C255.986465,159.067780 255.967606,158.990509 256.005310,158.977890 
z"/>
<path fill="#1A140E" opacity="1.000000" stroke="none" 
	d="
M259.776733,162.201797 
	C260.558228,162.032761 261.388916,161.668213 262.179016,161.741394 
	C264.131104,161.922195 266.827332,161.651840 267.794952,162.784302 
	C268.799469,163.959900 268.821350,166.989639 267.961914,168.421783 
	C267.276672,169.563660 264.159698,170.406113 262.958832,169.779114 
	C261.523529,169.029678 260.847778,166.627228 260.122772,164.828064 
	C259.884003,164.235458 260.515533,163.292114 260.298645,162.334015 
	C259.848175,162.158905 259.807465,162.205475 259.776733,162.201797 
z"/>
<path fill="#F3E1BD" opacity="1.000000" stroke="none" 
	d="
M210.568390,168.993942 
	C210.081390,163.310837 210.024689,157.629669 210.030975,151.486816 
	C211.229568,151.703369 212.365173,152.381622 213.849335,153.098572 
	C212.799133,158.397522 211.942001,163.599350 216.003601,168.612488 
	C214.449783,168.955765 212.724228,168.975830 210.568390,168.993942 
z"/>
<path fill="#E9D9B2" opacity="1.000000" stroke="none" 
	d="
M317.961914,157.168915 
	C317.866791,159.164536 317.412811,161.189865 316.901123,163.611877 
	C317.096588,161.738571 317.349792,159.468582 317.961914,157.168915 
z"/>
<path fill="#F3E1BD" opacity="1.000000" stroke="none" 
	d="
M216.855286,150.086685 
	C216.395889,151.022675 215.545700,151.941895 214.424805,153.026611 
	C214.924240,152.151382 215.694351,151.110657 216.855286,150.086685 
z"/>
<path fill="#E9D9B2" opacity="1.000000" stroke="none" 
	d="
M324.946930,154.245728 
	C323.959442,154.669983 322.882782,154.850952 321.395630,155.050110 
	C322.276001,154.712997 323.566864,154.357727 324.946930,154.245728 
z"/>
<path fill="#F3E1BD" opacity="1.000000" stroke="none" 
	d="
M218.067154,170.182343 
	C218.476685,169.921371 218.917099,169.944641 219.677429,170.055511 
	C219.645584,170.584473 219.293823,171.025848 218.942062,171.467239 
	C218.660721,171.133698 218.379364,170.800140 218.067154,170.182343 
z"/>
<path fill="#E9D9B2" opacity="1.000000" stroke="none" 
	d="
M326.004700,170.433899 
	C326.140717,170.157532 326.308807,170.091156 326.746063,170.058060 
	C326.865906,170.462265 326.716614,170.833206 326.567322,171.204147 
	C326.390472,171.017395 326.213654,170.830643 326.004700,170.433899 
z"/>
<path fill="#E9D9B2" opacity="1.000000" stroke="none" 
	d="
M329.699890,155.996323 
	C329.296997,156.026062 328.781158,155.765274 328.097595,155.265182 
	C328.482239,155.252518 329.034546,155.479172 329.699890,155.996323 
z"/>
<path fill="#E9D9B2" opacity="1.000000" stroke="none" 
	d="
M333.777344,153.104752 
	C333.963684,153.173660 334.015381,153.337936 333.989563,153.748535 
	C333.559326,153.805359 333.469574,153.540451 333.777344,153.104752 
z"/>
<path fill="#E9D9B2" opacity="1.000000" stroke="none" 
	d="
M321.114166,170.000961 
	C321.074158,169.831696 321.572388,169.856018 321.784912,169.986511 
	C321.716339,170.134735 321.435242,170.152481 321.114166,170.000961 
z"/>
<path fill="#E9D9B2" opacity="1.000000" stroke="none" 
	d="
M318.268311,167.822540 
	C318.499725,167.762650 318.832825,168.008865 319.287537,168.546158 
	C319.062805,168.601044 318.716431,168.364853 318.268311,167.822540 
z"/>
<path fill="#E9D9B2" opacity="1.000000" stroke="none" 
	d="
M317.172302,165.908020 
	C317.382996,165.905594 317.625641,166.175674 317.881775,166.728500 
	C317.664886,166.734344 317.434570,166.457428 317.172302,165.908020 
z"/>
<path fill="#E9D9B2" opacity="1.000000" stroke="none" 
	d="
M284.836975,158.839294 
	C285.947021,160.621429 286.948059,162.317291 287.183655,164.113525 
	C287.246521,164.592987 284.815887,166.063171 283.805756,165.838593 
	C282.731995,165.599838 281.057831,163.587555 281.286682,162.881516 
	C281.786560,161.339142 283.326141,160.133713 284.836975,158.839294 
z"/>
<path fill="#E9D9B2" opacity="1.000000" stroke="none" 
	d="
M239.378052,165.023590 
	C237.680328,164.260361 235.223175,163.354523 235.182724,162.351196 
	C235.077454,159.741043 236.033051,157.088104 236.565414,154.452225 
	C237.930725,155.191681 240.384384,155.835388 240.459427,156.688370 
	C240.694687,159.362030 240.033630,162.114563 239.378052,165.023590 
z"/>
<path fill="#F3E1BD" opacity="1.000000" stroke="none" 
	d="
M219.998444,165.413574 
	C219.121567,162.077805 218.687805,158.834381 218.254028,155.590958 
	C219.584442,155.431381 221.457016,154.638855 222.145569,155.228638 
	C224.383453,157.145432 223.174149,163.347412 219.998444,165.413574 
z"/>
<path fill="#F3E1BD" opacity="1.000000" stroke="none" 
	d="
M356.854614,159.777802 
	C358.707153,159.777802 360.874725,159.598740 361.697754,160.564987 
	C362.406403,161.396896 361.959869,163.734680 361.282562,165.014145 
	C360.921509,165.696152 357.994049,165.911331 357.922424,165.715744 
	C357.264984,163.920044 356.979736,161.988083 356.854614,159.777802 
z"/>
<path fill="#FEE8B6" opacity="1.000000" stroke="none" 
	d="
M256.388184,159.134705 
	C256.106995,158.410263 256.227478,157.752747 256.701965,157.009857 
	C256.967255,157.683563 256.878571,158.442596 256.388184,159.134705 
z"/>
</svg>