<?xml version="1.0" encoding="UTF-8" standalone="no"?>
<svg
   version="1.1"
   id="Layer_1"
   x="0px"
   y="0px"
   width="273"
   viewBox="0 0 273 300"
   enable-background="new 0 0 632 395"
   xml:space="preserve"
   sodipodi:docname="2-removebg-preview.svg"
   inkscape:version="1.3.2 (091e20e, 2023-11-25, custom)"
   height="300"
   xmlns:inkscape="http://www.inkscape.org/namespaces/inkscape"
   xmlns:sodipodi="http://sodipodi.sourceforge.net/DTD/sodipodi-0.dtd"
   xmlns="http://www.w3.org/2000/svg"
   xmlns:svg="http://www.w3.org/2000/svg"><defs
   id="defs128" /><sodipodi:namedview
   id="namedview128"
   pagecolor="#505050"
   bordercolor="#ffffff"
   borderopacity="1"
   inkscape:showpageshadow="0"
   inkscape:pageopacity="0"
   inkscape:pagecheckerboard="1"
   inkscape:deskcolor="#d1d1d1"
   inkscape:zoom="1.4992454"
   inkscape:cx="338.17012"
   inkscape:cy="158.41303"
   inkscape:window-width="1920"
   inkscape:window-height="1057"
   inkscape:window-x="1912"
   inkscape:window-y="-8"
   inkscape:window-maximized="1"
   inkscape:current-layer="Layer_1" />

<path
   fill="#fee8b6"
   opacity="1"
   stroke="none"
   d="m 260.27231,164.14164 c -1.82331,13.71089 -4.3631,27.1891 -11.76816,39.24666 -4.51035,7.34414 -8.73392,14.86465 -13.26053,22.19842 -1.68414,2.72856 -3.86432,5.15093 -6.17508,8.17571 -0.49539,0.766 -0.634,1.06921 -0.77261,1.37243 0,0 -0.0179,-0.11407 -0.19681,0.0155 -0.39407,0.4163 -0.60922,0.70307 -0.82437,0.98985 0,0 -0.001,-0.12084 -0.18393,0.005 -0.39429,0.41552 -0.60574,0.70498 -0.8172,0.99446 0,0 -0.002,-0.12418 -0.18463,0.001 -0.39289,0.41667 -0.60334,0.70796 -0.81379,0.99927 0,0 -0.003,-0.12378 -0.1867,0 -0.39325,0.41586 -0.60318,0.70793 -0.81311,1.00001 0,0 -0.004,-0.12366 -0.18695,-4e-5 -0.39261,0.41609 -0.60187,0.70855 -0.81113,1.001 0,0 -0.006,-0.12451 -0.18588,0.002 -0.39377,0.4154 -0.60736,0.70434 -0.82093,0.99325 0,0 0.008,-0.11258 -0.17916,-0.0295 -0.4321,0.30829 -0.6771,0.5336 -0.92212,0.75888 0,0 -0.3584,0.14594 -0.79624,0.2768 -0.66058,0.41888 -0.88336,0.70691 -1.10614,0.9949 0,0 -6e-5,-0.12433 -0.18152,0.002 -0.39092,0.41797 -0.6004,0.70941 -0.80987,1.00088 0,0 -0.004,-0.1242 -0.18561,5.8e-4 -0.39383,0.41461 -0.60571,0.70447 -0.8176,0.99432 0,0 0.0137,-0.0884 -0.3074,-0.10607 -1.10232,0.68466 -1.88351,1.38705 -2.66467,2.08944 0,0 -0.0142,-0.0991 -0.20243,0.0287 -0.40093,0.41516 -0.61364,0.70248 -0.82638,0.98981 3e-5,3e-5 -0.002,-0.12256 -0.18362,0.004 -0.39316,0.41577 -0.60477,0.7052 -0.81638,0.99466 0,0 0.007,-0.11185 -0.17908,-0.0282 -0.42938,0.30823 -0.67291,0.53284 -0.91647,0.75745 0,0 -0.37161,0.14572 -0.80887,0.28204 -0.65823,0.41962 -0.87924,0.70291 -1.10025,0.98621 0,0 0.007,-0.0946 -0.31375,-0.10086 -1.10721,0.70581 -1.89337,1.41793 -2.67951,2.13006 0.0221,0.33387 -0.10986,0.58777 -0.86218,0.8913 -0.72168,0.35638 -0.9769,0.58319 -1.23211,0.80997 0,0 -0.36713,0.14572 -0.93329,0.14587 -1.36002,0.70224 -2.1539,1.40433 -2.94776,2.10638 -3e-5,0 -0.0137,-0.0954 -0.20459,0.03 -0.40173,0.41281 -0.61261,0.70023 -0.82345,0.98764 0,0 0.0134,-0.0881 -0.32779,-0.11273 -1.44257,0.6814 -2.54398,1.38742 -3.64536,2.09345 0,0 -0.012,-0.0759 -0.35861,-0.0869 -1.44485,0.689 -2.54309,1.38895 -3.64129,2.08887 0,3e-5 -0.0101,-0.0891 -0.19172,6.7e-4 -0.49093,0.22403 -0.72827,0.43811 -0.89364,0.73194 0,0 -0.38214,0.15631 -0.97855,0.15142 -1.70694,0.70523 -2.81744,1.41535 -3.92798,2.12546 0,0 -0.0183,-0.0771 -0.32928,-0.10199 -1.1073,0.34448 -1.90357,0.71384 -2.69986,1.08316 -6.03595,1.96338 -12.0719,3.92673 -18.96308,5.8935 -5.57791,0.36001 -10.30783,0.64752 -15.01565,1.14459 -0.74219,0.0784 -1.38428,1.1051 -2.07263,1.69336 -0.42585,0.0586 -0.85166,0.11712 -1.90824,-0.0713 -1.59771,-0.4155 -2.56628,-0.73868 -3.53146,-0.72898 -11.94238,0.11982 -23.81537,-0.14086 -35.35629,-3.9006 -2.61585,-0.8522 -5.537139,-0.76678 -8.317839,-1.11295 -4.86319,-1.74997 -9.72641,-3.4999 -14.923772,-5.8414 -0.92883,-0.78259 -1.52348,-0.97363 -2.11815,-1.16467 0,0 -0.40671,-0.0111 -0.75139,-0.2847 -0.64461,-0.4205 -0.94455,-0.56741 -1.24449,-0.71432 0,0 -0.40997,-0.0127 -0.74956,-0.28366 -0.59965,-0.47916 -0.89151,-0.62268 -1.21515,-0.7016 0,0 0.091,10e-4 0.0366,-0.31195 -1.05706,-0.7775 -2.05967,-1.24182 -3.0623,-1.70618 0,0 -0.41704,-0.0161 -0.76062,-0.2839 -0.60132,-0.47065 -0.88833,-0.61542 -1.20466,-0.70206 0,0 0.0865,4.3e-4 0.0286,-0.31055 -1.04469,-0.76318 -2.03148,-1.21542 -3.01825,-1.66766 0,0 0.0763,-0.0106 0.0188,-0.32825 -1.05441,-0.77911 -2.05125,-1.24051 -3.04809,-1.70193 0,0 -0.42531,-0.0208 -0.77248,-0.29029 -0.6056,-0.47711 -0.89602,-0.61969 -1.21841,-0.69717 0,0 0.11296,-0.01 -0.0136,-0.1929 -0.41283,-0.39759 -0.69907,-0.61188 -0.98531,-0.82617 0,0 0.0981,0.007 0.0409,-0.30512 -1.06743,-0.77222 -2.07767,-1.23239 -3.08789,-1.69253 -0.33566,0.0156 -0.58814,-0.12171 -0.92801,-0.87391 -0.45395,-0.68423 -0.7373,-0.90652 -1.02066,-1.12884 0,0 0.0948,0.005 0.0352,-0.30225 -1.04773,-0.75601 -2.03582,-1.20486 -3.0239,-1.65371 0,0 0.093,-0.0183 -0.0352,-0.21317 -0.42376,-0.40503 -0.71934,-0.61517 -1.01493,-0.82532 -0.33947,0.0154 -0.59539,-0.12329 -0.94431,-0.87924 -0.46379,-0.68234 -0.75102,-0.90158 -1.03825,-1.12082 0,0 -0.41733,-0.016 -0.76151,-0.28631 -0.60566,-0.47733 -0.89839,-0.6203 -1.22238,-0.69925 0,0 0.11345,-0.0102 -0.0163,-0.19107 -0.41533,-0.39545 -0.70096,-0.61008 -0.9866,-0.82468 0,0 0.11894,-0.003 -0.0117,-0.18172 -0.41661,-0.39183 -0.70261,-0.60492 -0.98859,-0.81802 0,0 0.11914,-0.003 -0.0114,-0.18221 -0.41674,-0.39265 -0.70295,-0.60627 -0.98918,-0.81988 0,0 0.12053,-0.002 -0.008,-0.18225 -0.41639,-0.39264 -0.70411,-0.60501 -0.99183,-0.81739 0,0 0.12105,-0.003 -0.008,-0.1835 -0.41835,-0.39186 -0.70776,-0.60331 -0.99717,-0.81479 0,2e-5 0.11381,0.002 0.0269,-0.17562 -0.22118,-0.49558 -0.44057,-0.73566 -0.74512,-0.89792 -14.25526,-15.64386 -24.24893,-33.6332 -29.70979,-54.10117 -0.33168,-1.24315 -0.29885,-2.58357 -0.42977,-4.74811 -0.50064,-5.61329 -1.17852,-10.34633 -1.48043,-15.10322 -0.80507,-12.68483 -1.65918,-25.3618 2.68452,-37.73694 0.89564,-2.55167 0.50116,-5.5562 0.70134,-8.35199 0.0298,-0.4195 0.0596,-0.83901 0.53213,-1.64619 1.14109,-2.73032 1.83948,-5.07293 2.53786,-7.41553 0,0 0.0305,-0.44303 0.32262,-0.86626 0.42161,-1.00603 0.5511,-1.58884 0.68059,-2.17164 0,0 0.009,-0.40613 0.28263,-0.74819 0.48012,-0.60976 0.62795,-0.90668 0.71706,-1.23283 0,0 0.0168,-0.40382 0.44063,-0.70122 0.80292,-1.636464 1.18199,-2.975524 1.56106,-4.314584 0,0 0.0109,-0.39202 0.28913,-0.7324 0.42126,-0.6521 0.56433,-0.96382 0.70741,-1.27552 0,0 0.008,-0.38318 0.28801,-0.71978 0.42404,-0.65001 0.56821,-0.96343 0.71237,-1.27684 0,0 0.009,-0.38786 0.28861,-0.72702 0.42343,-0.65327 0.56685,-0.96737 0.71028,-1.28148 0,0 0.004,-0.37985 0.28206,-0.70565 0.41833,-0.6295 0.55894,-0.93322 0.69954,-1.23695 0,0 0.0173,0.11117 0.20243,-0.0165 0.39533,-0.4225 0.60552,-0.7173 0.81571,-1.01212 0,0 0.0163,-0.41789 0.28609,-0.76297 0.47131,-0.6049 0.61964,-0.89217 0.71479,-1.2069 0.76337,-1.22226 1.52672,-2.44453 2.97257,-3.824 1.46548,-1.85009 2.24846,-3.54297 3.03143,-5.23584 -0.0159,-0.33075 0.11928,-0.57924 0.87015,-0.91621 0.68521,-0.463815 0.90594,-0.756899 1.12666,-1.049982 0,0 0.0136,-0.400444 0.28806,-0.736984 0.41292,-0.637993 0.55133,-0.939438 0.68976,-1.240883 0,0 0.0166,0.110748 0.2016,-0.01169 0.39633,-0.411324 0.60771,-0.700218 0.81909,-0.989113 0,0 0.004,0.121513 0.18181,-0.0085 0.39262,-0.415374 0.60728,-0.700737 0.82194,-0.986091 0,0 0.003,0.117538 0.18124,-0.01333 0.39193,-0.415604 0.60538,-0.700348 0.81884,-0.985092 0,0 -0.005,0.0965 0.30316,0.04028 0.75629,-1.048027 1.20431,-2.039833 1.65234,-3.031639 0,0 0.0147,0.09419 0.20749,-0.03091 0.40607,-0.411964 0.61936,-0.698822 0.83266,-0.985679 0,0 0.003,0.120872 0.18156,-0.0086 0.39395,-0.414406 0.60895,-0.699371 0.82395,-0.984329 0,0 0.003,0.117599 0.181,-0.01273 0.39122,-0.414833 0.60406,-0.699333 0.81691,-0.983841 0,0 0.003,0.114113 0.17898,-0.01661 0.38993,-0.408013 0.60434,-0.685311 0.81874,-0.962601 0,0 -0.003,0.07711 0.28551,0.02438 0.76047,-0.702667 1.23289,-1.352592 1.70532,-2.002518 9.80472,-11.237106 22.40171,-18.006344 35.76988,-24.270656 8.549692,-4.006371 17.203801,-6.822628 26.190281,-9.033493 3.75818,-0.92458 7.69772,-1.495945 11.56204,-1.536362 14.27558,-0.149296 28.65223,-0.984913 42.61344,2.972519 8.46924,2.40068 17.52658,4.025436 25.01291,8.291862 11.34967,6.468117 21.56216,14.931729 32.71914,22.871548 0.71384,0.52124 0.99359,0.665665 1.3006,0.75724 0,0 -0.1076,0.0074 0.0219,0.190201 0.41367,0.39653 0.69779,0.610237 0.98188,0.823944 0,0 -0.11591,0.0028 0.0156,0.181153 0.4158,0.391807 0.70004,0.605232 0.98425,0.818664 0,0 -0.11578,0.0029 0.0163,0.181473 0.41647,0.392692 0.70093,0.606834 0.98538,0.820969 0,0 -0.1178,0.0012 0.0111,0.181915 0.41544,0.392891 0.70203,0.605064 0.98859,0.81723 0,8e-6 -0.11786,0.0028 0.0105,0.183617 0.41602,0.39228 0.70374,0.603775 0.99143,0.815269 0,0 -0.11902,0.003 0.01,0.183632 0.41681,0.39241 0.70502,0.604225 0.99326,0.81604 0,0 -0.1203,0.0021 0.006,0.184898 0.41669,0.392212 0.70749,0.601647 0.99826,0.811097 0,0 -0.12152,0.0036 0.002,0.186721 0.41416,0.393563 0.70435,0.604035 0.99457,0.814499 0,0 -0.0868,-0.01368 -0.10373,0.307862 0.68424,1.102913 1.38547,1.884277 2.08667,2.665641 0,0 -0.0974,0.01386 0.0309,0.201912 0.41436,0.401329 0.7005,0.614602 0.98666,0.827881 0,-7e-6 -0.12085,0.0014 0.006,0.183075 0.41489,0.393074 0.70331,0.604523 0.9917,0.815964 0,8e-6 -0.10937,-0.007 -0.0249,0.18016 0.30887,0.431778 0.53327,0.676407 0.75769,0.921044 4.60837,8.062513 9.43576,16.010483 13.73606,24.234133 2.27267,4.346164 3.62744,9.172344 5.39239,14.602374 0.70505,2.89297 1.41437,4.96539 2.12369,7.0378 0,0 -0.0869,0.0119 -10e-4,0.19758 0.22092,0.49889 0.43915,0.73535 0.74048,0.89514 0.0548,0.4061 0.10959,0.81221 -0.0559,1.76857 0.19498,2.42893 0.61026,4.30759 1.02557,6.18624 0.39368,2.00972 0.78733,4.01942 1.15857,6.91136 -0.003,10.00136 0.0159,19.1205 0.035,28.23964 M 39.331449,137.08483 c 0,0 0.11186,0.0444 -0.58525,-0.033 -1.13561,-0.67825 -2.27121,-1.3565 -3.88736,-2.70429 -2.26486,-0.1017 -4.52973,-0.2034 -6.46991,-0.29052 0.89094,6.7282 1.7362,13.11144 2.66553,20.12952 1.19398,-0.33168 2.76152,-0.76714 5.18963,-1.19869 1.72556,-0.0201 3.45111,-0.0401 5.72182,0.003 0.4386,0.29967 0.8772,0.59934 1.37753,1.46749 0.28134,0.33354 0.5627,0.6671 0.84404,1.00064 0.35176,-0.44139 0.70352,-0.88277 1.79669,-1.4811 5.77744,-1.52743 8.13883,-5.7371 7.07186,-12.60707 -0.95471,-6.14717 -3.40995,-7.83804 -11.34613,-7.30915 -0.77013,1.04074 -1.54024,2.08146 -2.37845,3.02296 m 115.500851,2.61293 c -0.55233,-0.22664 -1.10464,-0.45329 -2.39749,-0.70915 -0.71777,-0.16922 -1.43551,-0.33844 -2.33163,-0.9942 -1.2909,0.35527 -2.58176,0.71054 -4.21314,1.52656 -0.77459,0.53673 -1.54922,1.07346 -3.04159,1.66959 -0.25324,2.26997 -0.50644,4.53996 -0.56992,7.3341 0.0357,0.3676 0.0715,0.7352 0.17118,1.6478 0.23028,0.27692 0.4606,0.55383 0.94607,1.01917 0,0 0.0163,0.31675 0.21967,0.92897 0.3464,0.2362 0.69278,0.47239 1.54245,0.80055 0.38723,0.30083 0.77444,0.60167 1.24169,1.24103 0.28107,-0.0178 0.56217,-0.0355 1.63822,-0.10019 1.06006,0.0513 2.12015,0.10257 3.24441,0.57385 0.17685,0.18675 0.35367,0.3735 0.53052,0.56026 0.14929,-0.37094 0.29859,-0.74189 0.95374,-1.42627 0.53296,-0.2437 1.06591,-0.48741 2.3973,-0.73407 1.32975,-0.0151 2.65949,-0.0302 4.36796,0.65213 1.25885,0.0852 2.5177,0.17032 3.99756,0.27041 0,-2.7254 -0.34659,-5.10923 0.12454,-7.31874 0.30267,-1.41948 1.80874,-2.58235 2.77539,-3.86024 0.9508,1.25259 2.45965,2.39718 2.72772,3.78195 0.45413,2.34602 0.12476,4.84374 0.12476,7.6158 2.00067,-0.24033 3.37591,-0.40553 4.67929,-0.56209 0.62326,-14.03702 -0.5943,-15.71866 -10.28547,-14.3092 -0.10885,-1.73546 -0.21661,-3.45381 -0.34524,-5.50473 -1.91129,0.20076 -3.41983,0.3592 -5.09201,0.53485 0.41165,1.19375 0.66537,1.92959 0.64984,2.85617 -0.17313,0.34033 -0.0834,0.60524 0.41095,1.45625 -0.0489,0.44628 -0.0978,0.89253 -0.9791,1.35704 -1.1069,0.0719 -2.2138,0.14377 -3.18045,0.13138 0,0 -0.0812,0.14204 -0.30722,-0.43898 m -68.837759,6.80333 c -0.23359,0.78297 -0.865122,1.72632 -0.62635,2.31892 0.72501,1.79917 1.40076,4.20162 2.83606,4.95105 1.20087,0.627 4.31784,-0.21545 5.00308,-1.35733 0.85944,-1.43214 0.83756,-4.46188 -0.16696,-5.63748 -0.96762,-1.13246 -3.66385,-0.86211 -5.61593,-1.04291 -0.7901,-0.0732 -1.62079,0.29137 -2.284952,-0.2722 1.741642,-3.34199 3.483282,-6.684 5.224892,-10.026 -0.29325,-0.37045 -0.58652,-0.7409 -0.87976,-1.11136 -1.51651,1.00594 -3.1622,1.86641 -4.509402,3.06299 -1.11643,0.99156 -1.88092,2.37936 -3.03742,2.88312 -1.03022,-1.81857 -1.69255,-4.14235 -3.23117,-5.26282 -0.89685,-0.65312 -3.78967,0.10954 -4.70059,1.168 -0.93819,1.09012 -1.19366,3.55837 -0.63788,4.99387 1.59934,4.13086 5.00932,2.27336 8.58142,2.30644 -1.7492,3.36821 -3.49839,6.7364 -5.24759,10.10461 0.48081,0.42256 0.9616,0.84514 1.4424,1.2677 1.44748,-1.39413 3.04025,-2.67021 4.29823,-4.21834 1.08207,-1.33161 1.78205,-2.97369 3.551922,-4.12826 m 31.584009,-6.7795 c 0,-1.80763 0,-3.61525 0,-5.78698 -1.72943,0.10879 -3.08887,0.19432 -4.6073,0.28984 0,2.08598 0,3.7006 0,5.47178 -1.61911,-0.35908 -3.01962,-0.86935 -4.44366,-0.94688 -3.79645,-0.20667 -6.56418,2.64281 -6.9296,6.92291 -0.36768,4.30735 2.26733,8.20629 5.98483,8.33756 3.24207,0.1145 6.50165,-0.26877 9.99561,-0.44426 0,-4.2914 0,-8.59725 1.2e-4,-13.84397 m -53.945771,-5.87844 c -4.38132,-0.27491 -6.86569,1.84724 -7.7132,6.07283 -0.95082,4.7406 -1.31384,9.7528 3.09343,12.65963 1.9727,1.30107 6.11116,1.19936 8.24889,-0.0324 4.12308,-2.37565 3.58409,-7.10319 3.19528,-11.27267 -0.34715,-3.72264 -1.67641,-6.81418 -6.8244,-7.42744 m 58.113861,7.39204 c -3.0054,6.19803 -1.19485,12.52013 4.02908,12.61935 2.69165,0.0511 6.92411,-1.46841 7.78696,-3.44514 1.27451,-2.91985 2.7457,-7.37795 -1.33584,-10.14336 -3.33506,-2.25966 -6.77231,-2.47583 -10.4802,0.96915 m 118.7023,11.97272 c 0.78626,-1.86246 2.16831,-3.71135 2.21106,-5.59073 0.0562,-2.46538 -0.15567,-5.92685 -1.69766,-7.17702 -1.75351,-1.4216 -5.47632,-1.79529 -7.6435,-0.91064 -1.90753,0.77864 -3.71569,3.79052 -4.05422,6.04358 -0.95176,6.33413 3.08593,9.20903 11.18432,7.63481 m -48.10074,-2.92632 c 0,-3.75023 0,-7.50044 0,-11.30397 -2.8511,0 -5.10092,0.26557 -7.26492,-0.0526 -5.30804,-0.7804 -9.18601,2.07742 -8.55838,7.41409 0.30408,2.58599 2.18478,6.48552 4.14246,7.05056 3.53555,1.02044 7.66589,-0.003 11.54055,-0.2764 0.0903,-0.006 0.0943,-1.23729 0.14029,-2.8317 m 5.55384,3.74254 c 0.80734,-0.69191 2.11404,-1.26433 2.31436,-2.1015 0.37597,-1.57124 -0.21137,-3.38294 0.20672,-4.93132 0.40717,-1.50765 1.5712,-2.81088 2.40293,-4.20387 0.88949,1.3137 2.2709,2.53019 2.55417,3.96371 0.43478,2.20029 0.11425,4.54982 0.11425,6.96903 1.84662,0 3.20661,0 4.75098,0 0,-3.26391 0.58044,-6.39692 -0.18655,-9.15525 -0.59668,-2.1458 -2.54892,-4.8748 -4.47641,-5.46829 -2.98844,-0.92017 -6.46869,-0.24289 -10.74717,-0.24289 0.78092,5.48509 1.46875,10.31667 3.06672,15.17038 m 24.20492,-15.1725 c -1.48297,0.0406 -3.06879,-0.24512 -4.42941,0.18367 -3.90469,1.23048 -5.39209,4.35954 -5.02228,8.14738 0.39597,4.05513 2.59799,6.76896 7.03079,6.9318 3.81409,0.14013 6.64734,-1.09136 7.60749,-6.19461 -2.26874,0.67668 -3.87534,1.34289 -5.54383,1.58853 -1.13382,0.16693 -3.23449,0.008 -3.37573,-0.46285 -0.47607,-1.5878 -0.54938,-3.44758 -0.16232,-5.05549 0.12445,-0.51708 2.1788,-0.87934 3.30115,-0.77654 1.85339,0.16976 3.6669,0.775 5.49722,1.1967 0.20294,-0.5274 0.40585,-1.05481 0.60879,-1.58221 -1.59668,-1.28528 -3.19339,-2.57054 -5.51187,-3.97638 z"
   id="path2"
   inkscape:transform-center-x="-8.3375277"
   inkscape:transform-center-y="1.3340045" />
<path
   fill="#fdf3d9"
   opacity="1"
   stroke="none"
   d="m 14.793927,115.0908 c 0.152252,2.60934 0.546737,5.61387 -0.348908,8.16554 -4.343704,12.37514 -3.489593,25.05211 -2.684524,37.73694 0.30191,4.7569 0.979797,9.48993 1.470703,14.68655 -1.009857,-4.32728 -2.603089,-9.07448 -2.866989,-13.89447 -0.4700018,-8.58433 -0.6748048,-17.25715 0.03075,-25.80871 0.574524,-6.96369 2.641419,-13.80423 4.398972,-20.88585 z"
   id="path3" />
<path
   fill="#fdf3d9"
   opacity="1"
   stroke="none"
   d="m 97.283141,269.38169 c 2.60833,-0.0109 5.529629,-0.0963 8.145469,0.75592 11.54093,3.75974 23.41391,4.02042 35.3563,3.90061 0.96518,-0.01 1.93374,0.31347 3.20971,0.76861 -4.83224,0.57669 -10.09237,1.69867 -15.09011,0.98435 -10.55573,-1.50867 -20.97419,-3.97751 -31.621369,-6.40949 z"
   id="path4" />
<path
   fill="#fdf3d9"
   opacity="1"
   stroke="none"
   d="m 260.66568,163.92783 c -0.41251,-8.90533 -0.43165,-18.02447 -0.4235,-27.6235 0.35651,1.35142 0.9559,3.181 0.96762,5.01434 0.0477,7.46448 -0.0847,14.93013 -0.54412,22.60916 z"
   id="path5" />
<path
   fill="#fdf3d9"
   opacity="1"
   stroke="none"
   d="m 146.66705,274.91071 c 0.24591,-0.66046 0.888,-1.68719 1.63019,-1.76556 4.70782,-0.49707 9.43774,-0.78458 14.61123,-1.12854 -4.96576,0.99716 -10.38238,1.98172 -16.24142,2.8941 z"
   id="path6" />
<path
   fill="#fdf3d9"
   opacity="1"
   stroke="none"
   d="m 17.873745,106.00344 c -0.355774,2.18179 -1.054168,4.5244 -2.117858,6.94867 0.34822,-2.20817 1.061737,-4.49801 2.117858,-6.94867 z"
   id="path7" />
<path
   fill="#fdf3d9"
   opacity="1"
   stroke="none"
   d="m 257.30801,119.54856 c -0.64758,-1.67785 -1.3569,-3.75027 -2.05118,-6.25616 0.67319,1.66491 1.33133,3.76327 2.05118,6.25616 z"
   id="path8" />
<path
   fill="#fdf3d9"
   opacity="1"
   stroke="none"
   d="m 259.15426,128.58439 c -0.49084,-1.4724 -0.90613,-3.35106 -1.07342,-5.47208 0.54834,1.52703 0.84866,3.29642 1.07342,5.47208 z"
   id="path9" />
<path
   fill="#fdf3d9"
   opacity="1"
   stroke="none"
   d="m 33.898922,75.948906 c -0.460525,1.53788 -1.243499,3.23076 -2.40364,4.96971 0.442291,-1.5742 1.261749,-3.19447 2.40364,-4.96971 z"
   id="path10" />

<path
   fill="#fdf3d9"
   opacity="1"
   stroke="none"
   d="m 191.64288,262.05979 c 0.75232,-0.64331 1.85055,-1.34326 3.33337,-2.02627 -0.73947,0.66784 -1.86349,1.31875 -3.33337,2.02627 z"
   id="path12" />
<path
   fill="#fdf3d9"
   opacity="1"
   stroke="none"
   d="m 21.892148,95.962526 c -0.05028,1.18444 -0.429352,2.5235 -1.155167,3.97316 0.0443,-1.19912 0.435333,-2.50882 1.155167,-3.97316 z"
   id="path13" />
<path
   fill="#fdf3d9"
   opacity="1"
   stroke="none"
   d="m 195.64443,260.05982 c 0.75385,-0.65146 1.85526,-1.35748 3.34067,-2.02658 -0.7417,0.68195 -1.8674,1.32697 -3.34067,2.02658 z"
   id="path14" />
<path
   fill="#fdf3d9"
   opacity="1"
   stroke="none"
   d="m 185.65441,265.06538 c 0.76123,-0.6496 1.87174,-1.35971 3.37238,-2.05756 -0.74765,0.67389 -1.88535,1.33545 -3.37238,2.05756 z"
   id="path15" />
<path
   fill="#fdf3d9"
   opacity="1"
   stroke="none"
   d="m 54.25137,245.36588 c 0.860733,0.14191 1.848816,0.59076 2.889999,1.39377 -0.885482,-0.12613 -1.824066,-0.60647 -2.889999,-1.39377 z"
   id="path16" />
<path
   fill="#fdf3d9"
   opacity="1"
   stroke="none"
   d="m 73.215298,258.32746 c 0.869888,0.15308 1.872498,0.6174 2.923508,1.44 -0.89801,-0.13736 -1.844406,-0.63302 -2.923508,-1.44 z"
   id="path17" />
<path
   fill="#fdf3d9"
   opacity="1"
   stroke="none"
   d="m 41.868817,65.994404 c -0.140824,0.862083 -0.588852,1.853889 -1.39296,2.895073 0.124542,-0.888863 0.605149,-1.827103 1.39296,-2.895073 z"
   id="path18" />
<path
   fill="#fdf3d9"
   opacity="1"
   stroke="none"
   d="m 59.198437,249.32847 c 0.873215,0.14932 1.883454,0.6095 2.943131,1.43027 -0.90242,-0.13272 -1.854264,-0.6261 -2.943131,-1.43027 z"
   id="path19" />
<path
   fill="#fdf3d9"
   opacity="1"
   stroke="none"
   d="m 233.31683,70.609302 c -0.6481,-0.451904 -1.34934,-1.233268 -2.02097,-2.37825 0.67569,0.440529 1.32178,1.244667 2.02097,2.37825 z"
   id="path20" />
<path
   fill="#fdf3d9"
   opacity="1"
   stroke="none"
   d="m 206.6022,253.08875 c 0.45737,-0.63836 1.24353,-1.35049 2.39743,-2.04788 -0.44443,0.66782 -1.25653,1.32095 -2.39743,2.04788 z"
   id="path21" />
<path
   fill="#fdf3d9"
   opacity="1"
   stroke="none"
   d="m 214.62951,247.06577 c 0.45181,-0.64929 1.233,-1.35168 2.37821,-2.02365 -0.44028,0.67713 -1.24454,1.32385 -2.37821,2.02365 z"
   id="path22" />
<path
   fill="#fdf3d9"
   opacity="1"
   stroke="none"
   d="m 200.63055,257.05927 c 0.46139,-0.64529 1.25528,-1.34738 2.41791,-2.04394 -0.44931,0.66604 -1.2674,1.3266 -2.41791,2.04394 z"
   id="path23" />
<path
   fill="#fdf3d9"
   opacity="1"
   stroke="none"
   d="m 68.25372,255.35969 c 0.860641,0.14456 1.847427,0.5968 2.886963,1.40292 -0.885102,-0.12915 -1.822968,-0.61221 -2.886963,-1.40292 z"
   id="path24" />
<path
   fill="#fdf3d9"
   opacity="1"
   stroke="none"
   d="m 65.229245,253.33192 c 0.865844,0.15133 1.862686,0.61273 2.911285,1.42993 -0.892258,-0.13611 -1.836273,-0.62796 -2.911285,-1.42993 z"
   id="path25" />
<path
   fill="#fdf3d9"
   opacity="1"
   stroke="none"
   d="m 47.862332,59.956051 c -0.126618,0.595154 -0.599045,1.245079 -1.39772,1.942405 0.133148,-0.597618 0.592529,-1.242622 1.39772,-1.942405 z"
   id="path26" />

<path
   fill="#fdf3d9"
   opacity="1"
   stroke="none"
   d="m 182.62976,266.05207 c 0.4425,-0.31433 1.23877,-0.68368 2.38507,-1.02118 -0.44376,0.34329 -1.23755,0.6547 -2.38507,1.02118 z"
   id="path28" />
<path
   fill="#fdf3d9"
   opacity="1"
   stroke="none"
   d="m 80.204785,262.32124 c 0.45874,-0.11161 1.05339,0.0794 1.829758,0.53497 -0.443482,0.0989 -1.068665,-0.0667 -1.829758,-0.53497 z"
   id="path29" />
<path
   fill="#fdf3d9"
   opacity="1"
   stroke="none"
   d="m 18.911618,102.94183 c 0.178451,0.44571 0.04897,1.02851 -0.295563,1.82632 -0.147491,-0.41972 -0.07993,-1.05447 0.295563,-1.82632 z"
   id="path30" />

<path
   fill="#fdf3d9"
   opacity="1"
   stroke="none"
   d="m 57.205288,247.28223 c 0.190827,-0.045 0.474183,0.17728 0.886567,0.64017 -0.178666,0.0361 -0.486344,-0.16836 -0.886567,-0.64017 z"
   id="path32" />

<path
   fill="#fdf3d9"
   opacity="1"
   stroke="none"
   d="m 212.53936,249.04493 c -0.0564,-0.19855 0.15522,-0.48798 0.60962,-0.90198 0.048,0.18735 -0.14682,0.49921 -0.60962,0.90198 z"
   id="path34" />
<path
   fill="#fdf3d9"
   opacity="1"
   stroke="none"
   d="m 213.53652,248.04163 c -0.0524,-0.19155 0.16028,-0.47888 0.61118,-0.89688 0.0435,0.17993 -0.15128,0.49051 -0.61118,0.89688 z"
   id="path35" />
<path
   fill="#fdf3d9"
   opacity="1"
   stroke="none"
   d="m 49.201291,241.30439 c 0.230178,-0.19061 0.522903,-0.0476 0.933502,0.3551 -0.180466,0.10199 -0.510071,0.008 -0.933502,-0.3551 z"
   id="path36" />
<path
   fill="#fdf3d9"
   opacity="1"
   stroke="none"
   d="m 221.45819,241.92121 c -0.0439,-0.28061 0.20105,-0.50592 0.68899,-0.80633 0.0286,0.23715 -0.1857,0.5494 -0.68899,0.80633 z"
   id="path37" />
<path
   fill="#fdf3d9"
   opacity="1"
   stroke="none"
   d="m 217.54052,245.04499 c -0.0564,-0.19934 0.15549,-0.4892 0.61145,-0.90253 0.0483,0.18836 -0.14743,0.50019 -0.61145,0.90253 z"
   id="path38" />
<path
   fill="#fdf3d9"
   opacity="1"
   stroke="none"
   d="m 51.193814,242.28358 c 0.184784,-0.0439 0.472015,0.17529 0.892914,0.63369 -0.174378,0.036 -0.482422,-0.16729 -0.892914,-0.63369 z"
   id="path39" />
<path
   fill="#fdf3d9"
   opacity="1"
   stroke="none"
   d="m 219.5346,243.04054 c -0.045,-0.19095 0.1778,-0.47898 0.6449,-0.89548 0.0372,0.18048 -0.16995,0.48944 -0.6449,0.89548 z"
   id="path40" />
<path
   fill="#fdf3d9"
   opacity="1"
   stroke="none"
   d="m 218.54245,244.04755 c -0.0575,-0.19842 0.15194,-0.48986 0.60501,-0.90521 0.0497,0.18817 -0.14417,0.50019 -0.60501,0.90521 z"
   id="path41" />
<path
   fill="#fdf3d9"
   opacity="1"
   stroke="none"
   d="m 53.179883,244.28361 c 0.189636,-0.053 0.485214,0.15713 0.913284,0.60937 -0.180802,0.046 -0.494065,-0.15011 -0.913284,-0.60937 z"
   id="path42" />
<path
   fill="#fdf3d9"
   opacity="1"
   stroke="none"
   d="m 222.53826,241.04432 c -0.0542,-0.19669 0.1594,-0.48563 0.61548,-0.90073 0.0457,0.18537 -0.151,0.49692 -0.61548,0.90073 z"
   id="path43" />
<path
   fill="#fdf3d9"
   opacity="1"
   stroke="none"
   d="m 211.4638,249.91969 c -0.0444,-0.27924 0.1991,-0.50385 0.68402,-0.80475 0.0289,0.23562 -0.18356,0.54751 -0.68402,0.80475 z"
   id="path44" />
<path
   fill="#fdf3d9"
   opacity="1"
   stroke="none"
   d="m 209.53305,251.03828 c -0.0453,-0.18827 0.17565,-0.47156 0.63436,-0.88721 0.0358,0.17584 -0.1661,0.48401 -0.63436,0.88721 z"
   id="path45" />
<path
   fill="#fdf3d9"
   opacity="1"
   stroke="none"
   d="m 62.200222,251.28196 c 0.194428,-0.0524 0.480668,0.16193 0.8947,0.61618 -0.182435,0.0435 -0.492661,-0.15301 -0.8947,-0.61618 z"
   id="path46" />
<path
   fill="#fdf3d9"
   opacity="1"
   stroke="none"
   d="m 63.201062,252.30183 c 0.228683,-0.18997 0.519104,-0.0474 0.92543,0.35479 -0.17865,0.10056 -0.505188,0.007 -0.92543,-0.35479 z"
   id="path47" />
<path
   fill="#fdf3d9"
   opacity="1"
   stroke="none"
   d="m 204.47332,254.91438 c -0.039,-0.27738 0.21625,-0.50419 0.71845,-0.81443 0.0232,0.2327 -0.2005,0.54886 -0.71845,0.81443 z"
   id="path48" />
<path
   fill="#fdf3d9"
   opacity="1"
   stroke="none"
   d="m 71.209073,257.29722 c 0.224533,-0.18036 0.51155,-0.0356 0.918823,0.35831 -0.175965,0.0969 -0.501496,0.003 -0.918823,-0.35831 z"
   id="path49" />
<path
   fill="#fdf3d9"
   opacity="1"
   stroke="none"
   d="m 199.53649,258.04133 c -0.0556,-0.19507 0.15528,-0.48248 0.60514,-0.89789 0.0464,0.18317 -0.14612,0.49439 -0.60514,0.89789 z"
   id="path50" />
<path
   fill="#fdf3d9"
   opacity="1"
   stroke="none"
   d="m 76.20242,260.30268 c 0.229492,-0.18945 0.521347,-0.0459 0.930328,0.35767 -0.179428,0.10052 -0.507797,0.006 -0.930328,-0.35767 z"
   id="path51" />
<path
   fill="#fdf3d9"
   opacity="1"
   stroke="none"
   d="m 78.178921,261.2884 c 0.194,-0.12192 0.493942,0.025 0.949555,0.37024 -0.17743,0.0984 -0.510529,-0.002 -0.949555,-0.37024 z"
   id="path52" />
<path
   fill="#fdf3d9"
   opacity="1"
   stroke="none"
   d="m 190.49066,262.89442 c -0.11365,-0.33924 0.12368,-0.55332 0.65948,-0.77759 0.0241,0.21432 -0.17816,0.51865 -0.65948,0.77759 z"
   id="path53" />
<path
   fill="#fdf3d9"
   opacity="1"
   stroke="none"
   d="m 223.28479,59.693485 c -0.21537,0.168877 -0.49512,0.02445 -0.89399,-0.359238 0.16983,-0.09135 0.48609,0.0037 0.89399,0.359238 z"
   id="path54" />



<path
   fill="#fdf3d9"
   opacity="1"
   stroke="none"
   d="m 35.952664,73.93227 c 0.0448,0.188537 -0.175934,0.481621 -0.643112,0.904926 -0.03844,-0.17997 0.169586,-0.490177 0.643112,-0.904926 z"
   id="path58" />
<path
   fill="#fdf3d9"
   opacity="1"
   stroke="none"
   d="m 36.921246,71.94556 c 0.136322,0.205742 -0.0021,0.507187 -0.342606,0.95839 -0.112106,-0.187737 -0.02212,-0.525216 0.342606,-0.95839 z"
   id="path59" />
<path
   fill="#fdf3d9"
   opacity="1"
   stroke="none"
   d="m 228.29211,64.701122 c -0.1965,0.05576 -0.48422,-0.155739 -0.89929,-0.606972 0.18445,-0.04659 0.49627,0.146569 0.89929,0.606972 z"
   id="path60" />
<path
   fill="#fdf3d9"
   opacity="1"
   stroke="none"
   d="m 42.95068,64.94144 c 0.05218,0.193512 -0.161102,0.48037 -0.614807,0.894181 -0.04382,-0.182305 0.152756,-0.49157 0.614807,-0.894181 z"
   id="path61" />
<path
   fill="#fdf3d9"
   opacity="1"
   stroke="none"
   d="m 229.29376,65.701038 c -0.19586,0.05519 -0.48407,-0.156624 -0.89997,-0.608543 0.18409,-0.04622 0.49582,0.147667 0.89997,0.608543 z"
   id="path62" />
<path
   fill="#fdf3d9"
   opacity="1"
   stroke="none"
   d="m 230.29821,66.696522 c -0.19897,0.05807 -0.48977,-0.151368 -0.9049,-0.603714 0.18811,-0.04987 0.50061,0.143158 0.9049,0.603714 z"
   id="path63" />
<path
   fill="#fdf3d9"
   opacity="1"
   stroke="none"
   d="m 231.29724,67.696888 c -0.20047,0.05791 -0.49067,-0.152565 -0.90369,-0.606903 0.18942,-0.04974 0.50168,0.144401 0.90369,0.606903 z"
   id="path64" />
<path
   fill="#fdf3d9"
   opacity="1"
   stroke="none"
   d="m 39.955014,68.948353 c 0.05205,0.192428 -0.161408,0.477172 -0.612091,0.891571 -0.04263,-0.17997 0.151977,-0.489609 0.612091,-0.891571 z"
   id="path65" />
<path
   fill="#fdf3d9"
   opacity="1"
   stroke="none"
   d="m 38.954709,69.947346 c 0.05107,0.192466 -0.16359,0.477829 -0.616974,0.89228 -0.04208,-0.180405 0.154571,-0.489899 0.616974,-0.89228 z"
   id="path66" />
<path
   fill="#fdf3d9"
   opacity="1"
   stroke="none"
   d="m 37.949551,70.941089 c 0.05576,0.196862 -0.155624,0.485756 -0.607788,0.901467 -0.04697,-0.185265 0.146835,-0.497353 0.607788,-0.901467 z"
   id="path67" />
<path
   fill="#fdf3d9"
   opacity="1"
   stroke="none"
   d="m 234.29302,71.702991 c -0.19171,0.05228 -0.47784,-0.160988 -0.89505,-0.611419 0.17948,-0.04282 0.49006,0.151527 0.89505,0.611419 z"
   id="path68" />
<path
   fill="#fdf3d9"
   opacity="1"
   stroke="none"
   d="m 43.955685,63.946995 c 0.051,0.193161 -0.164001,0.478126 -0.618393,0.890777 -0.04213,-0.181206 0.155152,-0.490089 0.618393,-0.890777 z"
   id="path69" />
<path
   fill="#fdf3d9"
   opacity="1"
   stroke="none"
   d="m 235.29638,72.698627 c -0.19995,0.05753 -0.48837,-0.153923 -0.9013,-0.607391 0.18792,-0.04855 0.50042,0.144943 0.9013,0.607391 z"
   id="path70" />
<path
   fill="#fdf3d9"
   opacity="1"
   stroke="none"
   d="m 258.15856,120.75332 c -0.35083,0.12273 -0.56906,-0.11374 -0.79138,-0.65645 0.22223,-0.0284 0.53156,0.17278 0.79138,0.65645 z"
   id="path71" />
<path
   fill="#fdf3d9"
   opacity="1"
   stroke="none"
   d="m 236.17373,73.779606 c -0.28055,0.04455 -0.50494,-0.200074 -0.80661,-0.686165 0.23609,-0.02865 0.54944,0.184158 0.80661,0.686165 z"
   id="path72" />
<path
   fill="#fdf3d9"
   opacity="1"
   stroke="none"
   d="m 19.952084,100.92777 c 0.178055,0.22209 0.03023,0.51902 -0.37384,0.94045 -0.09612,-0.17632 0.0053,-0.50636 0.37384,-0.94045 z"
   id="path73" />
<path
   fill="#fdf3d9"
   opacity="1"
   stroke="none"
   d="m 22.943448,93.912216 c 0.13095,0.19947 -0.01212,0.51119 -0.360993,0.98106 -0.108215,-0.18417 -0.01064,-0.5265 0.360993,-0.98106 z"
   id="path74" />
<path
   fill="#fdf3d9"
   opacity="1"
   stroke="none"
   d="m 23.941861,91.915246 c 0.131836,0.20153 -0.01233,0.51495 -0.363312,0.98781 -0.108795,-0.18568 -0.01074,-0.53081 0.363312,-0.98781 z"
   id="path75" />
<path
   fill="#fdf3d9"
   opacity="1"
   stroke="none"
   d="m 24.942761,89.909686 c 0.130554,0.19929 -0.01286,0.51339 -0.363342,0.98692 -0.108246,-0.18441 -0.0094,-0.52825 0.363342,-0.98692 z"
   id="path76" />
<path
   fill="#fdf3d9"
   opacity="1"
   stroke="none"
   d="m 25.921475,87.947626 c 0.136276,0.20837 -0.0043,0.51209 -0.349213,0.96643 -0.112091,-0.18993 -0.01988,-0.5305 0.349213,-0.96643 z"
   id="path77" />
<path
   fill="#fdf3d9"
   opacity="1"
   stroke="none"
   d="m 26.952069,86.927236 c 0.05423,0.19121 -0.15596,0.48601 -0.607315,0.91364 -0.04645,-0.18147 0.148224,-0.49576 0.607315,-0.91364 z"
   id="path78" />
<path
   fill="#fdf3d9"
   opacity="1"
   stroke="none"
   d="m 27.951672,84.948596 c 0.170548,0.21989 0.02222,0.50716 -0.370743,0.9182 -0.09259,-0.17364 0.0062,-0.49849 0.370743,-0.9182 z"
   id="path79" />
<path
   fill="#fdf3d9"
   opacity="1"
   stroke="none"
   d="m 228.57101,235.03817 c -0.13648,-0.20653 0.002,-0.50973 0.34427,-0.96309 0.11264,0.18871 0.0217,0.52754 -0.34427,0.96309 z"
   id="path80" />
<path
   fill="#fdf3d9"
   opacity="1"
   stroke="none"
   d="m 223.54434,240.04826 c -0.0578,-0.19941 0.15149,-0.49187 0.60592,-0.90662 0.0505,0.18967 -0.14419,0.50162 -0.60592,0.90662 z"
   id="path81" />
<path
   fill="#fdf3d9"
   opacity="1"
   stroke="none"
   d="m 47.198315,239.28437 c 0.192017,-0.0519 0.478012,0.16116 0.893265,0.61247 -0.180237,0.043 -0.489777,-0.15223 -0.893265,-0.61247 z"
   id="path82" />
<path
   fill="#fdf3d9"
   opacity="1"
   stroke="none"
   d="m 224.5429,239.04792 c -0.0576,-0.19966 0.15235,-0.49173 0.60749,-0.90616 0.0501,0.18967 -0.14493,0.5017 -0.60749,0.90616 z"
   id="path83" />
<path
   fill="#fdf3d9"
   opacity="1"
   stroke="none"
   d="m 46.197567,238.28281 c 0.192429,-0.052 0.478638,0.16167 0.894104,0.61393 -0.180603,0.043 -0.490448,-0.15271 -0.894104,-0.61393 z"
   id="path84" />
<path
   fill="#fdf3d9"
   opacity="1"
   stroke="none"
   d="m 225.54263,238.04783 c -0.057,-0.19881 0.15347,-0.4901 0.6084,-0.90479 0.0493,0.1885 -0.14582,0.50039 -0.6084,0.90479 z"
   id="path85" />
<path
   fill="#fdf3d9"
   opacity="1"
   stroke="none"
   d="m 45.196408,237.284 c 0.195099,-0.054 0.482818,0.15836 0.897461,0.61124 -0.183655,0.0454 -0.494232,-0.14972 -0.897461,-0.61124 z"
   id="path86" />
<path
   fill="#fdf3d9"
   opacity="1"
   stroke="none"
   d="m 226.53964,237.04682 c -0.0546,-0.19642 0.15689,-0.48588 0.61151,-0.89856 0.0469,0.18639 -0.14926,0.49596 -0.61151,0.89856 z"
   id="path87" />
<path
   fill="#fdf3d9"
   opacity="1"
   stroke="none"
   d="m 44.193814,236.28519 c 0.194305,-0.0544 0.483719,0.15706 0.900924,0.60947 -0.183395,0.0461 -0.494598,-0.14876 -0.900924,-0.60947 z"
   id="path88" />
<path
   fill="#fdf3d9"
   opacity="1"
   stroke="none"
   d="m 227.53903,236.04142 c -0.0491,-0.188 0.16601,-0.47478 0.61758,-0.89625 0.0399,0.17602 -0.15671,0.48675 -0.61758,0.89625 z"
   id="path89" />
<path
   fill="#fdf3d9"
   opacity="1"
   stroke="none"
   d="m 43.331265,235.2284 c 0.353775,-0.12036 0.573166,0.11972 0.789474,0.672 -0.224868,0.0265 -0.531799,-0.18144 -0.789474,-0.672 z"
   id="path90" />
<path
   fill="#fdf3d9"
   opacity="1"
   stroke="none"
   d="m 48.198895,240.28468 c 0.191376,-0.051 0.477005,0.16363 0.893921,0.61602 -0.179032,0.0417 -0.489334,-0.15435 -0.893921,-0.61602 z"
   id="path91" />
<path
   fill="#fdf3d9"
   opacity="1"
   stroke="none"
   d="m 224.28833,60.702549 c -0.19217,0.05183 -0.47629,-0.161881 -0.89026,-0.612343 0.1795,-0.04224 0.48892,0.152283 0.89026,0.612343 z"
   id="path92" />
<path
   fill="#fdf3d9"
   opacity="1"
   stroke="none"
   d="m 225.28808,61.702305 c -0.19217,0.05216 -0.47641,-0.161263 -0.89111,-0.611031 0.17941,-0.04241 0.48926,0.15152 0.89111,0.611031 z"
   id="path93" />
<path
   fill="#fdf3d9"
   opacity="1"
   stroke="none"
   d="m 45.952328,61.964611 c 0.05058,0.1921 -0.163833,0.469398 -0.61084,0.876587 -0.03978,-0.177201 0.153031,-0.484299 0.61084,-0.876587 z"
   id="path94" />
<path
   fill="#fdf3d9"
   opacity="1"
   stroke="none"
   d="m 226.28936,62.704365 c -0.19204,0.05184 -0.4765,-0.162301 -0.89193,-0.6129 0.17916,-0.042 0.48934,0.152458 0.89193,0.6129 z"
   id="path95" />
<path
   fill="#fdf3d9"
   opacity="1"
   stroke="none"
   d="m 44.95361,62.949482 c 0.05313,0.193657 -0.159714,0.478157 -0.609741,0.891807 -0.04352,-0.180893 0.150131,-0.490928 0.609741,-0.891807 z"
   id="path96" />
<path
   fill="#fdf3d9"
   opacity="1"
   stroke="none"
   d="m 227.29135,63.702099 c -0.19651,0.05522 -0.4831,-0.156952 -0.8967,-0.608712 0.1842,-0.04594 0.49542,0.14769 0.8967,0.608712 z"
   id="path97" />
<path
   fill="#080808"
   opacity="1"
   stroke="none"
   d="m 117.57849,140.19202 c -6e-5,4.7763 -6e-5,9.08214 -6e-5,13.37354 -3.49396,0.17549 -6.75354,0.55876 -9.99561,0.44426 -3.7175,-0.13127 -6.35251,-4.03021 -5.98483,-8.33756 0.36541,-4.2801 3.13315,-7.12957 6.92959,-6.92291 1.42404,0.0775 2.82456,0.5878 4.44367,0.94689 0,-1.77118 0,-3.38581 0,-5.47179 1.51843,-0.0955 2.87787,-0.18105 4.6073,-0.28984 0,2.17174 0,3.97935 -6e-5,6.25741 m -7.89209,2.59057 c -1.11484,1.34307 -2.65442,2.5485 -3.1543,4.09088 -0.22885,0.70604 1.44531,2.71832 2.51907,2.95707 1.01013,0.22458 3.44077,-1.2456 3.3779,-1.72506 -0.23559,-1.79624 -1.23663,-3.4921 -2.74267,-5.32289 z"
   id="path98" />
<path
   fill="#110c08"
   opacity="1"
   stroke="none"
   d="m 64.043576,133.86692 c 4.737198,0.58949 6.066452,3.68103 6.413604,7.40367 0.38881,4.16948 0.927796,8.89702 -3.195282,11.27268 -2.137725,1.2317 -6.276184,1.33342 -8.248886,0.0323 -4.407272,-2.90683 -4.04425,-7.91904 -3.093429,-12.65964 0.847503,-4.22559 3.331878,-6.34773 8.123993,-6.04906 m 0.921631,14.96156 c 0.313842,-2.72197 0.974899,-5.4745 0.739639,-8.14816 -0.07504,-0.85298 -2.528702,-1.49669 -3.894013,-2.23614 -0.532363,2.63588 -1.48796,5.28881 -1.38269,7.89897 0.04045,1.00332 2.497604,1.90916 4.537064,2.48533 z"
   id="path99" />
<path
   fill="#161009"
   opacity="1"
   stroke="none"
   d="m 42.491513,134.09541 c 7.154571,-0.56243 9.609802,1.12844 10.564514,7.27562 1.066971,6.86996 -1.294418,11.07963 -7.762482,12.59794 -1.131027,-0.0324 -1.571441,-0.0557 -2.011841,-0.0789 -0.438598,-0.29965 -0.877197,-0.59932 -1.760101,-1.2539 -4.334183,-5.04485 -3.477051,-10.24668 -2.078293,-15.50692 0,0 -0.111862,-0.0444 0.192887,-0.16029 1.154922,-1.03509 2.005111,-1.95431 2.855316,-2.87353 m 3.195465,15.40248 c 2.73259,-2.15853 3.941894,-8.36051 1.70401,-10.2773 -0.688553,-0.58978 -2.561127,0.20274 -3.891525,0.36232 0.433761,3.24342 0.867523,6.48685 2.187515,9.91498 z"
   id="path100" />


<path
   fill="#161009"
   opacity="1"
   stroke="none"
   d="m 159.15234,139.98713 c 0.0489,-0.44627 0.0978,-0.89253 0.15344,-1.91589 -0.045,-0.74135 -0.0967,-0.90563 -0.14838,-1.06992 -0.25375,-0.73582 -0.50747,-1.47166 -0.91912,-2.66542 1.67218,-0.17564 3.18072,-0.33409 5.09201,-0.53485 0.12863,2.05092 0.23639,3.76927 0.34524,5.50473 9.69116,-1.40946 10.90872,0.27219 10.28546,14.3092 -1.30337,0.15656 -2.67862,0.32177 -4.67929,0.56209 0,-2.77206 0.32938,-5.26977 -0.12475,-7.6158 -0.26807,-1.38476 -1.77692,-2.52936 -2.72773,-3.78196 -0.96664,1.2779 -2.47271,2.44078 -2.77539,3.86026 -0.47113,2.2095 -0.12454,4.59333 -0.12454,7.31874 -1.47986,-0.1001 -2.73871,-0.18526 -4.09759,-1.07448 -0.15982,-4.83495 -0.21961,-8.86582 -0.27936,-12.8967 z"
   id="path103" />
<path
   fill="#110c08"
   opacity="1"
   stroke="none"
   d="m 192.34735,150.74894 c -0.0451,1.12706 -0.0491,2.35799 -0.13944,2.36435 -3.87466,0.27327 -8.005,1.29684 -11.54056,0.2764 -1.95767,-0.56504 -3.83838,-4.46457 -4.14245,-7.05056 -0.62763,-5.33667 3.25033,-8.19448 8.55838,-7.41409 2.164,0.31815 4.41382,0.0526 7.26492,0.0526 0,3.80353 0,7.55374 -8.5e-4,11.77132 m -10.51587,-6.66116 c 0.39367,1.89225 0.67892,3.82422 1.33636,5.61992 0.0716,0.19558 2.99909,-0.0196 3.36014,-0.7016 0.67731,-1.27947 1.12384,-3.61725 0.41519,-4.44916 -0.82303,-0.96625 -2.9906,-0.78719 -5.11169,-0.46916 z"
   id="path104" />
<path
   fill="#1a140e"
   opacity="1"
   stroke="none"
   d="m 197.44699,154.01305 c -1.14292,-4.84263 -1.83075,-9.67421 -2.61167,-15.1593 4.27848,0 7.75873,-0.67727 10.74716,0.24289 1.92749,0.59349 3.87973,3.3225 4.47641,5.46829 0.767,2.75834 0.18656,5.89135 0.18656,9.15525 -1.54437,0 -2.90436,0 -4.75098,0 0,-2.41921 0.32053,-4.76874 -0.11426,-6.96903 -0.28326,-1.43351 -1.66467,-2.65001 -2.55417,-3.96371 -0.83172,1.39299 -1.99575,2.69623 -2.40292,4.20387 -0.41809,1.54839 0.16925,3.36008 -0.20672,4.93132 -0.20032,0.83717 -1.50702,1.40959 -2.76941,2.09042 z"
   id="path105" />
<path
   fill="#161009"
   opacity="1"
   stroke="none"
   d="m 222.46786,138.91192 c 1.95758,1.34555 3.55429,2.63081 5.15097,3.91609 -0.20294,0.52741 -0.40585,1.05481 -0.60879,1.58222 -1.83033,-0.42171 -3.64383,-1.02695 -5.49723,-1.19671 -1.12234,-0.10279 -3.17669,0.25946 -3.30114,0.77654 -0.38706,1.60791 -0.31376,3.4677 0.16232,5.0555 0.14123,0.47099 2.24191,0.62977 3.37573,0.46284 1.66849,-0.24564 3.27509,-0.91185 5.54382,-1.58853 -0.96014,5.10326 -3.79339,6.33475 -7.60748,6.19461 -4.4328,-0.16284 -6.63483,-2.87666 -7.03079,-6.93179 -0.36981,-3.78785 1.11758,-6.9169 5.02228,-8.14739 1.36062,-0.42879 2.94644,-0.14306 4.79031,-0.12338 z"
   id="path106" />
<path
   fill="#161009"
   opacity="1"
   stroke="none"
   d="m 151.21801,154.21586 c -1.06006,-0.0513 -2.12014,-0.10259 -3.79022,-0.26088 -0.60998,-0.10701 -1.10821,-0.13133 -1.10821,-0.13133 -0.38724,-0.30083 -0.77445,-0.60167 -1.53498,-1.23957 -0.70636,-0.58326 -1.03946,-0.82948 -1.37256,-1.07571 0,2e-5 -0.0163,-0.31674 -0.15728,-0.6937 -0.3837,-0.64704 -0.62635,-0.91712 -0.86899,-1.18721 -0.0358,-0.36759 -0.0715,-0.73519 -0.14438,-1.76155 0.41684,-2.68409 0.87082,-4.70942 1.32483,-6.73474 0.7746,-0.53674 1.54922,-1.07347 2.90457,-1.85873 1.65741,-0.42954 2.73407,-0.61051 3.81073,-0.79149 0.71777,0.16922 1.43552,0.33844 2.69125,0.76158 1.05381,0.5147 1.56964,0.77548 2.08551,1.03626 0,0 0.0812,-0.14205 0.12513,0.21063 0.5036,1.31682 0.96334,2.28096 1.91287,4.27222 -2.6323,-0.6866 -4.27265,-1.29873 -5.96079,-1.49064 -1.14416,-0.13006 -3.2518,0.0972 -3.37448,0.56875 -0.42669,1.64088 -0.44324,3.52703 -0.0197,5.16592 0.12692,0.49121 2.23471,0.76652 3.37445,0.63113 1.73428,-0.20602 3.41577,-0.85637 5.11966,-1.31801 0.16012,0.37716 0.32022,0.75432 0.48031,1.13149 -0.78341,1.19615 -1.56686,2.3923 -2.35031,3.58844 -0.53299,0.2437 -1.06595,0.48741 -2.12097,0.85457 -0.69019,0.18982 -0.85828,0.25619 -1.0264,0.32257 z"
   id="path107" />
<path
   fill="#110c08"
   opacity="1"
   stroke="none"
   d="m 35.383511,152.98394 c -1.567535,0.43546 -3.135071,0.87091 -4.329056,1.20259 -0.929321,-7.01808 -1.774582,-13.40132 -2.665527,-20.12952 1.940185,0.0871 4.205048,0.18882 6.647201,1.08698 0.233979,6.47763 0.29068,12.1588 0.347382,17.83995 z"
   id="path108" />
<path
   fill="#161009"
   opacity="1"
   stroke="none"
   d="m 82.173886,140.9784 c 0.92041,-1.21226 1.684906,-2.60007 2.80133,-3.59163 1.347195,-1.19658 2.992885,-2.05705 4.509395,-3.06299 0.29325,0.37046 0.58652,0.74091 0.87977,1.11136 -1.74161,3.342 -3.48325,6.68401 -5.268193,10.39415 -0.0433,0.36814 -0.0026,0.32157 -0.0026,0.32157 -0.868927,1.5048 -1.568909,3.14688 -2.65097,4.4785 -1.257981,1.54812 -2.850754,2.8242 -4.298233,4.21833 -0.480805,-0.42256 -0.961594,-0.84513 -1.442399,-1.2677 1.749192,-3.36821 3.498383,-6.7364 4.879303,-10.35107 -0.36827,-0.24646 -0.349411,-0.16919 0.05231,-0.10226 0.490387,-0.69211 0.579071,-1.45115 0.623687,-2.21982 -0.04407,-0.01 -0.0834,0.0716 -0.0834,0.0716 z"
   id="path109" />
<path
   fill="#e9d9b2"
   opacity="1"
   stroke="none"
   d="m 154.76458,153.03724 c 0.38425,-1.19466 1.1677,-2.39081 1.95111,-3.58696 -0.16009,-0.37717 -0.32019,-0.75433 -0.48031,-1.13149 -1.70389,0.46164 -3.38538,1.11199 -5.11966,1.31801 -1.13974,0.13539 -3.24753,-0.13992 -3.37445,-0.63113 -0.4235,-1.63889 -0.40695,-3.52504 0.0197,-5.16592 0.12268,-0.47158 2.23032,-0.69881 3.37448,-0.56875 1.68814,0.19191 3.32849,0.80404 5.96079,1.49064 -0.94953,-1.99126 -1.40927,-2.9554 -1.983,-4.23009 0.99289,-0.38242 2.09979,-0.4543 3.62286,-0.5353 0.47595,4.02176 0.53574,8.05263 0.50616,12.53885 -1.41903,0.47045 -2.74877,0.48555 -4.47772,0.50214 z"
   id="path110" />
<path
   fill="#1e1710"
   opacity="1"
   stroke="none"
   d="m 81.250729,142.96984 c -2.873245,0.47246 -6.283234,2.32996 -7.882568,-1.8009 -0.555786,-1.4355 -0.300309,-3.90375 0.637878,-4.99387 0.910919,-1.05845 3.803742,-1.82112 4.700592,-1.168 1.53862,1.12047 2.200943,3.44425 3.349213,5.61707 0.118042,0.35425 0.157379,0.27307 -0.152527,0.36806 -0.43042,0.7525 -0.550903,1.41001 -0.671417,2.06753 -1.6e-5,0 -0.01888,-0.0773 0.01883,-0.0899 z"
   id="path111" />
<path
   fill="#1a140e"
   opacity="1"
   stroke="none"
   d="m 85.022152,146.19375 c 0.781499,-0.16904 1.612179,-0.53359 2.402279,-0.4604 1.95209,0.1808 4.64832,-0.0896 5.61594,1.0429 1.00452,1.1756 1.0264,4.20534 0.16696,5.63748 -0.68524,1.14188 -3.80221,1.98433 -5.00308,1.35734 -1.4353,-0.74944 -2.11105,-3.15189 -2.83606,-4.95105 -0.238769,-0.59261 0.39276,-1.53595 0.17587,-2.49405 -0.450467,-0.17511 -0.491177,-0.12854 -0.521909,-0.13222 z"
   id="path112" />
<path
   fill="#f3e1bd"
   opacity="1"
   stroke="none"
   d="m 35.813809,152.98589 c -0.487,-5.6831 -0.543701,-11.36427 -0.537415,-17.50712 1.198593,0.21655 2.334198,0.8948 3.81836,1.61175 -1.050202,5.29895 -1.907334,10.50078 2.154266,15.51392 -1.553818,0.34328 -3.279373,0.36334 -5.435211,0.38145 z"
   id="path113" />
<path
   fill="#e9d9b2"
   opacity="1"
   stroke="none"
   d="m 143.20733,141.16087 c -0.0951,1.99562 -0.5491,4.02095 -1.06079,6.44296 0.19547,-1.87331 0.44867,-4.1433 1.06079,-6.44296 z"
   id="path114" />
<path
   fill="#f3e1bd"
   opacity="1"
   stroke="none"
   d="m 42.100705,134.07864 c -0.459397,0.93599 -1.309586,1.85521 -2.430481,2.93992 0.499435,-0.87523 1.269546,-1.91595 2.430481,-2.93992 z"
   id="path115" />
<path
   fill="#e9d9b2"
   opacity="1"
   stroke="none"
   d="m 150.19235,138.23768 c -0.98749,0.42425 -2.06415,0.60522 -3.5513,0.80438 0.88037,-0.33711 2.17123,-0.69238 3.5513,-0.80438 z"
   id="path116" />
<path
   fill="#f3e1bd"
   opacity="1"
   stroke="none"
   d="m 43.312573,154.17429 c 0.409531,-0.26097 0.849945,-0.2377 1.610275,-0.12683 -0.03184,0.52896 -0.383606,0.97034 -0.735367,1.41173 -0.281341,-0.33354 -0.562698,-0.6671 -0.874908,-1.2849 z"
   id="path117" />
<path
   fill="#e9d9b2"
   opacity="1"
   stroke="none"
   d="m 151.25012,154.42585 c 0.13601,-0.27637 0.3041,-0.34274 0.74136,-0.37584 0.11984,0.40421 -0.0294,0.77515 -0.17874,1.14609 -0.17685,-0.18675 -0.35367,-0.37351 -0.56262,-0.77025 z"
   id="path118" />
<path
   fill="#e9d9b2"
   opacity="1"
   stroke="none"
   d="m 154.94531,139.98827 c -0.4029,0.0297 -0.91873,-0.23104 -1.6023,-0.73114 0.38465,-0.0127 0.93695,0.21399 1.6023,0.73114 z"
   id="path119" />
<path
   fill="#e9d9b2"
   opacity="1"
   stroke="none"
   d="m 159.02276,137.0967 c 0.18634,0.0689 0.23804,0.23319 0.21222,0.64379 -0.43024,0.0568 -0.51999,-0.20809 -0.21222,-0.64379 z"
   id="path120" />
<path
   fill="#e9d9b2"
   opacity="1"
   stroke="none"
   d="m 146.35958,153.99291 c -0.04,-0.16926 0.45823,-0.14494 0.67075,-0.0144 -0.0686,0.14823 -0.34967,0.16597 -0.67075,0.0144 z"
   id="path121" />
<path
   fill="#e9d9b2"
   opacity="1"
   stroke="none"
   d="m 143.51373,151.81449 c 0.23141,-0.0599 0.56451,0.18633 1.01922,0.72362 -0.22473,0.0549 -0.5711,-0.18131 -1.01922,-0.72362 z"
   id="path122" />
<path
   fill="#e9d9b2"
   opacity="1"
   stroke="none"
   d="m 142.41772,149.89997 c 0.21069,-0.002 0.45334,0.26766 0.70947,0.82048 -0.21689,0.006 -0.4472,-0.27107 -0.70947,-0.82048 z"
   id="path123" />
<path
   fill="#e9d9b2"
   opacity="1"
   stroke="none"
   d="m 110.08239,142.83125 c 1.11005,1.78213 2.11109,3.47799 2.34668,5.27423 0.0629,0.47946 -2.36777,1.94964 -3.3779,1.72506 -1.07376,-0.23875 -2.74792,-2.25103 -2.51907,-2.95707 0.49988,-1.54238 2.03946,-2.74781 3.55029,-4.04222 z"
   id="path124" />
<path
   fill="#e9d9b2"
   opacity="1"
   stroke="none"
   d="m 64.623471,149.01554 c -1.697724,-0.76323 -4.154877,-1.66907 -4.195328,-2.67239 -0.10527,-2.61016 0.850327,-5.26309 1.38269,-7.89897 1.365311,0.73945 3.81897,1.38316 3.894013,2.23614 0.23526,2.67366 -0.425797,5.42619 -1.081375,8.33522 z"
   id="path125" />
<path
   fill="#f3e1bd"
   opacity="1"
   stroke="none"
   d="m 45.243863,149.40553 c -0.876877,-3.33577 -1.310639,-6.5792 -1.744416,-9.82262 1.330414,-0.15958 3.202988,-0.9521 3.891541,-0.36232 2.237884,1.91679 1.02858,8.11877 -2.147125,10.18494 z"
   id="path126" />
<path
   fill="#f3e1bd"
   opacity="1"
   stroke="none"
   d="m 182.10003,143.76975 c 1.85254,0 4.02011,-0.17906 4.84314,0.78719 0.70865,0.83191 0.26212,3.16969 -0.41519,4.44916 -0.36105,0.682 -3.28851,0.89718 -3.36014,0.7016 -0.65744,-1.7957 -0.94269,-3.72767 -1.06781,-5.93795 z"
   id="path127" /><path
   fill="#f3e1bd"
   opacity="1"
   stroke="none"
   d="m 117.71245,137.69362 c 6.42463,0 13.94177,-0.53616 16.79606,2.35709 2.4576,2.491 0.90903,9.49103 -1.43989,13.32216 -1.25211,2.04213 -11.40459,2.68645 -11.65299,2.10079 -2.28002,-5.37688 -3.26923,-11.16177 -3.70318,-17.78004 z"
   id="path127-9"
   style="stroke-width:3.22247"
   inkscape:transform-center-x="3.3769166"
   inkscape:transform-center-y="-8.2150673" /><path
   fill="#f3e1bd"
   opacity="1"
   stroke="none"
   d="m 229.26908,139.02309 c 7.43405,0 13.79778,-0.70291 17.10051,2.19034 2.84373,2.491 1.05186,9.49104 -1.66612,13.32218 -1.44887,2.04211 -13.19644,2.68643 -13.4839,2.10078 -2.63823,-5.3769 -1.44836,-10.99504 -1.95049,-17.6133 z"
   id="path127-8"
   style="stroke-width:3.46639"
   sodipodi:nodetypes="ccscc" />
<path
   fill="#0b0a06"
   opacity="1"
   stroke="none"
   d="m 240.5373,153.79656 c -1.00697,0.3978 -2.01394,0.79561 -3.15349,1.26139 -5.73386,0.1196 -8.53045,-2.58421 -8.45844,-7.98183 0.0646,-4.84406 3.25707,-8.08276 7.61852,-7.72879 4.40879,0.35781 6.86925,3.82973 6.23188,9.05105 -3.07482,0 -6.18179,0 -9.33523,0 0.66849,3.01478 1.87381,3.37541 4.19743,2.31889 1.41591,-0.6438 3.21983,-0.27717 4.784,0.0461 -0.6719,1.28475 -1.27826,2.15898 -1.88467,3.03319 m -3.48369,-10.44861 c -1.70752,-0.35423 -3.12442,-0.11629 -3.72172,2.21527 1.8119,0 3.47998,0 5.62212,0 -0.68173,-0.91308 -1.09407,-1.46537 -1.9004,-2.21527 z"
   id="path62-6"
   style="stroke-width:0.560674" /><path
   fill="#fee8b6"
   opacity="1"
   stroke="none"
   d="m 81.633603,143.12666 c -0.281189,-0.72445 -0.160706,-1.38196 0.313781,-2.12485 0.26529,0.6737 0.176606,1.43274 -0.313781,2.12485 z"
   id="path128" /><path
   fill="#0c0a06"
   opacity="1"
   stroke="none"
   d="m 118.90588,146.17995 c 0.16679,-7.5188 6.95617,-9.29454 11.13846,-7.23015 2.93508,1.44877 4.2047,4.17619 3.66689,8.24512 -3.25097,0 -6.54536,0 -9.87944,0 0.50667,2.70839 1.86251,3.47615 3.84413,2.66325 1.74505,-0.7159 3.60874,-1.12741 5.69264,-1.75549 -0.69363,4.06505 -3.23007,5.98051 -7.04416,5.90377 -4.35794,-0.0877 -6.76443,-2.54674 -7.41852,-7.8265 m 6.18984,-3.90311 c -0.48503,0.59781 -0.97006,1.19565 -1.63715,2.01789 2.23922,0 3.94774,0 5.82645,0 -0.70554,-2.1965 -2.08534,-2.43792 -4.1893,-2.01789 z"
   id="path61-3"
   style="stroke-width:0.579243" />
</svg>
