<svg version="1.1" id="Layer_1" xmlns="http://www.w3.org/2000/svg" xmlns:xlink="http://www.w3.org/1999/xlink" x="0px" y="0px"
	 width="100%" viewBox="0 0 632 395" enable-background="new 0 0 632 395" xml:space="preserve">
<path fill="#000000" opacity="1.000000" stroke="none" 
	d="
M412.000000,396.000000 
	C274.699951,396.000000 137.899902,396.000000 1.049926,396.000000 
	C1.049926,264.398651 1.049926,132.797302 1.049926,1.097968 
	C211.550064,1.097968 422.100189,1.097968 632.825195,1.097968 
	C632.825195,132.666473 632.825195,264.333221 632.825195,396.000000 
	C559.463928,396.000000 485.981964,396.000000 412.000000,396.000000 
M385.516693,331.089508 
	C391.278870,326.980835 397.548798,323.422729 402.710297,318.662689 
	C419.823669,302.880280 431.952332,283.789124 437.853302,261.156250 
	C442.193512,244.509491 442.631592,227.672729 439.145172,210.677856 
	C436.937256,199.915329 433.986847,189.549789 428.059784,180.228317 
	C422.780884,171.926193 418.007019,163.181335 411.805176,155.620300 
	C404.983673,147.303772 397.127991,139.742691 387.105042,134.951630 
	C381.178589,132.118713 375.535492,128.687637 369.584259,125.913094 
	C359.626099,121.270462 348.999481,119.211014 338.119904,117.831497 
	C323.570892,115.986679 309.327942,116.673950 295.277222,120.893623 
	C280.966888,125.191254 267.852814,131.620422 255.652527,140.484711 
	C240.505524,151.489975 228.939606,165.490646 221.315750,182.055222 
	C212.876328,200.391785 209.053513,219.969666 210.742569,240.666733 
	C212.359619,260.481720 218.685516,278.408936 228.729187,295.117523 
	C235.966400,307.157349 246.022263,317.132385 257.174164,325.430084 
	C276.953278,340.146912 299.897247,346.942505 324.349457,347.838226 
	C336.613617,348.287476 348.910828,346.471649 360.518494,342.087708 
	C368.799622,338.960083 376.804047,335.099884 385.516693,331.089508 
z"/>
<path fill="#7FD857" opacity="1.000000" stroke="none" 
	d="
M385.224335,331.328064 
	C376.804047,335.099884 368.799622,338.960083 360.518494,342.087708 
	C348.910828,346.471649 336.613617,348.287476 324.349457,347.838226 
	C299.897247,346.942505 276.953278,340.146912 257.174164,325.430084 
	C246.022263,317.132385 235.966400,307.157349 228.729187,295.117523 
	C218.685516,278.408936 212.359619,260.481720 210.742569,240.666733 
	C209.053513,219.969666 212.876328,200.391785 221.315750,182.055222 
	C228.939606,165.490646 240.505524,151.489975 255.652527,140.484711 
	C267.852814,131.620422 280.966888,125.191254 295.277222,120.893623 
	C309.327942,116.673950 323.570892,115.986679 338.119904,117.831497 
	C348.999481,119.211014 359.626099,121.270462 369.584259,125.913094 
	C375.535492,128.687637 381.178589,132.118713 387.105042,134.951630 
	C397.127991,139.742691 404.983673,147.303772 411.805176,155.620300 
	C418.007019,163.181335 422.780884,171.926193 428.059784,180.228317 
	C433.986847,189.549789 436.937256,199.915329 439.145172,210.677856 
	C442.631592,227.672729 442.193512,244.509491 437.853302,261.156250 
	C431.952332,283.789124 419.823669,302.880280 402.710297,318.662689 
	C397.548798,323.422729 391.278870,326.980835 385.224335,331.328064 
M325.682953,178.811584 
	C325.498749,178.827393 325.314545,178.843201 324.373840,178.542374 
	C315.791351,179.080307 307.173981,179.314011 298.641815,180.291321 
	C294.689423,180.744034 290.902985,182.645401 286.260925,183.970779 
	C285.470581,184.594254 284.680237,185.217712 283.248596,185.842224 
	C281.935028,186.296646 280.621429,186.751068 279.032074,187.300888 
	C282.198334,192.179611 285.079834,196.619507 288.029755,201.829697 
	C290.340332,206.870804 292.650940,211.911896 294.929626,217.660629 
	C295.598297,218.760178 296.266998,219.859741 296.794067,221.630905 
	C297.617249,224.482224 298.440430,227.333557 299.170471,230.685287 
	C299.191193,230.853699 299.211945,231.022095 299.273651,231.695236 
	C299.527161,232.120789 299.780670,232.546326 300.161774,233.786545 
	C302.112518,241.429047 304.063263,249.071548 306.286835,257.296265 
	C307.421021,259.801666 308.555237,262.307098 309.624115,265.528748 
	C310.929138,269.342621 312.234161,273.156494 313.647461,277.599213 
	C316.189056,280.976074 318.610199,284.456848 321.365173,287.649567 
	C321.979401,288.361420 324.648376,288.558838 324.879639,288.149750 
	C327.482117,283.546234 329.793091,278.777954 332.690857,273.753326 
	C334.444336,268.505188 336.197845,263.257080 338.474182,257.694885 
	C338.626099,257.559753 338.778015,257.424622 339.136932,257.245575 
	C339.136932,257.245575 339.155029,256.856812 339.361542,256.470276 
	C339.361542,256.470276 339.662567,256.151794 340.237488,256.014435 
	C341.608490,252.276627 342.979492,248.538818 344.539124,244.214462 
	C344.582550,243.806580 344.626007,243.398682 344.757568,242.496567 
	C344.745483,242.329651 344.733398,242.162750 344.962494,241.524704 
	C344.975342,239.644852 344.988220,237.764999 345.380280,235.379181 
	C345.882446,234.263412 346.384644,233.147644 347.015869,231.291290 
	C348.026825,227.982025 349.037781,224.672745 350.639984,220.970917 
	C352.861206,215.717224 355.082428,210.463547 357.707794,204.377777 
	C357.821167,203.774521 357.934570,203.171280 358.435547,202.068680 
	C359.146515,198.739914 359.857513,195.411163 360.925873,191.414520 
	C361.367279,188.701981 365.305420,185.040421 360.323029,183.578201 
	C353.117584,181.463577 345.568542,180.519897 337.402832,178.989822 
	C336.894043,179.019440 336.385254,179.049072 335.270020,178.982742 
	C333.944397,178.962311 332.618774,178.941895 330.548920,178.833191 
	C330.050598,178.857483 329.552307,178.881790 328.658356,178.675278 
	C328.084839,178.757324 327.511353,178.839386 327.001862,178.913681 
	C327.001862,178.913681 326.953644,178.870850 326.593201,178.834137 
	C326.593201,178.834137 326.233582,178.878265 325.682953,178.811584 
z"/>
<path fill="#E5BC95" opacity="1.000000" stroke="none" 
	d="
M350.048706,221.363464 
	C349.037781,224.672745 348.026825,227.982025 346.599792,231.637268 
	C345.408417,231.771072 344.578491,231.670120 343.869720,231.322342 
	C342.594299,230.696487 341.391449,229.922638 340.158295,229.210617 
	C340.124542,230.894196 339.856140,232.619156 340.143219,234.246124 
	C340.321075,235.254105 341.342560,236.113235 341.749786,237.281952 
	C338.147736,240.885208 335.036652,239.661453 332.123383,236.672974 
	C333.597717,234.268448 334.954620,232.185898 336.528259,230.017029 
	C336.616089,229.244644 336.487213,228.558563 336.066101,227.645447 
	C333.170074,227.299561 330.566345,227.180710 327.704468,226.891006 
	C326.701172,226.380707 325.955994,226.041260 325.091919,225.323242 
	C321.658752,225.047211 318.344574,225.149750 314.669373,225.132645 
	C313.550415,225.022766 312.792419,225.032516 312.187561,224.725708 
	C314.498993,222.681747 317.964905,221.841797 316.995270,217.596680 
	C317.473328,215.510941 317.746643,213.681061 318.310699,211.856995 
	C318.872925,211.595291 319.144379,211.327805 319.569885,211.106812 
	C319.723877,211.153336 319.997040,210.983322 320.285339,210.974762 
	C320.793365,210.491928 321.013092,210.017639 321.439209,209.342163 
	C321.694641,208.768219 321.743652,208.395493 321.883972,207.716766 
	C322.287659,206.631897 322.600098,205.853012 323.152100,204.946045 
	C324.488983,204.889008 325.586304,204.960037 326.811096,205.362946 
	C327.929016,206.552750 328.919434,207.410690 329.916504,208.537231 
	C329.480103,210.011749 328.601410,211.256393 328.704224,212.413849 
	C328.833313,213.867111 329.481445,216.238632 330.398407,216.502731 
	C336.877655,218.368942 343.483368,219.796173 350.048706,221.363464 
z"/>
<path fill="#CD9E77" opacity="1.000000" stroke="none" 
	d="
M313.539185,276.970367 
	C312.234161,273.156494 310.929138,269.342621 309.898010,265.056152 
	C311.148071,264.537598 312.299255,264.807312 313.065460,264.382599 
	C314.896454,263.367645 316.546082,262.025452 318.268921,260.815399 
	C316.916504,259.425079 315.597809,257.999146 314.190491,256.666840 
	C313.784210,256.282257 313.122955,256.166962 312.551208,255.916199 
	C313.910278,254.032883 315.093201,252.393616 316.598633,250.714813 
	C319.243042,249.378845 321.565002,248.082413 324.261353,246.690796 
	C327.355896,246.615768 330.076050,246.635925 333.025269,246.851913 
	C333.494995,247.366257 333.735626,247.684769 333.955322,248.322266 
	C333.937378,249.067734 333.940369,249.494232 333.621033,250.058441 
	C331.481781,251.035538 329.664856,251.874939 327.489380,252.759125 
	C320.527191,255.402252 323.202881,262.679840 319.773712,266.876526 
	C321.212433,267.698700 322.449860,268.405792 323.614502,269.523132 
	C323.801880,270.994415 324.062012,272.055450 324.195099,273.446625 
	C320.927490,278.727539 318.049774,279.600403 313.539185,276.970367 
z"/>
<path fill="#A8593B" opacity="1.000000" stroke="none" 
	d="
M350.344360,221.167191 
	C343.483368,219.796173 336.877655,218.368942 330.398407,216.502731 
	C329.481445,216.238632 328.833313,213.867111 328.704224,212.413849 
	C328.601410,211.256393 329.480103,210.011749 330.295898,208.444534 
	C335.105103,207.048126 339.541534,206.012985 343.985901,204.985748 
	C343.993896,204.993652 344.009369,205.005264 343.755676,205.227646 
	C340.191010,207.983139 336.880096,210.516251 333.084137,213.420441 
	C337.246948,216.249451 341.223938,216.894180 345.815063,215.717331 
	C349.677734,214.727203 349.645630,211.714188 350.509949,208.858521 
	C352.976562,207.640091 355.140137,206.424988 357.303680,205.209869 
	C355.082428,210.463547 352.861206,215.717224 350.344360,221.167191 
z"/>
<path fill="#BE784F" opacity="1.000000" stroke="none" 
	d="
M287.041290,183.890030 
	C290.902985,182.645401 294.689423,180.744034 298.641815,180.291321 
	C307.173981,179.314011 315.791351,179.080307 324.833466,178.929657 
	C325.438385,179.624435 325.669189,179.840591 325.993134,179.975525 
	C326.000763,179.985641 326.022949,179.996292 326.036743,180.283630 
	C327.386322,181.714798 328.722107,182.858597 329.697815,184.041992 
	C328.627014,183.975662 327.916229,183.869766 326.925476,183.603333 
	C320.443878,183.668839 314.242310,183.894897 307.709869,183.936035 
	C304.666718,182.681625 302.407288,182.557388 301.628174,186.259338 
	C299.190308,185.645203 297.156250,184.872955 295.067871,184.675446 
	C294.422638,184.614426 293.629364,186.118591 292.562225,186.887756 
	C290.494141,185.876266 288.767731,184.883148 287.041290,183.890030 
z"/>
<path fill="#BE784F" opacity="1.000000" stroke="none" 
	d="
M338.166077,179.076660 
	C345.568542,180.519897 353.117584,181.463577 360.323029,183.578201 
	C365.305420,185.040421 361.367279,188.701981 360.443726,191.715424 
	C358.776428,191.652573 357.591278,191.288834 356.112640,190.697571 
	C349.196198,189.262665 342.573303,188.055283 336.068756,186.552704 
	C337.408997,185.781342 338.625946,185.292175 339.853973,184.832458 
	C341.264771,184.304306 342.685303,183.802261 344.930176,182.988541 
	C341.900177,181.236206 340.033112,180.156433 338.166077,179.076660 
z"/>
<path fill="#B78A69" opacity="1.000000" stroke="none" 
	d="
M316.276154,250.754333 
	C315.093201,252.393616 313.910278,254.032883 312.551208,255.916199 
	C313.122955,256.166962 313.784210,256.282257 314.190491,256.666840 
	C315.597809,257.999146 316.916504,259.425079 318.268921,260.815399 
	C316.546082,262.025452 314.896454,263.367645 313.065460,264.382599 
	C312.299255,264.807312 311.148071,264.537598 309.930664,264.698059 
	C308.555237,262.307098 307.421021,259.801666 306.394714,256.815308 
	C306.018921,252.597626 305.535278,248.860870 305.416931,245.069550 
	C307.206329,244.624084 308.630402,244.233200 310.423157,243.893250 
	C311.513611,244.115448 312.235352,244.286697 313.109711,244.717743 
	C314.266907,246.903122 315.271515,248.828735 316.276154,250.754333 
z"/>
<path fill="#79221C" opacity="1.000000" stroke="none" 
	d="
M324.322144,273.116516 
	C324.062012,272.055450 323.801880,270.994415 323.872681,269.322662 
	C325.138519,267.819244 326.073364,266.926514 327.351318,265.928589 
	C328.800537,264.163330 330.119385,262.603516 330.960571,260.818604 
	C332.094269,258.412964 332.860107,255.834015 334.301392,251.926163 
	C336.050476,254.841064 337.000916,256.425018 337.951355,258.008942 
	C336.197845,263.257080 334.444336,268.505188 332.072845,273.991028 
	C329.077271,273.857971 326.699707,273.487244 324.322144,273.116516 
z"/>
<path fill="#A8593B" opacity="1.000000" stroke="none" 
	d="
M324.195099,273.446625 
	C326.699707,273.487244 329.077271,273.857971 331.818604,274.141296 
	C329.793091,278.777954 327.482117,283.546234 324.879639,288.149750 
	C324.648376,288.558838 321.979401,288.361420 321.365173,287.649567 
	C318.610199,284.456848 316.189056,280.976074 313.593323,277.284790 
	C318.049774,279.600403 320.927490,278.727539 324.195099,273.446625 
z"/>
<path fill="#BE784F" opacity="1.000000" stroke="none" 
	d="
M296.935669,220.959290 
	C296.266998,219.859741 295.598297,218.760178 294.958496,216.955368 
	C296.343079,213.932892 297.382477,211.734467 294.797638,209.386612 
	C294.154724,208.802643 293.868683,206.947388 294.307739,206.196060 
	C296.780609,201.964508 294.079956,200.373901 291.003815,198.611298 
	C291.688477,197.847244 292.286377,197.369690 293.231506,196.788666 
	C294.492065,196.645233 295.405396,196.605270 296.326477,196.810181 
	C297.773376,198.639069 299.212524,200.223068 300.744080,202.242218 
	C301.245239,206.021072 299.771729,209.943573 303.735352,212.416122 
	C303.710205,212.645798 303.625305,213.100220 303.248901,213.113647 
	C297.548218,213.524963 296.511780,214.874527 297.124451,220.717773 
	C297.119568,220.830048 296.935669,220.959290 296.935669,220.959290 
z"/>
<path fill="#CD9E77" opacity="1.000000" stroke="none" 
	d="
M357.505737,204.793823 
	C355.140137,206.424988 352.976562,207.640091 350.335754,208.556000 
	C348.908905,206.186661 347.959320,204.116531 347.424164,202.105606 
	C349.216461,201.564667 350.594330,200.964539 351.972229,200.364380 
	C351.112823,199.165039 350.265045,197.957138 349.391144,196.768478 
	C348.258942,195.228531 347.105865,193.703934 346.347839,192.208588 
	C348.494690,192.487747 350.255402,192.731033 352.338684,193.133270 
	C358.026489,194.311157 356.198425,199.507431 358.047943,202.568024 
	C357.934570,203.171280 357.821167,203.774521 357.505737,204.793823 
z"/>
<path fill="#730403" opacity="1.000000" stroke="none" 
	d="
M338.212769,257.851929 
	C337.000916,256.425018 336.050476,254.841064 334.301392,251.926163 
	C332.860107,255.834015 332.094269,258.412964 330.960571,260.818604 
	C330.119385,262.603516 328.800537,264.163330 327.116058,265.639954 
	C326.126465,263.487274 325.195740,261.452026 325.435822,259.565796 
	C325.734650,257.217651 326.999969,254.992538 327.847900,252.714325 
	C329.664856,251.874939 331.481781,251.035538 333.899048,250.258972 
	C336.527771,251.992966 341.268829,251.261703 339.662567,256.151794 
	C339.662567,256.151794 339.361542,256.470276 339.169342,256.697998 
	C338.977142,256.925690 338.929901,257.289520 338.929901,257.289520 
	C338.778015,257.424622 338.626099,257.559753 338.212769,257.851929 
z"/>
<path fill="#BE784F" opacity="1.000000" stroke="none" 
	d="
M333.976227,248.003281 
	C333.735626,247.684769 333.494995,247.366257 333.041473,246.491974 
	C331.759552,243.936600 330.690521,241.937012 329.659241,239.599930 
	C330.083374,238.480087 330.469727,237.697769 331.143402,236.937515 
	C331.622498,236.971375 331.814240,236.983154 332.005951,236.994934 
	C335.036652,239.661453 338.147736,240.885208 342.078827,237.242096 
	C343.429291,236.601349 344.215179,236.243240 345.001068,235.885147 
	C344.988220,237.764999 344.975342,239.644852 344.772827,241.873871 
	C344.493927,242.491119 344.522675,242.747040 344.669434,242.990799 
	C344.626007,243.398682 344.582550,243.806580 344.173157,244.578766 
	C340.530212,245.963150 337.253204,246.983231 333.976227,248.003281 
z"/>
<path fill="#730403" opacity="1.000000" stroke="none" 
	d="
M292.884277,196.892120 
	C292.286377,197.369690 291.688477,197.847244 290.672821,198.651917 
	C289.490479,199.672485 288.725891,200.365952 287.961304,201.059418 
	C285.079834,196.619507 282.198334,192.179611 279.032074,187.300888 
	C280.621429,186.751068 281.935028,186.296646 283.598206,186.166992 
	C285.229950,187.998581 286.505768,189.510864 287.795776,191.010895 
	C289.486084,192.976349 291.187592,194.932159 292.884277,196.892120 
z"/>
<path fill="#79221C" opacity="1.000000" stroke="none" 
	d="
M287.995544,201.444550 
	C288.725891,200.365952 289.490479,199.672485 290.586060,198.938416 
	C294.079956,200.373901 296.780609,201.964508 294.307739,206.196060 
	C293.868683,206.947388 294.154724,208.802643 294.797638,209.386612 
	C297.382477,211.734467 296.343079,213.932892 294.974426,216.601562 
	C292.650940,211.911896 290.340332,206.870804 287.995544,201.444550 
z"/>
<path fill="#B78A69" opacity="1.000000" stroke="none" 
	d="
M300.034180,232.971863 
	C299.780670,232.546326 299.527161,232.120789 299.396118,231.341461 
	C299.710327,230.852341 299.851349,230.676422 300.231812,230.304596 
	C301.801849,228.993393 304.725861,228.480148 302.149597,225.758606 
	C301.983887,225.583557 303.349609,223.958786 304.184082,223.275360 
	C305.580475,227.705521 306.795715,231.868698 307.889923,236.357605 
	C306.568085,238.462936 305.367279,240.242554 303.996765,241.678070 
	C302.562744,238.546600 301.298462,235.759232 300.034180,232.971863 
z"/>
<path fill="#CD9E77" opacity="1.000000" stroke="none" 
	d="
M337.784454,179.033234 
	C340.033112,180.156433 341.900177,181.236206 344.930176,182.988541 
	C342.685303,183.802261 341.264771,184.304306 339.853973,184.832458 
	C338.625946,185.292175 337.408997,185.781342 335.716614,186.604538 
	C333.516724,185.968506 331.787292,184.985458 330.057892,184.002411 
	C328.722107,182.858597 327.386322,181.714798 326.183960,180.090210 
	C326.534454,179.367538 326.746521,179.121338 326.953644,178.870850 
	C326.953644,178.870850 327.001862,178.913681 327.322693,178.912140 
	C328.113647,178.909103 328.583832,178.907593 329.053986,178.906097 
	C329.552307,178.881790 330.050598,178.857483 331.168549,179.028381 
	C333.150940,179.175278 334.513702,179.126999 335.876465,179.078705 
	C336.385254,179.049072 336.894043,179.019440 337.784454,179.033234 
z"/>
<path fill="#79221C" opacity="1.000000" stroke="none" 
	d="
M293.231506,196.788666 
	C291.187592,194.932159 289.486084,192.976349 287.795776,191.010895 
	C286.505768,189.510864 285.229950,187.998581 283.918854,186.166473 
	C284.680237,185.217712 285.470581,184.594254 286.651123,183.930405 
	C288.767731,184.883148 290.494141,185.876266 292.694305,187.177429 
	C294.103149,189.565506 295.038269,191.645538 296.149597,194.162903 
	C296.569824,194.798035 296.813843,194.995819 296.911926,195.557480 
	C296.616882,196.136002 296.467773,196.350662 296.318695,196.565308 
	C295.405396,196.605270 294.492065,196.645233 293.231506,196.788666 
z"/>
<path fill="#A8593B" opacity="1.000000" stroke="none" 
	d="
M300.097961,233.379211 
	C301.298462,235.759232 302.562744,238.546600 304.086609,241.987350 
	C304.581299,243.468536 304.816437,244.296326 305.051605,245.124115 
	C305.535278,248.860870 306.018921,252.597626 306.258301,256.524231 
	C304.063263,249.071548 302.112518,241.429047 300.097961,233.379211 
z"/>
<path fill="#B78A69" opacity="1.000000" stroke="none" 
	d="
M333.955322,248.322266 
	C337.253204,246.983231 340.530212,245.963150 344.078857,244.872040 
	C342.979492,248.538818 341.608490,252.276627 339.950012,256.083130 
	C341.268829,251.261703 336.527771,251.992966 334.221375,250.121246 
	C333.940369,249.494232 333.937378,249.067734 333.955322,248.322266 
z"/>
<path fill="#79221C" opacity="1.000000" stroke="none" 
	d="
M304.002930,223.008392 
	C303.349609,223.958786 301.983887,225.583557 302.149597,225.758606 
	C304.725861,228.480148 301.801849,228.993393 300.075317,230.204193 
	C299.628723,230.259155 299.263611,230.184875 299.263611,230.184875 
	C298.440430,227.333557 297.617249,224.482224 296.864868,221.295105 
	C296.935669,220.959290 297.119568,220.830048 297.492401,220.782043 
	C300.088715,221.012924 303.621063,217.759644 304.002930,223.008392 
z"/>
<path fill="#A8593B" opacity="1.000000" stroke="none" 
	d="
M358.241760,202.318359 
	C356.198425,199.507431 358.026489,194.311157 352.595337,192.904373 
	C353.821655,191.986053 355.113922,191.455582 356.406158,190.925110 
	C357.591278,191.288834 358.776428,191.652573 360.265015,192.049347 
	C359.857513,195.411163 359.146515,198.739914 358.241760,202.318359 
z"/>
<path fill="#CD9E77" opacity="1.000000" stroke="none" 
	d="
M345.190674,235.632172 
	C344.215179,236.243240 343.429291,236.601349 342.314362,236.999313 
	C341.342560,236.113235 340.321075,235.254105 340.143219,234.246124 
	C339.856140,232.619156 340.124542,230.894196 340.158295,229.210617 
	C341.391449,229.922638 342.594299,230.696487 343.869720,231.322342 
	C344.578491,231.670120 345.408417,231.771072 346.535278,232.007568 
	C346.384644,233.147644 345.882446,234.263412 345.190674,235.632172 
z"/>
<path fill="#BE784F" opacity="1.000000" stroke="none" 
	d="
M335.573242,179.030731 
	C334.513702,179.126999 333.150940,179.175278 331.540649,179.072510 
	C332.618774,178.941895 333.944397,178.962311 335.573242,179.030731 
z"/>
<path fill="#BE784F" opacity="1.000000" stroke="none" 
	d="
M328.856171,178.790680 
	C328.583832,178.907593 328.113647,178.909103 327.290649,178.916016 
	C327.511353,178.839386 328.084839,178.757324 328.856171,178.790680 
z"/>
<path fill="#A8593B" opacity="1.000000" stroke="none" 
	d="
M299.217041,230.435089 
	C299.263611,230.184875 299.628723,230.259155 299.785217,230.359543 
	C299.851349,230.676422 299.710327,230.852341 299.375610,231.089096 
	C299.211945,231.022095 299.191193,230.853699 299.217041,230.435089 
z"/>
<path fill="#B78A69" opacity="1.000000" stroke="none" 
	d="
M344.713501,242.743683 
	C344.522675,242.747040 344.493927,242.491119 344.652283,242.109436 
	C344.733398,242.162750 344.745483,242.329651 344.713501,242.743683 
z"/>
<path fill="#BE784F" opacity="1.000000" stroke="none" 
	d="
M326.773438,178.852493 
	C326.746521,179.121338 326.534454,179.367538 326.170166,179.802856 
	C326.022949,179.996292 326.000763,179.985641 326.067413,179.706573 
	C326.167267,179.244415 326.200439,179.061340 326.233582,178.878265 
	C326.233582,178.878265 326.593201,178.834137 326.773438,178.852493 
z"/>
<path fill="#CD9E77" opacity="1.000000" stroke="none" 
	d="
M325.958252,178.844925 
	C326.200439,179.061340 326.167267,179.244415 326.059784,179.696442 
	C325.669189,179.840591 325.438385,179.624435 325.211731,179.087982 
	C325.314545,178.843201 325.498749,178.827393 325.958252,178.844925 
z"/>
<path fill="#B78A69" opacity="1.000000" stroke="none" 
	d="
M339.033417,257.267548 
	C338.929901,257.289520 338.977142,256.925690 339.066101,256.891235 
	C339.155029,256.856812 339.136932,257.245575 339.033417,257.267548 
z"/>
<path fill="#8A0E0A" opacity="1.000000" stroke="none" 
	d="
M303.760529,212.186447 
	C299.771729,209.943573 301.245239,206.021072 300.828430,201.899979 
	C302.571564,198.778671 304.322815,196.434723 306.468964,194.084412 
	C309.089569,193.943741 311.361176,193.457550 313.532288,193.741104 
	C320.044281,194.591599 322.717926,198.866180 322.912537,205.074127 
	C322.600098,205.853012 322.287659,206.631897 321.740204,207.949158 
	C321.414398,208.839478 321.323608,209.191406 321.232819,209.543350 
	C321.013092,210.017639 320.793365,210.491928 320.296112,210.570679 
	C320.129639,207.918427 320.240692,205.661713 320.353607,203.367630 
	C313.754883,204.277786 313.703125,204.316467 315.257782,209.721237 
	C316.360504,213.554901 314.436432,214.095932 311.318085,213.509186 
	C308.804932,213.036301 306.280151,212.625061 303.760529,212.186447 
M307.746368,201.607895 
	C306.834869,201.538040 305.923370,201.468201 305.011871,201.398346 
	C305.039429,201.886566 305.067017,202.374786 305.094574,202.863022 
	C305.968903,202.665665 306.843231,202.468307 307.746368,201.607895 
M309.309814,199.026596 
	C309.621002,198.807907 309.932220,198.589218 310.243408,198.370544 
	C309.334991,198.397766 308.426575,198.425003 307.518158,198.452225 
	C307.921539,198.650146 308.324890,198.848068 309.309814,199.026596 
z"/>
<path fill="#730403" opacity="1.000000" stroke="none" 
	d="
M330.856079,236.915451 
	C330.469727,237.697769 330.083374,238.480087 329.405212,239.777435 
	C327.432495,241.554459 325.751556,242.816483 323.765350,244.134918 
	C322.372833,244.876450 321.285583,245.561584 320.202667,246.244003 
	C316.751953,241.773636 316.018127,241.595993 312.957123,244.457962 
	C312.235352,244.286697 311.513611,244.115448 310.346497,243.569458 
	C310.125397,241.464127 310.030090,239.610382 310.639801,238.028381 
	C311.942688,234.647705 313.610596,231.407730 315.494965,228.082932 
	C318.977570,227.271103 322.094208,226.486465 325.210846,225.701828 
	C325.955994,226.041260 326.701172,226.380707 327.834595,227.233551 
	C329.100586,230.803116 329.978333,233.859283 330.856079,236.915451 
M322.454681,232.144318 
	C321.345825,231.515472 320.236969,230.886642 319.128113,230.257797 
	C318.806305,230.576736 318.484467,230.895676 318.162659,231.214615 
	C318.702454,232.206665 319.043335,233.729065 319.842773,234.028931 
	C320.525635,234.285065 321.734985,233.137634 322.454681,232.144318 
z"/>
<path fill="#8A0E0A" opacity="1.000000" stroke="none" 
	d="
M347.009766,202.046417 
	C347.959320,204.116531 348.908905,206.186661 350.032715,208.559296 
	C349.645630,211.714188 349.677734,214.727203 345.815063,215.717331 
	C341.223938,216.894180 337.246948,216.249451 333.084137,213.420441 
	C336.880096,210.516251 340.191010,207.983139 343.967041,205.126953 
	C344.656250,204.439987 344.884674,204.078415 345.087891,203.703171 
	C345.095520,203.689148 344.858368,203.542542 344.735291,203.457718 
	C344.482849,203.964432 344.230408,204.471146 343.977936,204.977844 
	C339.541534,206.012985 335.105103,207.048126 330.289307,208.175934 
	C328.919434,207.410690 327.929016,206.552750 326.842285,205.015900 
	C327.751862,202.869919 328.757660,201.402847 330.095398,199.865417 
	C330.877777,199.761490 331.328278,199.727921 332.147827,199.797256 
	C334.645294,199.490936 336.773712,199.081680 339.260620,198.739090 
	C342.082672,199.885971 344.546204,200.966202 347.009766,202.046417 
z"/>
<path fill="#CD9E77" opacity="1.000000" stroke="none" 
	d="
M304.184082,223.275360 
	C303.621063,217.759644 300.088715,221.012924 297.497253,220.669769 
	C296.511780,214.874527 297.548218,213.524963 303.510437,213.358032 
	C307.198120,218.462418 311.886230,218.477982 316.790497,217.852570 
	C317.964905,221.841797 314.498993,222.681747 312.148376,225.109589 
	C310.641052,229.217331 309.325989,232.624603 308.010925,236.031891 
	C306.795715,231.868698 305.580475,227.705521 304.184082,223.275360 
z"/>
<path fill="#CD9E77" opacity="1.000000" stroke="none" 
	d="
M329.763489,199.935791 
	C328.757660,201.402847 327.751862,202.869919 326.714813,204.684021 
	C325.586304,204.960037 324.488983,204.889008 323.152100,204.946045 
	C322.717926,198.866180 320.044281,194.591599 313.532288,193.741104 
	C311.361176,193.457550 309.089569,193.943741 306.286987,193.919266 
	C305.465881,193.539917 305.246674,193.296844 305.187134,192.743454 
	C306.238129,191.924194 307.154388,191.392731 308.527863,190.884491 
	C313.645508,190.528015 318.305908,190.148315 322.991272,190.148651 
	C323.063141,191.034454 323.110107,191.540222 323.192291,192.335114 
	C323.472595,193.721664 323.717682,194.819077 323.899414,195.632843 
	C325.984009,195.744751 327.873505,195.846191 329.763000,195.947632 
	C329.807037,196.327637 329.851105,196.707657 329.895142,197.087662 
	C328.258118,198.055222 326.621124,199.022766 324.955933,200.013290 
	C324.927734,200.036270 325.008179,200.014725 325.405090,199.993973 
	C327.122467,199.960739 328.442993,199.948273 329.763489,199.935791 
z"/>
<path fill="#932D1D" opacity="1.000000" stroke="none" 
	d="
M316.995270,217.596680 
	C311.886230,218.477982 307.198120,218.462418 303.886841,213.344604 
	C303.625305,213.100220 303.710205,212.645798 303.735352,212.416122 
	C306.280151,212.625061 308.804932,213.036301 311.318085,213.509186 
	C314.436432,214.095932 316.360504,213.554901 315.257782,209.721237 
	C313.703125,204.316467 313.754883,204.277786 320.353607,203.367630 
	C320.240692,205.661713 320.129639,207.918427 320.007812,210.579224 
	C319.997040,210.983322 319.723877,211.153336 319.335510,211.237701 
	C318.638092,211.498428 318.329010,211.674805 318.019958,211.851196 
	C317.746643,213.681061 317.473328,215.510941 316.995270,217.596680 
M315.504211,215.455063 
	C315.504211,215.455063 315.527740,215.508957 315.504211,215.455063 
z"/>
<path fill="#932D1D" opacity="1.000000" stroke="none" 
	d="
M307.889893,236.357605 
	C309.325989,232.624603 310.641052,229.217331 311.995270,225.426163 
	C312.792419,225.032516 313.550415,225.022766 314.673676,225.489304 
	C315.069000,226.680435 315.098999,227.395279 315.128998,228.110107 
	C313.610596,231.407730 311.942688,234.647705 310.639801,238.028381 
	C310.030090,239.610382 310.125397,241.464127 309.977844,243.518494 
	C308.630402,244.233200 307.206329,244.624084 305.416931,245.069550 
	C304.816437,244.296326 304.581299,243.468536 304.256317,242.331451 
	C305.367279,240.242554 306.568085,238.462936 307.889893,236.357605 
z"/>
<path fill="#A8593B" opacity="1.000000" stroke="none" 
	d="
M331.143402,236.937515 
	C329.978333,233.859283 329.100586,230.803116 328.092712,227.404419 
	C330.566345,227.180710 333.170074,227.299561 336.025574,228.016388 
	C336.288727,229.110703 336.300110,229.607025 336.311523,230.103363 
	C334.954620,232.185898 333.597717,234.268448 332.123383,236.672974 
	C331.814240,236.983154 331.622498,236.971375 331.143402,236.937515 
z"/>
<path fill="#8A0E0A" opacity="1.000000" stroke="none" 
	d="
M315.494965,228.082932 
	C315.098999,227.395279 315.069000,226.680435 315.034668,225.608948 
	C318.344574,225.149750 321.658752,225.047211 325.091919,225.323242 
	C322.094208,226.486465 318.977570,227.271103 315.494965,228.082932 
z"/>
<path fill="#CD9E77" opacity="1.000000" stroke="none" 
	d="
M336.528259,230.017029 
	C336.300110,229.607025 336.288727,229.110703 336.317810,228.243439 
	C336.487213,228.558563 336.616089,229.244644 336.528259,230.017029 
z"/>
<path fill="#8A0E0A" opacity="1.000000" stroke="none" 
	d="
M318.310699,211.856995 
	C318.329010,211.674805 318.638092,211.498428 319.181519,211.191177 
	C319.144379,211.327805 318.872925,211.595291 318.310699,211.856995 
z"/>
<path fill="#932D1D" opacity="1.000000" stroke="none" 
	d="
M321.439209,209.342163 
	C321.323608,209.191406 321.414398,208.839478 321.648926,208.255142 
	C321.743652,208.395493 321.694641,208.768219 321.439209,209.342163 
z"/>
<path fill="#932D1D" opacity="1.000000" stroke="none" 
	d="
M327.489380,252.759125 
	C326.999969,254.992538 325.734650,257.217651 325.435822,259.565796 
	C325.195740,261.452026 326.126465,263.487274 326.772949,265.745087 
	C326.073364,266.926514 325.138519,267.819244 323.945435,268.912445 
	C322.449860,268.405792 321.212433,267.698700 319.773712,266.876526 
	C323.202881,262.679840 320.527191,255.402252 327.489380,252.759125 
z"/>
<path fill="#932D1D" opacity="1.000000" stroke="none" 
	d="
M313.109711,244.717743 
	C316.018127,241.595993 316.751953,241.773636 320.202667,246.244003 
	C321.285583,245.561584 322.372833,244.876450 323.748962,244.473511 
	C323.987549,245.432465 323.937256,246.109207 323.886963,246.785965 
	C321.565002,248.082413 319.243042,249.378845 316.598633,250.714813 
	C315.271515,248.828735 314.266907,246.903122 313.109711,244.717743 
z"/>
<path fill="#A8593B" opacity="1.000000" stroke="none" 
	d="
M324.261383,246.690796 
	C323.937256,246.109207 323.987549,245.432465 324.054260,244.417114 
	C325.751556,242.816483 327.432495,241.554459 329.367432,240.114929 
	C330.690521,241.937012 331.759552,243.936600 332.812378,246.296143 
	C330.076050,246.635925 327.355896,246.615768 324.261383,246.690796 
z"/>
<path fill="#932D1D" opacity="1.000000" stroke="none" 
	d="
M356.112640,190.697571 
	C355.113922,191.455582 353.821655,191.986053 352.272766,192.745422 
	C350.255402,192.731033 348.494690,192.487747 346.028198,192.217911 
	C344.235535,192.819046 343.148682,193.446732 341.650574,194.052795 
	C338.776489,193.721710 336.313629,193.412247 333.633606,192.980530 
	C333.151459,192.639435 332.971222,192.364944 333.033386,191.779724 
	C333.443756,190.806412 333.696472,190.088211 333.949188,189.370026 
	C332.999390,189.313126 332.049561,189.256226 330.772949,189.169891 
	C329.311035,187.772995 328.175995,186.405518 327.072174,184.718231 
	C327.137451,184.186890 327.171448,183.975372 327.205475,183.763870 
	C327.916229,183.869766 328.627014,183.975662 329.697815,184.041992 
	C331.787292,184.985458 333.516724,185.968506 335.598267,186.899719 
	C342.573303,188.055283 349.196198,189.262665 356.112640,190.697571 
z"/>
<path fill="#8A0E0A" opacity="1.000000" stroke="none" 
	d="
M326.925476,183.603333 
	C327.171448,183.975372 327.137451,184.186890 326.870605,184.942871 
	C326.044617,186.259125 325.451385,187.030899 324.613281,187.938950 
	C323.901062,188.639679 323.433685,189.204132 322.966339,189.768616 
	C318.305908,190.148315 313.645508,190.528015 308.663666,190.702744 
	C308.122467,189.900269 308.028595,188.894165 307.659729,188.780502 
	C306.467834,188.413284 305.174774,188.374222 304.242523,188.106277 
	C306.408234,187.322922 308.964966,187.280212 308.040741,184.120956 
	C314.242310,183.894897 320.443878,183.668839 326.925476,183.603333 
z"/>
<path fill="#730403" opacity="1.000000" stroke="none" 
	d="
M303.920715,188.208710 
	C305.174774,188.374222 306.467834,188.413284 307.659729,188.780502 
	C308.028595,188.894165 308.122467,189.900269 308.206451,190.679535 
	C307.154388,191.392731 306.238129,191.924194 304.889038,192.783875 
	C303.547272,193.513870 302.638275,193.915649 301.701019,194.362061 
	C301.672729,194.406708 301.701721,194.325897 301.246246,194.508774 
	C299.556610,194.610580 298.322479,194.529526 297.001892,194.209656 
	C296.601410,193.889069 296.287384,193.807312 295.973358,193.725571 
	C295.038269,191.645538 294.103149,189.565506 293.035950,187.195801 
	C293.629364,186.118591 294.422638,184.614426 295.067871,184.675446 
	C297.156250,184.872955 299.190308,185.645203 301.688599,186.540039 
	C302.728210,187.325592 303.324463,187.767151 303.920715,188.208710 
z"/>
<path fill="#932D1D" opacity="1.000000" stroke="none" 
	d="
M304.242523,188.106262 
	C303.324463,187.767151 302.728210,187.325592 302.071533,186.603333 
	C302.407288,182.557388 304.666718,182.681625 307.709869,183.936035 
	C308.964966,187.280212 306.408234,187.322922 304.242523,188.106262 
z"/>
<path fill="#E5BC95" opacity="1.000000" stroke="none" 
	d="
M297.088318,194.448456 
	C298.322479,194.529526 299.556610,194.610580 301.121490,194.667252 
	C301.399200,194.776611 301.346191,194.910370 301.293152,195.044128 
	C301.438538,194.801895 301.583923,194.559662 301.729309,194.317429 
	C302.638275,193.915649 303.547272,193.513870 304.754333,193.071671 
	C305.246674,193.296844 305.465881,193.539917 305.892029,193.925629 
	C304.322815,196.434723 302.571564,198.778671 300.735992,201.464844 
	C299.212524,200.223068 297.773376,198.639069 296.326477,196.810181 
	C296.467773,196.350662 296.616882,196.136002 297.012024,195.375824 
	C297.258057,194.830307 297.088318,194.448456 297.088318,194.448456 
z"/>
<path fill="#E5BC95" opacity="1.000000" stroke="none" 
	d="
M342.061798,194.074432 
	C343.148682,193.446732 344.235535,192.819046 345.642090,192.182037 
	C347.105865,193.703934 348.258942,195.228531 349.391144,196.768478 
	C350.265045,197.957138 351.112823,199.165039 351.972229,200.364380 
	C350.594330,200.964539 349.216461,201.564667 347.424133,202.105621 
	C344.546204,200.966202 342.082672,199.885971 339.259277,198.355469 
	C339.953522,196.628265 341.007660,195.351349 342.061798,194.074432 
z"/>
<path fill="#BE784F" opacity="1.000000" stroke="none" 
	d="
M297.001892,194.209641 
	C297.088318,194.448456 297.258057,194.830307 297.157959,195.011963 
	C296.813843,194.995819 296.569824,194.798035 296.149597,194.162903 
	C296.287384,193.807312 296.601410,193.889069 297.001892,194.209641 
z"/>
<path fill="#B78A69" opacity="1.000000" stroke="none" 
	d="
M307.731964,201.939423 
	C306.843231,202.468307 305.968903,202.665665 305.094574,202.863022 
	C305.067017,202.374786 305.039429,201.886566 305.011871,201.398346 
	C305.923370,201.468201 306.834869,201.538040 307.731964,201.939423 
z"/>
<path fill="#CD9E77" opacity="1.000000" stroke="none" 
	d="
M309.019043,199.036285 
	C308.324890,198.848068 307.921539,198.650146 307.518158,198.452240 
	C308.426575,198.425003 309.334991,198.397766 310.243408,198.370544 
	C309.932220,198.589218 309.621002,198.807907 309.019043,199.036285 
z"/>
<path fill="#8A0E0A" opacity="1.000000" stroke="none" 
	d="
M322.583069,232.377686 
	C321.734985,233.137634 320.525635,234.285065 319.842773,234.028931 
	C319.043335,233.729065 318.702454,232.206665 318.162659,231.214615 
	C318.484467,230.895676 318.806305,230.576736 319.128113,230.257797 
	C320.236969,230.886642 321.345825,231.515472 322.583069,232.377686 
z"/>
<path fill="#E5BC95" opacity="1.000000" stroke="none" 
	d="
M332.875671,192.034836 
	C332.971222,192.364944 333.151459,192.639435 333.641235,193.336411 
	C333.170288,195.774460 332.474518,197.734406 331.778778,199.694336 
	C331.328278,199.727921 330.877777,199.761490 330.095398,199.865433 
	C328.442993,199.948273 327.122467,199.960739 325.400208,199.986847 
	C324.998444,200.000488 324.984100,199.990311 324.984100,199.990311 
	C326.621124,199.022766 328.258118,198.055222 329.895142,197.087662 
	C329.851105,196.707657 329.807037,196.327637 329.763000,195.947632 
	C327.873505,195.846191 325.984009,195.744751 323.899414,195.632843 
	C323.717682,194.819077 323.472595,193.721664 323.434357,192.162582 
	C324.428131,191.104935 325.215057,190.508942 326.252686,190.121033 
	C327.363129,190.845505 328.222900,191.361893 329.306824,191.991043 
	C330.645905,192.080826 331.760803,192.057831 332.875671,192.034836 
z"/>
<path fill="#BE784F" opacity="1.000000" stroke="none" 
	d="
M332.147827,199.797272 
	C332.474518,197.734406 333.170288,195.774460 333.858398,193.458649 
	C336.313629,193.412247 338.776489,193.721710 341.650574,194.052811 
	C341.007660,195.351349 339.953522,196.628265 338.900757,198.288803 
	C336.773712,199.081680 334.645294,199.490936 332.147827,199.797272 
z"/>
<path fill="#A8593B" opacity="1.000000" stroke="none" 
	d="
M343.985901,204.985748 
	C344.230408,204.471146 344.482849,203.964432 344.735291,203.457718 
	C344.858368,203.542542 345.095520,203.689148 345.087891,203.703171 
	C344.884674,204.078415 344.656250,204.439987 344.220764,204.904572 
	C344.009369,205.005264 343.993896,204.993652 343.985901,204.985748 
z"/>
<path fill="#B78A69" opacity="1.000000" stroke="none" 
	d="
M326.001953,189.912964 
	C325.215057,190.508942 324.428131,191.104935 323.399170,191.873444 
	C323.110107,191.540222 323.063141,191.034454 322.991272,190.148651 
	C323.433685,189.204132 323.901062,188.639679 324.822296,188.164795 
	C325.518127,188.807220 325.760040,189.360092 326.001953,189.912964 
z"/>
<path fill="#E5BC95" opacity="1.000000" stroke="none" 
	d="
M325.003296,200.007599 
	C325.008179,200.014725 324.927734,200.036270 324.955933,200.013290 
	C324.984100,199.990311 324.998444,200.000488 325.003296,200.007599 
z"/>
<path fill="#8A0E0A" opacity="1.000000" stroke="none" 
	d="
M315.515991,215.482010 
	C315.527740,215.508957 315.504211,215.455063 315.515991,215.482010 
z"/>
<path fill="#A8593B" opacity="1.000000" stroke="none" 
	d="
M326.252686,190.121033 
	C325.760040,189.360092 325.518127,188.807220 325.067200,188.028503 
	C325.451385,187.030899 326.044617,186.259125 326.839355,185.262695 
	C328.175995,186.405518 329.311035,187.772995 330.587036,189.394806 
	C330.179535,190.392212 329.631104,191.135239 329.082642,191.878281 
	C328.222900,191.361893 327.363129,190.845505 326.252686,190.121033 
z"/>
<path fill="#B78A69" opacity="1.000000" stroke="none" 
	d="
M329.306824,191.991043 
	C329.631104,191.135239 330.179535,190.392212 330.913879,189.424255 
	C332.049561,189.256226 332.999390,189.313126 333.949188,189.370026 
	C333.696472,190.088211 333.443756,190.806412 333.033386,191.779724 
	C331.760803,192.057831 330.645905,192.080826 329.306824,191.991043 
z"/>
<path fill="#BE784F" opacity="1.000000" stroke="none" 
	d="
M301.701019,194.362061 
	C301.583923,194.559662 301.438538,194.801895 301.293152,195.044128 
	C301.346191,194.910370 301.399200,194.776611 301.576965,194.484375 
	C301.701721,194.325897 301.672729,194.406708 301.701019,194.362061 
z"/>
</svg>